<svg xmlns="http://www.w3.org/2000/svg" xmlns:xlink="http://www.w3.org/1999/xlink" viewBox="0 0 118.09 103.57"><defs><style>.cls-1{fill:#d7d7f7;}.cls-2{fill:#fff;}.cls-3{isolation:isolate;}.cls-4{fill:#f7dce8;}.cls-5{fill:#d3d094;}.cls-6{opacity:0.19;}.cls-6,.cls-7,.cls-8,.cls-9{mix-blend-mode:multiply;}.cls-11,.cls-7{fill:#222238;}.cls-7{opacity:0.22;}.cls-8{opacity:0.2;}.cls-9{opacity:0.05;}.cls-10{fill:#f2f0b6;}.cls-12{fill:#ff0;}</style><symbol id="jendela" data-name="jendela" viewBox="0 0 26 26"><rect class="cls-1" x="1" y="1" width="24" height="24"/><rect class="cls-2" x="1" y="1" width="16" height="24"/><path d="M25,26H1a1,1,0,0,1-1-1V1A1,1,0,0,1,1,0H25a1,1,0,0,1,1,1V25A1,1,0,0,1,25,26ZM2,24H24V2H2V24Z"/></symbol></defs><title>hotel</title><g class="cls-3"><g id="Layer_1" data-name="Layer 1"><rect class="cls-4" x="59.05" y="28.75" width="58.08" height="7.06"/><rect class="cls-5" x="4.84" y="74.53" width="3.87" height="27.1"/><path d="M13.91,114.09H9.55V86.51h4.36v27.59ZM10,113.61h3.39V87H10v26.62Z" transform="translate(-4.95 -12.21)"/><rect class="cls-2" x="4.84" y="74.53" width="0.97" height="27.1"/><rect class="cls-6" x="7.74" y="74.53" width="0.97" height="27.1"/><path d="M13.67,114.33H9.79a0.48,0.48,0,0,1-.48-0.48V86.75a0.48,0.48,0,0,1,.48-0.48h3.87a0.48,0.48,0,0,1,.48.48v27.1A0.48,0.48,0,0,1,13.67,114.33Zm-3.39-1h2.9V87.23h-2.9v26.14Z" transform="translate(-4.95 -12.21)"/><rect class="cls-5" x="14.52" y="0.97" width="63.89" height="100.67"/><rect class="cls-1" x="31.94" y="80.34" width="11.62" height="21.3"/><rect class="cls-2" x="31.94" y="80.34" width="7.74" height="21.3"/><path d="M48.51,114.33H36.9a0.48,0.48,0,0,1-.48-0.48V92.56a0.48,0.48,0,0,1,.48-0.48H48.51a0.48,0.48,0,0,1,.48.48v21.3A0.48,0.48,0,0,1,48.51,114.33Zm-11.13-1H48V93H37.38v20.33Z" transform="translate(-4.95 -12.21)"/><use width="26" height="26" transform="translate(60.98 15.97) scale(0.48)" xlink:href="#jendela"/><rect class="cls-1" x="43.56" y="80.34" width="11.62" height="21.3"/><rect class="cls-2" x="43.56" y="80.34" width="7.74" height="21.3"/><path d="M60.13,114.33H48.51a0.48,0.48,0,0,1-.48-0.48V92.56a0.48,0.48,0,0,1,.48-0.48H60.13a0.48,0.48,0,0,1,.48.48v21.3A0.48,0.48,0,0,1,60.13,114.33Zm-11.13-1H59.64V93H49v20.33Z" transform="translate(-4.95 -12.21)"/><rect class="cls-7" x="8.71" y="60.98" width="46.46" height="9.68"/><rect class="cls-8" x="14.52" y="74.86" width="48.4" height="3.55"/><rect class="cls-9" x="74.53" y="0.97" width="3.87" height="100.67"/><path d="M83.36,114.82H17.54a1,1,0,0,1-1-1V14.15a1.94,1.94,0,0,1,1.94-1.94H82.39a1.94,1.94,0,0,1,1.94,1.94v99.7A1,1,0,0,1,83.36,114.82ZM18.5,112.88H82.39V14.15H18.5v98.73Z" transform="translate(-4.95 -12.21)"/><rect class="cls-2" x="62.92" y="24.2" width="50.33" height="77.44"/><path d="M118.21,114.09H67.87a0.24,0.24,0,0,1-.24-0.24V36.41a0.24,0.24,0,0,1,.24-0.24h50.33a0.24,0.24,0,0,1,.24.24v77.44A0.24,0.24,0,0,1,118.21,114.09Zm-50.09-.48H118v-77H68.11v77Z" transform="translate(-4.95 -12.21)"/><rect class="cls-10" x="64.85" y="24.2" width="48.4" height="77.44"/><rect class="cls-4" x="8.71" y="4.84" width="73.57" height="7.74"/><rect class="cls-2" x="8.71" y="4.84" width="3.87" height="7.74"/><rect class="cls-9" x="78.41" y="4.84" width="3.87" height="7.74"/><path d="M87.23,25.76H13.67a1,1,0,0,1-1-1V17.05a1,1,0,0,1,1-1H87.23a1,1,0,0,1,1,1V24.8A1,1,0,0,1,87.23,25.76Zm-72.6-1.94H86.26V18H14.63v5.81Z" transform="translate(-4.95 -12.21)"/><rect class="cls-10" x="0.97" y="70.66" width="61.95" height="3.87"/><path d="M68.11,87H5.68V82.63H68.11V87Zm-62-.48H67.63V83.12H6.16v3.39Z" transform="translate(-4.95 -12.21)"/><rect class="cls-11" x="4.84" y="59.05" width="46.46" height="11.62"/><path class="cls-12" d="M15,73.12h1.63v4H20v-4h1.63V81H20v-2.4H16.61V81H15V73.12Z" transform="translate(-4.95 -12.21)"/><path class="cls-12" d="M23,77.07a4.09,4.09,0,1,1,4.09,4.05A4,4,0,0,1,23,77.07Zm6.5,0a2.42,2.42,0,1,0-2.41,2.6A2.43,2.43,0,0,0,29.5,77.07Z" transform="translate(-4.95 -12.21)"/><path class="cls-12" d="M33.89,74.55H31.64V73.12h6.13v1.43H35.52V81H33.89V74.55Z" transform="translate(-4.95 -12.21)"/><path class="cls-12" d="M39,73.12h5.22v1.43h-3.6v2.51h3.17v1.39H40.59v1.14h3.76V81H39V73.12Z" transform="translate(-4.95 -12.21)"/><path class="cls-12" d="M45.87,73.12h1.63v6.47h3.58V81h-5.2V73.12Z" transform="translate(-4.95 -12.21)"/><rect class="cls-9" x="109.38" y="24.2" width="3.87" height="77.44"/><path d="M118.21,114.82H67.87a1,1,0,0,1-1-1V37.38a1.94,1.94,0,0,1,1.94-1.94h48.4a1.94,1.94,0,0,1,1.94,1.94v76.47A1,1,0,0,1,118.21,114.82Zm-49.37-1.94h48.4V37.38H68.84v75.5Z" transform="translate(-4.95 -12.21)"/><rect class="cls-4" x="59.05" y="28.75" width="58.08" height="7.06"/><rect class="cls-9" x="113.25" y="28.75" width="3.87" height="7.06"/><rect class="cls-2" x="59.05" y="28.75" width="3.87" height="7.06"/><use id="jendela-5" data-name="jendela" width="26" height="26" transform="translate(15.97 15.97) scale(0.48)" xlink:href="#jendela"/><rect class="cls-2" x="0.97" y="70.66" width="1.94" height="3.87"/><rect class="cls-8" x="59.05" y="70.66" width="3.87" height="3.87"/><path d="M67.87,87.72h-62a1,1,0,0,1-1-1V82.88a1,1,0,0,1,1-1h62a1,1,0,0,1,1,1v3.87A1,1,0,0,1,67.87,87.72Zm-61-1.94h60V83.84h-60v1.94Z" transform="translate(-4.95 -12.21)"/><rect class="cls-4" x="59.05" y="28.75" width="58.08" height="7.06"/><path d="M122.08,49H64a1,1,0,0,1-1-1V41a1,1,0,0,1,1-1h58.08a1,1,0,0,1,1,1V48A1,1,0,0,1,122.08,49ZM65,47.06h56.14V41.94H65v5.12Z" transform="translate(-4.95 -12.21)"/><use id="jendela-8" data-name="jendela" width="26" height="26" transform="translate(30.98 15.97) scale(0.48)" xlink:href="#jendela"/><use width="26" height="26" transform="translate(45.98 15.97) scale(0.48)" xlink:href="#jendela"/><use width="26" height="26" transform="translate(15.97 30.98) scale(0.48)" xlink:href="#jendela"/><use width="26" height="26" transform="translate(30.98 30.98) scale(0.48)" xlink:href="#jendela"/><use width="26" height="26" transform="translate(45.98 30.98) scale(0.48)" xlink:href="#jendela"/><use width="26" height="26" transform="translate(15.97 45.98) scale(0.48)" xlink:href="#jendela"/><use width="26" height="26" transform="translate(30.98 45.98) scale(0.48)" xlink:href="#jendela"/><use width="26" height="26" transform="translate(45.98 45.98) scale(0.48)" xlink:href="#jendela"/><use width="26" height="26" transform="translate(66.79 39.2) scale(0.48)" xlink:href="#jendela"/><use width="26" height="26" transform="translate(81.79 39.2) scale(0.48)" xlink:href="#jendela"/><use width="26" height="26" transform="translate(96.8 39.2) scale(0.48)" xlink:href="#jendela"/><use width="26" height="26" transform="translate(66.79 54.21) scale(0.48)" xlink:href="#jendela"/><use width="26" height="26" transform="translate(81.79 54.21) scale(0.48)" xlink:href="#jendela"/><use width="26" height="26" transform="translate(96.8 54.21) scale(0.48)" xlink:href="#jendela"/><use width="26" height="26" transform="translate(66.79 68.73) scale(0.48)" xlink:href="#jendela"/><use width="26" height="26" transform="translate(81.79 68.73) scale(0.48)" xlink:href="#jendela"/><use width="26" height="26" transform="translate(96.8 68.73) scale(0.48)" xlink:href="#jendela"/><rect class="cls-2" x="2.9" y="101.64" width="112.29" height="1.94"/></g></g></svg>