<svg xmlns="http://www.w3.org/2000/svg" xmlns:xlink="http://www.w3.org/1999/xlink" viewBox="0 0 128 130.57"><defs><style>.cls-1{fill:#d4d4ff;}.cls-2{fill:#d7d7f7;}.cls-3{fill:#fff;}.cls-4{isolation:isolate;}.cls-5{clip-path:url(#clip-path);}.cls-6{fill:#f7dce8;}.cls-7{fill:#d3d094;}.cls-8{opacity:0.19;}.cls-10,.cls-11,.cls-8,.cls-9{mix-blend-mode:multiply;}.cls-13,.cls-9{fill:#222238;}.cls-9{opacity:0.22;}.cls-10{opacity:0.2;}.cls-11{opacity:0.05;}.cls-12{fill:#f2f0b6;}.cls-14{fill:#ff0;}</style><clipPath id="clip-path"><circle class="cls-1" cx="64" cy="64" r="64"/></clipPath><symbol id="jendela" data-name="jendela" viewBox="0 0 26 26"><rect class="cls-2" x="1" y="1" width="24" height="24"/><rect class="cls-3" x="1" y="1" width="16" height="24"/><path d="M25,26H1a1,1,0,0,1-1-1V1A1,1,0,0,1,1,0H25a1,1,0,0,1,1,1V25A1,1,0,0,1,25,26ZM2,24H24V2H2V24Z"/></symbol></defs><title>Untitled-4</title><g class="cls-4"><g id="Layer_1" data-name="Layer 1"><circle class="cls-1" cx="64" cy="64" r="64"/><g class="cls-5"><rect class="cls-6" x="64" y="55.75" width="58.08" height="7.06"/><rect class="cls-7" x="9.79" y="101.53" width="3.87" height="27.1"/><path d="M13.91,128.87H9.55V101.29h4.36v27.59ZM10,128.39h3.39V101.77H10v26.62Z"/><rect class="cls-3" x="9.79" y="101.53" width="0.97" height="27.1"/><rect class="cls-8" x="12.7" y="101.53" width="0.97" height="27.1"/><path d="M13.67,129.11H9.79a0.48,0.48,0,0,1-.48-0.48v-27.1A0.48,0.48,0,0,1,9.79,101h3.87a0.48,0.48,0,0,1,.48.48v27.1A0.48,0.48,0,0,1,13.67,129.11Zm-3.39-1h2.9V102h-2.9v26.14Z"/><rect class="cls-7" x="19.47" y="27.96" width="63.89" height="100.67"/><rect class="cls-2" x="36.9" y="107.33" width="11.62" height="21.3"/><rect class="cls-3" x="36.9" y="107.33" width="7.74" height="21.3"/><path d="M48.51,129.11H36.9a0.48,0.48,0,0,1-.48-0.48v-21.3a0.48,0.48,0,0,1,.48-0.48H48.51a0.48,0.48,0,0,1,.48.48v21.3A0.48,0.48,0,0,1,48.51,129.11Zm-11.13-1H48V107.82H37.38v20.33Z"/><use width="26" height="26" transform="translate(65.94 42.96) scale(0.48)" xlink:href="#jendela"/><rect class="cls-2" x="48.51" y="107.33" width="11.62" height="21.3"/><rect class="cls-3" x="48.51" y="107.33" width="7.74" height="21.3"/><path d="M60.13,129.11H48.51a0.48,0.48,0,0,1-.48-0.48v-21.3a0.48,0.48,0,0,1,.48-0.48H60.13a0.48,0.48,0,0,1,.48.48v21.3A0.48,0.48,0,0,1,60.13,129.11Zm-11.13-1H59.64V107.82H49v20.33Z"/><rect class="cls-9" x="13.67" y="87.98" width="46.46" height="9.68"/><rect class="cls-10" x="19.47" y="101.85" width="48.4" height="3.55"/><rect class="cls-11" x="79.49" y="27.96" width="3.87" height="100.67"/><path d="M83.36,129.6H17.54a1,1,0,0,1-1-1V28.93A1.94,1.94,0,0,1,18.5,27H82.39a1.94,1.94,0,0,1,1.94,1.94v99.7A1,1,0,0,1,83.36,129.6ZM18.5,127.66H82.39V28.93H18.5v98.73Z"/><rect class="cls-3" x="67.87" y="51.19" width="50.33" height="77.44"/><path d="M118.21,128.87H67.87a0.24,0.24,0,0,1-.24-0.24V51.19A0.24,0.24,0,0,1,67.87,51h50.33a0.24,0.24,0,0,1,.24.24v77.44A0.24,0.24,0,0,1,118.21,128.87Zm-50.09-.48H118v-77H68.11v77Z"/><rect class="cls-12" x="69.81" y="51.19" width="48.4" height="77.44"/><rect class="cls-6" x="13.67" y="31.83" width="73.57" height="7.74"/><rect class="cls-3" x="13.67" y="31.83" width="3.87" height="7.74"/><rect class="cls-11" x="83.36" y="31.83" width="3.87" height="7.74"/><path d="M87.23,40.54H13.67a1,1,0,0,1-1-1V31.83a1,1,0,0,1,1-1H87.23a1,1,0,0,1,1,1v7.74A1,1,0,0,1,87.23,40.54Zm-72.6-1.94H86.26V32.8H14.63v5.81Z"/><rect class="cls-12" x="5.92" y="97.66" width="61.95" height="3.87"/><path d="M68.11,101.77H5.68V97.41H68.11v4.36Zm-62-.48H67.63V97.9H6.16v3.39Z"/><rect class="cls-13" x="9.79" y="86.04" width="46.46" height="11.62"/><path class="cls-14" d="M15,87.9h1.63v4H20v-4h1.63v7.89H20v-2.4H16.61v2.4H15V87.9Z"/><path class="cls-14" d="M23,91.85a4.09,4.09,0,1,1,4.09,4.05A4,4,0,0,1,23,91.85Zm6.5,0a2.42,2.42,0,1,0-2.41,2.6A2.43,2.43,0,0,0,29.5,91.85Z"/><path class="cls-14" d="M33.89,89.33H31.64V87.9h6.13v1.43H35.52v6.47H33.89V89.33Z"/><path class="cls-14" d="M39,87.9h5.22v1.43h-3.6v2.51h3.17v1.39H40.59v1.14h3.76v1.43H39V87.9Z"/><path class="cls-14" d="M45.87,87.9h1.63v6.47h3.58v1.43h-5.2V87.9Z"/><rect class="cls-11" x="114.33" y="51.19" width="3.87" height="77.44"/><path d="M118.21,129.6H67.87a1,1,0,0,1-1-1V52.16a1.94,1.94,0,0,1,1.94-1.94h48.4a1.94,1.94,0,0,1,1.94,1.94v76.47A1,1,0,0,1,118.21,129.6Zm-49.37-1.94h48.4V52.16H68.84v75.5Z"/><rect class="cls-6" x="64" y="55.75" width="58.08" height="7.06"/><rect class="cls-11" x="118.21" y="55.75" width="3.87" height="7.06"/><rect class="cls-3" x="64" y="55.75" width="3.87" height="7.06"/><use id="jendela-5" data-name="jendela" width="26" height="26" transform="translate(20.92 42.96) scale(0.48)" xlink:href="#jendela"/><rect class="cls-3" x="5.92" y="97.66" width="1.94" height="3.87"/><rect class="cls-10" x="64" y="97.66" width="3.87" height="3.87"/><path d="M67.87,102.5h-62a1,1,0,0,1-1-1V97.66a1,1,0,0,1,1-1h62a1,1,0,0,1,1,1v3.87A1,1,0,0,1,67.87,102.5Zm-61-1.94h60V98.62h-60v1.94Z"/><rect class="cls-6" x="64" y="55.75" width="58.08" height="7.06"/><path d="M122.08,63.78H64a1,1,0,0,1-1-1V55.75a1,1,0,0,1,1-1h58.08a1,1,0,0,1,1,1v7.06A1,1,0,0,1,122.08,63.78ZM65,61.84h56.14V56.72H65v5.12Z"/><use id="jendela-8" data-name="jendela" width="26" height="26" transform="translate(35.93 42.96) scale(0.48)" xlink:href="#jendela"/><use width="26" height="26" transform="translate(50.93 42.96) scale(0.48)" xlink:href="#jendela"/><use width="26" height="26" transform="translate(20.92 57.97) scale(0.48)" xlink:href="#jendela"/><use width="26" height="26" transform="translate(35.93 57.97) scale(0.48)" xlink:href="#jendela"/><use width="26" height="26" transform="translate(50.93 57.97) scale(0.48)" xlink:href="#jendela"/><use width="26" height="26" transform="translate(20.92 72.97) scale(0.48)" xlink:href="#jendela"/><use width="26" height="26" transform="translate(35.93 72.97) scale(0.48)" xlink:href="#jendela"/><use width="26" height="26" transform="translate(50.93 72.97) scale(0.48)" xlink:href="#jendela"/><use width="26" height="26" transform="translate(71.74 66.2) scale(0.48)" xlink:href="#jendela"/><use width="26" height="26" transform="translate(86.75 66.2) scale(0.48)" xlink:href="#jendela"/><use width="26" height="26" transform="translate(101.75 66.2) scale(0.48)" xlink:href="#jendela"/><use width="26" height="26" transform="translate(71.74 81.2) scale(0.48)" xlink:href="#jendela"/><use width="26" height="26" transform="translate(86.75 81.2) scale(0.48)" xlink:href="#jendela"/><use width="26" height="26" transform="translate(101.75 81.2) scale(0.48)" xlink:href="#jendela"/><use width="26" height="26" transform="translate(71.74 95.72) scale(0.48)" xlink:href="#jendela"/><use width="26" height="26" transform="translate(86.75 95.72) scale(0.48)" xlink:href="#jendela"/><use width="26" height="26" transform="translate(101.75 95.72) scale(0.48)" xlink:href="#jendela"/><rect class="cls-3" x="7.86" y="128.63" width="112.29" height="1.94"/></g></g></g></svg>