<?xml version="1.0" encoding="UTF-8" standalone="no"?>
<svg width="512px" height="512px" viewBox="0 0 512 512" version="1.1" xmlns="http://www.w3.org/2000/svg" xmlns:xlink="http://www.w3.org/1999/xlink" xmlns:sketch="http://www.bohemiancoding.com/sketch/ns">
    <!-- Generator: Sketch 3.0.4 (8054) - http://www.bohemiancoding.com/sketch -->
    <title>Group</title>
    <desc>Created with Sketch.</desc>
    <defs></defs>
    <g id="Page-1" stroke="none" stroke-width="1" fill="none" fill-rule="evenodd" sketch:type="MSPage">
        <g id="Group" sketch:type="MSLayerGroup">
            <rect id="Rectangle-28" fill="#EBDF1B" sketch:type="MSShapeGroup" x="0" y="0" width="512" height="512"></rect>
            <g transform="translate(82.000000, 172.000000)" sketch:type="MSShapeGroup">
                <g id="Path-+-Path" transform="translate(56.000000, 0.000000)" stroke="#000000" stroke-width="4">
                    <path d="M0.185456014,38 C0.0630529327,37.0180026 0,36.017583 0,35.0024414 L0,23.9975586 C0,10.7529053 10.746347,0 24.0026379,0 L55.9973621,0 C69.2523803,0 80,10.7440729 80,23.9975586 L80,35.0024414 C80,36.0175027 79.9368804,37.0179285 79.8143488,38 L0.185456014,38 L0.185456014,38 Z" id="Path"></path>
                    <path d="M69.6776608,38 C69.8887635,37.0341597 70,36.0311788 70,35.0024414 L70,23.9975586 C70,16.2679157 63.730528,10 55.9973621,10 L24.0026379,10 C16.2723401,10 10,16.2726071 10,23.9975586 L10,35.0024414 C10,36.0313034 10.1110776,37.0342677 10.3218994,38 L69.6776608,38 L69.6776608,38 Z" id="Path"></path>
                </g>
                <rect id="Rectangle-22" stroke="#222222" stroke-width="4" x="0" y="36" width="192" height="128" rx="8"></rect>
                <rect id="Rectangle-23" stroke="#000000" stroke-width="4" x="31" y="36" width="36" height="128"></rect>
                <rect id="Rectangle-24" stroke="#000000" stroke-width="4" x="124" y="36" width="36" height="128"></rect>
                <rect id="Rectangle-25" fill="#000000" x="40" y="161" width="16" height="8" rx="4"></rect>
                <rect id="Rectangle-26" fill="#000000" x="134" y="161" width="16" height="8" rx="4"></rect>
            </g>
            <g id="Rectangle-27-+-Oval-1-+-Oval-1" transform="translate(29.000000, 45.000000)" stroke="#000000" stroke-width="4" sketch:type="MSShapeGroup">
                <rect id="Rectangle-27" x="0" y="0" width="128" height="80" rx="12"></rect>
                <path d="M42.0583333,57 C30.9804217,57 22,48.045695 22,37 C22,25.954305 30.9804217,17 42.0583333,17 C51.207802,17 58.9264808,23.1081239 61.3365521,31.4578313 L93.05,31.4578313 C93.05,31.4578313 99.3333333,31.4578313 100.3,31.939759 C101.266667,32.4216867 109,36.2959337 109,36.7684488 C109,37.2409639 100.3,47.3614458 99.8166667,47.3614458 C99.3333333,47.3614458 93.5333333,43.9879518 93.05,43.9879518 C92.5666667,43.9879518 87.25,47.3614458 86.5193359,47.3614458 C85.7886719,47.3614458 81.9333333,43.9879518 81.45,43.9879518 C80.9666667,43.9879518 76.1276693,47.3614458 76.1276693,47.3614458 L72.2610026,47.3614458 C72.2610026,47.3614458 67.9166667,42.5421687 67.4333333,42.5421687 C66.95,42.5421687 61.8693359,47.3614458 61.8693359,47.3614458 L59.2184071,47.3614458 C55.7016014,53.1395688 49.3321083,57 42.0583333,57 Z" id="Oval-1"></path>
                <circle id="Oval-1" cx="36.5" cy="37.5" r="5.5"></circle>
            </g>
            <g transform="translate(29.000000, 395.000000)" sketch:type="MSShapeGroup">
                <rect id="Rectangle-11" stroke="#000000" stroke-width="4" x="0" y="72" width="128" height="24" rx="4"></rect>
                <rect id="Rectangle-12" stroke="#000000" stroke-width="4" x="18" y="62" width="92" height="14"></rect>
                <path d="M120.861828,64 C120.953435,62.8518627 121,61.6929512 121,60.5245902 C121,33.1729143 95.4802307,11 64,11 C32.5197693,11 7,33.1729143 7,60.5245902 C7,61.6929512 7.04656536,62.8518627 7.13817157,64 L120.861828,64 L120.861828,64 Z" id="Oval-2" stroke="#000000" stroke-width="4"></path>
                <rect id="Rectangle-13" fill="#000000" x="52" y="0" width="24" height="4"></rect>
                <rect id="Rectangle-14" fill="#000000" x="60" y="4" width="8" height="7"></rect>
            </g>
            <g id="Rectangle-15-+-Oval-2" transform="translate(421.000000, 58.000000)" stroke="#000000" stroke-width="4" sketch:type="MSShapeGroup" opacity="0.13">
                <path d="M1.89622642,47.9709708 L1.89622642,31.3904619 C1.89622642,14.057207 16.0457178,0 33.5,0 C50.9581199,0 65.1037736,14.0539885 65.1037736,31.3904619 L65.1037736,48.9816312 C65.1037736,49.8556739 65.0677949,50.7213864 64.9972279,51.5773863 C65.0675828,52.1660346 65.1037736,52.7650873 65.1037736,53.3725342 L65.1037736,119.930233 C65.1037736,128.251752 58.3119644,135.000441 49.9338432,135.000441 L17.0661568,135.000441 C8.69054194,135.000441 1.89622642,128.253279 1.89622642,119.930233 L1.89622642,82.8837209 C2.52830189,61.1570173 40.149041,49.7098615 41.8413962,48.316815 C48.1318302,45.2509503 52.4622642,38.8255279 52.4622642,31.3953488 C52.4622642,20.9918454 43.9725693,12.5581395 33.5,12.5581395 C23.0274307,12.5581395 14.5377358,20.9918454 14.5377358,31.3953488 C14.5377358,32.1858894 14.5867567,32.9650561 14.5377358,33.9069767 C14.5377358,37.3748112 11.7078376,40.1860465 8.21698113,40.1860465 C4.72612469,40.1860465 1.89622642,37.3748112 1.89622642,33.9069767 L1.89622642,47.9709708 Z" id="Rectangle-15"></path>
                <path d="M38.5566038,117.413494 C47.2803942,115.182953 53.7264151,107.316031 53.7264151,97.9534884 C53.7264151,88.5909461 47.2803942,80.7240237 38.5566038,78.4934832 L38.5566038,117.413494 Z M28.4433962,78.4934832 C19.7196058,80.7240237 13.2735849,88.5909461 13.2735849,97.9534884 C13.2735849,107.316031 19.7196058,115.182953 28.4433962,117.413494 L28.4433962,78.4934832 Z" id="Oval-2" transform="translate(33.500000, 98.267442) rotate(41.000000) translate(-33.500000, -98.267442) "></path>
            </g>
            <g transform="translate(337.000000, 222.000000)" stroke="#000000" stroke-width="4" sketch:type="MSShapeGroup">
                <path d="M109.569009,8.98729934 C114.557678,6.34914675 119.559591,5.91960597 123.252653,8.33382663 C130.236057,12.8990023 129.894931,25.9038765 122.490725,37.3810261 C115.08652,48.8581756 103.423059,54.4614376 96.4396545,49.8962619 C96.0695361,49.6543089 95.7199921,49.388649 95.3909835,49.1007662 C102.834034,38.5508651 107.961399,24.5995299 109.569009,8.98729934 L109.569009,8.98729934 Z" id="Oval-3"></path>
                <path d="M97.9633599,45.4516847 C103.555027,47.4021379 111.771906,43.3216102 117.150785,35.6309927 C123.015225,27.2461289 123.285412,17.7451551 117.754263,14.4099736 C115.273483,12.9141081 112.047034,12.9126271 108.713727,14.1224575 C106.974416,25.9175459 103.206598,36.6271269 97.963354,45.4516947 L97.9633599,45.4516847 Z" id="Path"></path>
                <path d="M80.1428769,63.8053202 C96.6956292,53.6830268 108.605996,30.8026737 109.974477,3.69226967 C110.031614,2.56035995 108.668369,0.275034046 106.146635,0.275034189 C91.9738262,0.275034988 43.062021,0.27506917 16.608173,0.275039238 C12.1452401,0.275034189 12.0686834,2.99880396 12.1452401,4.34522763 C13.6704617,31.1696883 25.5220972,53.7643794 41.9417811,63.8053097 L80.142894,63.8053097 L80.1428769,63.8053202 Z" id="Oval-3"></path>
                <path d="M121.662987,63.8053097 C121.662987,67.2265427 94.4265344,70 60.8286674,70 C27.2308005,70 -0.0056521125,67.2265427 -0.0056521125,63.8053097 L121.662987,63.8053097 L121.662987,63.8053097 Z" id="Oval-4"></path>
            </g>
            <g id="Group-2" transform="translate(204.000000, 30.000000)" stroke="#231F20" stroke-width="4" sketch:type="MSShapeGroup">
                <path d="M26.8085106,23.8139535 L74.4680851,71.4418605 L122.12766,23.8139535 L26.8085106,23.8139535 Z" id="Shape"></path>
                <path d="M74,71.4418605 L74,125.023256" id="Shape"></path>
                <path d="M50.6382979,125 L98.2978723,125" id="Shape"></path>
                <path d="M44.6808511,23.8139535 L23.8297872,0 L0,0" id="Shape"></path>
                <path d="M105.262128,23.796093 C104.60383,21.9415814 104.255319,19.9412093 104.255319,17.8604651 C104.255319,7.9895814 112.25617,0 122.12766,0 C131.990213,0 140,7.9895814 140,17.8604651 C140,27.7313488 131.990213,35.7209302 122.12766,35.7209302 C118.708085,35.7209302 115.517872,34.7683721 112.807234,33.1162791" id="Shape"></path>
            </g>
            <g id="Group-3" transform="translate(344.000000, 363.000000)" stroke="#231F20" stroke-width="4" sketch:type="MSShapeGroup">
                <path d="M16.7368421,128 L5.57894737,128 C2.49657895,128 0,125.509565 0,122.434783 L0,97.3913043 C0,92.7833043 3.74347368,89.0434783 8.36842105,89.0434783 L16.7368421,89.0434783 L16.7368421,128 L16.7368421,128 Z" id="Shape"></path>
                <path d="M89.2631579,128 L100.421053,128 C103.503421,128 106,125.509565 106,122.434783 L106,97.3913043 C106,92.7833043 102.256526,89.0434783 97.6315789,89.0434783 L89.2631579,89.0434783 L89.2631579,128 L89.2631579,128 Z" id="Shape"></path>
                <path d="M78.1052632,128 L27.8947368,128 L27.8947368,97.3913043 C27.8947368,92.7833043 31.6382105,89.0434783 36.2631579,89.0434783 L69.7368421,89.0434783 C74.3506316,89.0434783 78.1052632,92.7833043 78.1052632,97.3913043 L78.1052632,128 L78.1052632,128 Z" id="Shape"></path>
                <path d="M89.2631579,55.6521739 L89.2631579,128 L16.7368421,128 L16.7368421,55.6521739" id="Shape"></path>
                <path d="M39.0526316,55 L66.9473684,55" id="Shape"></path>
                <rect id="Rectangle-path" x="27.8947368" y="38.9565217" width="11.1578947" height="27.826087"></rect>
                <rect id="Rectangle-path" x="66.9473684" y="38.9565217" width="11.1578947" height="27.826087"></rect>
                <path d="M27.8947368,105 L78.1052632,105" id="Shape"></path>
                <path d="M0,105 L16.7368421,105" id="Shape"></path>
                <path d="M89.2631579,105 L106,105" id="Shape"></path>
                <path d="M27.8947368,55.6521739 L16.7368421,55.6521739 C13.6572632,55.6521739 11.1578947,53.1589565 11.1578947,50.0869565 L11.1578947,16.6956522 C11.1578947,7.47686957 18.6532105,0 27.8947368,0 L78.1052632,0 C87.3467895,0 94.8421053,7.47686957 94.8421053,16.6956522 L94.8421053,50.0869565 C94.8421053,53.1589565 92.3427368,55.6521739 89.2631579,55.6521739 L78.1052632,55.6521739" id="Shape"></path>
            </g>
            <g id="icon-untitled1238-link" transform="translate(12.000000, 352.000000)" fill="#000000" sketch:type="MSShapeGroup">
                <g id="icon-untitled1238">
                    <path d="M47.718,11.25 L39.656,3.188 C37.594,1.22 34.78,0 31.874,0 L16.124,0 C13.218,0 10.406,1.126 8.342,3.188 L0.28,11.25 C-0.096,11.718 -0.096,12.282 0.28,12.75 L6.28,18.75 C6.656,19.126 7.312,19.126 7.686,18.75 L10.968,15.374 L10.968,37.03 C10.968,37.592 11.436,37.968 12,37.968 L36,37.968 C36.562,37.968 37.032,37.592 37.032,37.03 L37.032,15.374 L40.314,18.75 C40.69,19.126 41.346,19.126 41.72,18.75 L47.72,12.75 C47.908,12.562 48.002,12.282 48.002,12 C48.002,11.718 47.908,11.438 47.72,11.25 L47.718,11.25 Z M28.876,1.968 C28.408,4.312 26.438,6 24,6 C21.562,6 19.594,4.312 19.124,1.968 L28.876,1.968 Z M40.968,16.594 L36.75,12.282 C36.374,12 36,11.906 35.624,12.094 C35.248,12.188 34.968,12.562 34.968,13.032 L34.968,36 L13.03,36 L13.03,13.032 C13.03,12.564 12.748,12.188 12.374,12.094 C11.998,11.906 11.53,12 11.248,12.282 L7.03,16.594 L2.436,12 L9.748,4.594 C11.436,2.906 13.78,1.968 16.124,1.968 L17.062,1.968 C17.53,5.344 20.438,7.968 24,7.968 C27.562,7.968 30.468,5.342 30.938,1.968 L31.876,1.968 C34.22,1.968 36.564,3 38.252,4.594 L45.564,12 L40.968,16.594 Z" id="Shape"></path>
                </g>
            </g>
            <g id="icon-untitled1239-link" transform="translate(445.000000, 308.000000)" fill="#000000" sketch:type="MSShapeGroup">
                <g id="icon-untitled1239">
                    <path d="M47.718,14.282 L36.75,3.314 C36.562,3.126 36.282,3.032 36,3.032 L33.374,3.032 L30.748,0.314 C30.654,0.314 30.654,0.314 30.654,0.22 C30.56,0.22 30.466,0.126 30.466,0.126 C30.372,0.126 30.372,0.032 30.372,0.032 L29.996,0.032 L29.996,0.032 L17.996,0.032 L17.996,0.032 L17.62,0.032 C17.62,0.126 17.62,0.126 17.526,0.126 C17.432,0.126 17.432,0.22 17.338,0.22 C17.338,0.314 17.338,0.314 17.244,0.314 L14.618,3.032 L11.992,3.032 C11.71,3.032 11.43,3.126 11.242,3.314 L0.274,14.282 C-0.102,14.658 -0.102,15.314 0.274,15.688 L6.274,21.688 C6.65,22.064 7.306,22.064 7.68,21.688 L10.962,18.406 L10.962,41 C10.962,41.562 11.43,42.032 11.994,42.032 L35.994,42.032 C36.556,42.032 37.026,41.564 37.026,41 L37.026,18.406 L40.308,21.688 C40.684,22.064 41.34,22.064 41.714,21.688 L47.714,15.688 C48.09,15.312 48.09,14.656 47.714,14.282 L47.718,14.282 Z M30,2.376 L31.594,3.97 L27,8.564 L25.406,6.97 L30,2.376 Z M27.562,2 L24,5.562 L20.438,2 L27.562,2 Z M18,2.376 L22.594,6.97 L21,8.564 L16.406,3.97 L18,2.376 Z M40.968,19.626 L36.75,15.314 C36.374,15.032 36,14.938 35.624,15.032 C35.248,15.22 34.968,15.594 34.968,15.97 L34.968,39.97 L13.03,39.97 L13.03,15.97 C13.03,15.594 12.748,15.22 12.374,15.032 C11.998,14.938 11.53,15.032 11.248,15.314 L7.03,19.626 L2.436,15.032 L12.374,5 L14.624,5 L20.25,10.718 C20.532,10.906 20.718,11 21,11 C21.282,11 21.468,10.906 21.75,10.718 L22.968,9.406 L22.968,17 C22.968,17.562 23.436,18.032 24,18.032 C24.564,18.032 25.032,17.564 25.032,17 L25.032,9.406 L26.25,10.718 C26.532,10.906 26.718,11 27,11 C27.282,11 27.468,10.906 27.75,10.718 L33.376,5 L35.626,5 L45.564,15.032 L40.968,19.626 Z" id="Shape"></path>
                </g>
            </g>
            <g id="icon-untitled1240-link" transform="translate(184.000000, 371.000000)" fill="#000000" sketch:type="MSShapeGroup">
                <g id="icon-untitled1240">
                    <path d="M127.248,38.425381 L98,8.9162381 C97.4986667,8.41042857 96.752,8.15752381 96,8.15752381 L88.9973333,8.15752381 L81.9946667,0.844809524 C81.744,0.844809524 81.744,0.844809524 81.744,0.591904762 C81.4933333,0.591904762 81.2426667,0.339 81.2426667,0.339 C80.992,0.339 80.992,0.0860952381 80.992,0.0860952381 L79.9893333,0.0860952381 L79.9893333,0.0860952381 L47.9893333,0.0860952381 L47.9893333,0.0860952381 L46.9866667,0.0860952381 C46.9866667,0.339 46.9866667,0.339 46.736,0.339 C46.4853333,0.339 46.4853333,0.591904762 46.2346667,0.591904762 C46.2346667,0.844809524 46.2346667,0.844809524 45.984,0.844809524 L38.9813333,8.15752381 L31.9786667,8.15752381 C31.2266667,8.15752381 30.48,8.41042857 29.9786667,8.9162381 L0.730666667,38.425381 C-0.272,39.437 -0.272,41.2019524 0.730666667,42.2081905 L16.7306667,58.3510476 C17.7333333,59.3626667 19.4826667,59.3626667 20.48,58.3510476 L29.232,49.5209048 L29.232,110.309524 C29.232,111.821571 30.48,113.086095 31.984,113.086095 L95.984,113.086095 C97.4826667,113.086095 98.736,111.826952 98.736,110.309524 L98.736,49.5209048 L107.488,58.3510476 C108.490667,59.3626667 110.24,59.3626667 111.237333,58.3510476 L127.237333,42.2081905 C128.24,41.1965714 128.24,39.431619 127.237333,38.425381 L127.248,38.425381 Z M80,6.39257143 L84.2506667,10.6811905 L72,23.0412381 L67.7493333,18.752619 L80,6.39257143 Z M73.4986667,5.38095238 L64,14.9644286 L54.5013333,5.38095238 L73.4986667,5.38095238 Z M48,6.39257143 L60.2506667,18.752619 L56,23.0412381 L43.7493333,10.6811905 L48,6.39257143 Z M33.0026667,40.4432381 C32,40.1903333 30.752,40.4432381 30,41.2019524 L18.752,52.8032857 L6.50133333,40.4432381 L33.0026667,13.452381 L39.0026667,13.452381 L54.0053333,28.8365238 C54.7573333,29.3423333 55.2533333,29.5952381 56.0053333,29.5952381 C56.7573333,29.5952381 57.2533333,29.3423333 58.0053333,28.8365238 L61.2533333,25.306619 L61.2533333,107.532952 L34.752,107.532952 L34.752,42.9615238 C34.752,41.9499048 34,40.9436667 33.0026667,40.4378571 L33.0026667,40.4432381 Z M109.248,52.8032857 L98,41.2019524 C96.9973333,40.4432381 96,40.1903333 94.9973333,40.4432381 C93.9946667,40.9490476 93.248,41.9552857 93.248,42.9669048 L93.248,107.538333 L66.7466667,107.538333 L66.7466667,25.312 L69.9946667,28.8419048 C70.7466667,29.3477143 71.2426667,29.600619 71.9946667,29.600619 C72.7466667,29.600619 73.2426667,29.3477143 73.9946667,28.8419048 L88.9973333,13.4577619 L94.9973333,13.4577619 L121.498667,40.448619 L109.248,52.8032857 Z M74.752,42.9615238 C74.752,44.4735714 73.504,45.7380952 72,45.7380952 C70.496,45.7380952 69.248,44.4789524 69.248,42.9615238 C69.248,41.4494762 70.496,40.4378571 72,40.4378571 C73.504,40.4378571 74.752,41.4494762 74.752,42.9615238 L74.752,42.9615238 Z M74.752,53.8095238 C74.752,55.3215714 73.504,56.5860952 72,56.5860952 C70.496,56.5860952 69.248,55.3269524 69.248,53.8095238 C69.248,52.2974762 70.496,51.0329524 72,51.0329524 C73.504,51.0329524 74.752,52.2920952 74.752,53.8095238 L74.752,53.8095238 Z M74.752,64.6575238 C74.752,66.1695714 73.504,67.1811905 72,67.1811905 C70.496,67.1811905 69.248,66.1695714 69.248,64.6575238 C69.248,63.1454762 70.496,61.8809524 72,61.8809524 C73.504,61.8809524 74.752,63.1400952 74.752,64.6575238 L74.752,64.6575238 Z M74.752,75.2472381 C74.752,76.7592857 73.504,78.0238095 72,78.0238095 C70.496,78.0238095 69.248,76.7646667 69.248,75.2472381 C69.248,73.7351905 70.496,72.7235714 72,72.7235714 C73.504,72.7235714 74.752,73.7351905 74.752,75.2472381 L74.752,75.2472381 Z M74.752,86.0952381 C74.752,87.6072857 73.504,88.8718095 72,88.8718095 C70.496,88.8718095 69.248,87.6126667 69.248,86.0952381 C69.248,84.5831905 70.496,83.3186667 72,83.3186667 C73.504,83.3186667 74.752,84.5778095 74.752,86.0952381 L74.752,86.0952381 Z" id="Shape"></path>
                </g>
            </g>
            <g id="icon-untitled1369-link" transform="translate(29.000000, 159.000000)" fill="#000000" sketch:type="MSShapeGroup">
                <g id="icon-untitled1369">
                    <path d="M24,38.032 L22.406,38.032 L22.406,37.938 C21.188,36.72 18.656,34 13.968,34 L10.03,34 L10.03,32.968 C10.03,32.406 9.562,32.03 8.998,32.03 L1.03,32.03 C0.468,32.03 -0.002,32.406 -0.002,32.968 L-0.002,44.968 C-0.002,45.53 0.466,46 1.03,46 L8.998,46 C9.56,46 10.03,45.532 10.03,44.968 L10.03,44.03 L38.998,44.03 C39.56,44.03 40.03,43.562 40.03,42.998 C40.03,39.622 34.78,38.03 23.998,38.03 L24,38.032 Z M7.968,44.032 L1.968,44.032 L1.968,34 L7.968,34 L7.968,44.032 Z M10.032,41.968 L10.032,35.968 L13.97,35.968 C16.596,35.968 18.376,37 19.502,38.03 L13.97,38.03 C13.408,38.03 13.032,38.406 13.032,38.968 C13.032,39.53 13.408,40 13.97,40 L24.002,40 C31.502,40 35.72,40.938 37.314,41.968 L10.032,41.968 Z M6,41.032 C6,41.594 5.532,41.97 4.968,41.97 C4.404,41.97 4.03,41.594 4.03,41.032 C4.03,40.47 4.406,40 4.968,40 C5.53,40 6,40.468 6,41.032 L6,41.032 Z M46.968,23.968 L42.936,23.968 C42.468,15.062 35.904,7.842 27.28,6.342 C27.748,5.686 28.03,4.842 28.03,3.998 C28.03,1.748 26.248,-0.034 23.998,-0.034 C21.748,-0.034 19.966,1.748 19.966,3.998 C19.966,4.842 20.248,5.686 20.716,6.342 C12.09,7.842 5.528,15.06 5.06,23.968 L1.028,23.968 C0.466,23.968 -0.004,24.436 -0.004,25 C-0.004,25.564 0.464,26.032 1.028,26.032 L2.622,26.032 L6.278,29.688 C6.466,29.876 6.746,29.97 7.028,29.97 L40.966,29.97 C41.248,29.97 41.528,29.876 41.716,29.688 L45.372,26.032 L46.966,26.032 C47.528,26.032 47.998,25.564 47.998,25 C47.998,24.436 47.53,23.968 46.966,23.968 L46.968,23.968 Z M22.032,4 C22.032,2.874 22.876,2.032 24,2.032 C25.124,2.032 25.968,2.876 25.968,4 C25.968,5.126 25.124,5.968 24,5.968 C22.876,5.968 22.032,5.124 22.032,4 L22.032,4 Z M24,8.032 C33,8.032 40.406,15.064 40.968,23.97 L7.03,23.97 C7.592,15.064 14.998,8.032 23.998,8.032 L24,8.032 Z M40.594,28 L7.406,28 L5.438,26.032 L42.564,26.032 L40.594,28 Z M24,11.032 C19.218,11.032 14.812,13.376 12.188,17.5 C11.906,17.968 12,18.532 12.47,18.812 C12.658,18.906 12.846,19 13.032,19 C13.408,19 13.688,18.812 13.876,18.532 C16.126,15.064 19.876,13 24.002,13 C24.564,13 25.034,12.532 25.034,11.968 C25.034,11.404 24.566,11.03 24.002,11.03 L24,11.032 Z" id="Shape"></path>
                </g>
            </g>
        </g>
    </g>
</svg>