<?xml version="1.0" encoding="UTF-8" standalone="no"?>
<svg width="16px" height="24px" viewBox="0 0 16 24" version="1.1" xmlns="http://www.w3.org/2000/svg" xmlns:xlink="http://www.w3.org/1999/xlink" xmlns:sketch="http://www.bohemiancoding.com/sketch/ns">
    <!-- Generator: Sketch 3.0.4 (8054) - http://www.bohemiancoding.com/sketch -->
    <title>icon-untitled1580-link 2</title>
    <desc>Created with Sketch.</desc>
    <defs></defs>
    <g id="Page-1" stroke="none" stroke-width="1" fill="none" fill-rule="evenodd" sketch:type="MSPage">
        <g id="512" sketch:type="MSArtboardGroup" transform="translate(-360.000000, -256.000000)" fill="#9B9B9B">
            <g id="icon-untitled1580-link-2" sketch:type="MSLayerGroup" transform="translate(361.000000, 256.000000)">
                <g id="icon-untitled1580" sketch:type="MSShapeGroup">
                    <path d="M13.891,11.625 L0.766,0.141 C0.532,-0.047 0.25,-0.047 0.063,0.188 C-0.125,0.376 -0.125,0.704 0.11,0.891 L12.813,12 L0.11,23.109 C-0.124,23.297 -0.124,23.625 0.063,23.812 C0.157,23.953 0.297,24 0.438,24 C0.532,24 0.672,23.953 0.766,23.859 L13.891,12.375 C14.032,12.281 14.079,12.141 14.079,12 C14.079,11.859 14.032,11.719 13.891,11.625 L13.891,11.625 Z" id="Shape"></path>
                </g>
            </g>
        </g>
    </g>
</svg>