<?xml version="1.0" encoding="utf-8"?>
<!-- Generator: Adobe Illustrator 16.0.0, SVG Export Plug-In . SVG Version: 6.00 Build 0)  -->
<!DOCTYPE svg PUBLIC "-//W3C//DTD SVG 1.0//EN" "http://www.w3.org/TR/2001/REC-SVG-20010904/DTD/svg10.dtd">
<svg version="1.0" id="Layer_1" xmlns="http://www.w3.org/2000/svg" xmlns:xlink="http://www.w3.org/1999/xlink" x="0px" y="0px"
	 width="267.951px" height="97.104px" viewBox="0 0 267.951 97.104" enable-background="new 0 0 267.951 97.104"
	 xml:space="preserve">
<g>
	<path fill="none" d="M205.104,56.334c0.168,5.822,0.143,11.652,0.143,17.479c0,2.83,0,5.66,0,8.49c0-2.83-0.05-5.66-0.048-8.49
		C205.202,67.987,205.272,62.157,205.104,56.334z"/>
	<path fill="#EBDF1B" d="M165.728,46.613c9.615,1.23,18.917,1.077,28.196-1.564c0.912-0.26,1.749-0.785,2.62-1.188
		c-0.075-0.34-0.15-0.68-0.227-1.02c-20.951-1.396-41.901-2.792-61.986-4.129c1.607-5.429,3.441-11.623,5.329-18.002
		c0.587,0.522,1.3,0.976,1.774,1.608c9.05,12.08,22.635,14.25,36.143,16.326c6.558,1.008,13.226,1.396,19.86,1.788
		c6.595,0.389,13.214,0.683,19.813,0.55c6.412-0.129,12.808-1.012,19.222-1.251c3.499-0.131,7.022,0.386,10.535,0.611
		c0.206-0.666,0.411-1.331,0.618-1.997c-2.327-1.262-4.572-2.721-7.003-3.731c-2.595-1.078-6.068-0.98-7.922-2.716
		c-4.962-4.646-9.423-2.774-14.678-0.808c-5.503,2.059-11.61,4.532-17.188,4.005c-22.307-2.106-43.709-7.954-61.868-21.761
		C126.927,4.18,115,4.382,101.98,10.349c-4.839,2.218-10.242,3.202-15.389,4.749c0.146-0.803,0.295-1.606,0.442-2.409
		c-2.79-2.104-5.294-5.249-8.427-6.109c-8.49-2.334-17.199-4.006-25.913-5.34c-5.812-0.89-11.161,0.92-14.576,4.573
		c5.827-0.254,12.184-1.156,18.421-0.63c6.259,0.527,12.437,2.32,18.58,3.843c7.754,1.922,8.816,4.155,5.205,11.268
		c-2.198,4.332-4.949,8.383-7.451,12.561c0.318,0.229,0.637,0.457,0.956,0.686c3.394-4.364,6.786-8.728,10.179-13.092
		c0.318,0.091,0.637,0.182,0.955,0.273c-1.137,4.133-2.275,8.266-3.766,13.682c2.561-1.067,4.472-1.629,6.133-2.613
		c2.278-1.351,4.215-3.331,6.567-4.495c5.833-2.885,8.587-0.887,8.044,5.535c-0.237,2.818-0.576,5.641-0.584,8.462
		c-0.012,4.168,2.242,6.741,6.32,5.286c9.308-3.321,18.722-2.038,28.151-1.599C145.803,45.443,155.853,45.348,165.728,46.613z"/>
	<path fill="#EBDF1B" d="M199.198,60.342c-0.052-6.174-2.038-7.744-8.264-7.887c-17.956-0.414-35.912-0.868-53.858-1.55
		c-8.352-0.317-9.902,1.296-8.062,10.382c12.793,0.613,25.729,1.242,38.665,1.844c1.828,0.086,3.776-0.338,5.456,0.174
		c1.215,0.371,2.075,1.9,3.094,2.912c-0.992,0.826-1.867,1.982-3.008,2.389c-1.188,0.422-2.634,0.174-3.964,0.131
		c-11.147-0.367-22.292-0.877-33.442-1.084c-5.842-0.109-7.432,1.643-7.524,7.41c-0.074,4.662-0.105,9.328,0.028,13.988
		c0.164,5.695,1.931,7.57,7.568,7.592c19.65,0.074,39.301-0.037,58.951,0.041c3.219,0.014,4.422-1.137,4.389-4.369
		C199.117,81.657,199.287,70.999,199.198,60.342z M176.087,82.432c-0.416,1.422-2.098,3.426-3.309,3.498
		c-5.799,0.344-11.65,0.367-17.44-0.061c-1.677-0.123-3.214-2.123-4.815-3.264c1.721-1.199,3.343-3.027,5.235-3.445
		c2.695-0.594,5.488-0.15,8.488-0.15c0,0.021,0,0.043,0,0.064c3,0,5.617,0.076,8.441-0.023
		C175.147,78.965,176.831,79.893,176.087,82.432z"/>
	<path fill="#EBDF1B" d="M121.55,64.26c-0.012-9.766-2.98-12.42-12.856-11.055c-14.013,1.938-27.903,1.635-41.716-1.546
		c-3.733-0.859-7.494-1.625-11.27-2.268c-6.256-1.065-8.314,0.59-8.376,7.005c-0.113,11.664,0.126,23.332-0.15,34.992
		c-0.103,4.34,1.562,5.549,5.534,5.234c3.146-0.248,6.328-0.047,9.494-0.049c7.854-0.006,7.857-0.006,7.86-7.83
		c0.004-8.447,0.001-16.895,0.001-25.623c8.262,0.498,15.393,1.113,22.534,1.289c4.665,0.117,6.595,2.059,6.464,6.713
		c-0.198,6.992,0.008,13.998-0.146,20.994c-0.07,3.152,1.012,4.59,4.303,4.484c4.662-0.152,9.335-0.152,13.996,0.004
		c3.192,0.105,4.436-1.062,4.381-4.35C121.449,82.926,121.563,73.592,121.55,64.26z"/>
	<path fill="#EBDF1B" d="M251.525,46.923c-1.33,0.012-2.67,0.013-3.99,0.156c-12.738,1.391-25.463,2.929-38.217,4.143
		c-3.553,0.338-4.406,1.913-4.314,5.112c0.168,5.822,0.048,11.652,0.045,17.479c-0.002,2.83-0.002,5.66-0.002,8.49
		c0,14.461,0,14.332,14.345,14.4c4.108,0.02,6.488-0.818,5.8-5.465c-0.591-3.988,1.613-4.664,5.03-4.607
		c9.985,0.164,19.976,0.107,29.964,0.08c5.807-0.016,7.489-1.461,7.7-7.316c0.196-5.482-0.106-10.982-0.147-16.475
		C267.639,49.91,264.512,46.808,251.525,46.923z M244.401,77.145c-2.646-0.1-5.154,0.229-8.154,0.363c0,0.043,0,0.086,0,0.129
		c-1,0-2.139-0.033-3.299,0.006c-8.5,0.283-8.654,0.156-7.703-8.348c0.154-1.383,2.009-3.436,3.329-3.682
		c5.048-0.938,10.225-1.334,15.352-1.795c4.609-0.416,6.463,1.699,6.53,6.434C250.519,74.692,249.415,77.334,244.401,77.145z"/>
	<path fill="#EBDF1B" d="M20.164,34.243c-3.658-0.146-7.331-0.145-10.992-0.034c-5.628,0.171-7.828,2.377-7.888,7.998
		C1.2,50.037,1.263,57.866,1.267,65.696c0,5.997-0.047,11.995-0.023,17.993c0.008,1.999,0.024,3.998,0.052,5.997
		c0.074,5.125,2.236,7.215,7.373,7.354c3.828,0.105,7.664,0.066,11.494-0.006c4.441-0.084,6.878-2.516,6.904-6.863
		c0.098-16.324,0.102-32.652,0.003-48.976C27.044,36.854,24.527,34.417,20.164,34.243z"/>
	<path fill="#FFFFFF" d="M1.267,65.696C1.263,57.866,1.2,50.037,1.284,42.207C1.2,50.037,1.263,57.866,1.265,65.696
		c0.001,5.997-0.045,11.995-0.021,17.993C1.22,77.691,1.267,71.693,1.267,65.696z"/>
	<path fill="#EBDF1B" d="M13.487,0.004C5.648-0.157,0.107,4.871,0.001,12.238c-0.115,8.124,6.551,13.334,17.153,13.405
		c7.497,0.05,12.354-4.616,12.429-11.938C29.658,6.326,22.447,0.188,13.487,0.004z M26.673,17.021c-2.396,0-4.357-0.374-6.109,0.073
		c-4.609,1.175-7.808-1.039-8.068-6.211c-1.076,0.351-2.08,0.931-3.098,0.953c-1.604,0.034-3.217-0.306-4.826-0.488
		c0.23-1.843-0.115-4.073,0.809-5.451c2.117-3.154,10.509-3.305,15.462-0.691C26.108,7.984,28.085,12.134,26.673,17.021z"/>
	<path fill="#EBDF1B" d="M52.696,16.684c-0.399,7.336-0.8,14.661-1.269,23.262c5.215-6.068,9.799-11.402,15.377-17.892
		C60.968,19.833,56.395,18.092,52.696,16.684z"/>
	<path fill="#EBDF1B" d="M46.87,42.982c-5.126,2.571-10.253,5.143-15.38,7.713C37.982,50.794,43.119,48.242,46.87,42.982z"/>
</g>
</svg>
