<?xml version="1.0" encoding="utf-8"?>
<!-- Generator: Adobe Illustrator 16.2.1, SVG Export Plug-In . SVG Version: 6.00 Build 0)  -->
<!DOCTYPE svg PUBLIC "-//W3C//DTD SVG 1.1//EN" "http://www.w3.org/Graphics/SVG/1.1/DTD/svg11.dtd">
<svg version="1.1" id="Слой_1" xmlns="http://www.w3.org/2000/svg" xmlns:xlink="http://www.w3.org/1999/xlink" x="0px" y="0px"
	 width="100px" height="100px" viewBox="0 0 100 100" enable-background="new 0 0 100 100" xml:space="preserve">
<path fill="#EDEDED" d="M49.986,0c-27.614,0-50,22.386-50,50s22.386,50,50,50s50-22.386,50-50S77.601,0,49.986,0z"/>
<path fill="#EFC75E" d="M19.985,35l30.001-14.986L79.987,35l-0.017,1.981L49.986,51.985l-29.989-14.98L19.985,35z"/>
<path fill="#E7BF55" d="M19.986,35l29.977,14.999L79.986,35v30L49.877,80L19.986,65V35z"/>
<polygon fill="#DBB551" points="49.986,79.945 49.986,49.987 49.963,49.999 19.986,35 19.986,65 49.877,80 "/>
<polygon fill="#F1D999" points="61.99,43.991 61.99,52.783 64.668,52.999 66.375,50.966 67.982,51.219 67.982,40.997 "/>
<polygon fill="#F7E3AF" points="31.967,29.015 62.477,44.294 67.979,41.034 37.979,26.011 "/>
<g>
	<g>
		<path fill="#F2F2F2" d="M43.979,63.122l-9.984-5.01c-0.551-0.277-0.998,0.06-0.998,0.751v6.261c0,0.692,0.447,1.478,0.998,1.754
			l9.984,5.01c0.551,0.276,0.998-0.061,0.998-0.752v-6.261C44.977,64.184,44.529,63.398,43.979,63.122z M41.482,68.131l-5.99-3.007
			c-0.275-0.138-0.499-0.53-0.499-0.876s0.224-0.514,0.499-0.376l5.99,3.006c0.275,0.139,0.499,0.531,0.499,0.877
			S41.758,68.269,41.482,68.131z M42.48,66.127l-6.988-3.507c-0.275-0.139-0.499-0.531-0.499-0.877s0.224-0.514,0.499-0.376
			l6.988,3.508c0.276,0.138,0.499,0.531,0.499,0.876C42.979,66.097,42.757,66.266,42.48,66.127z"/>
	</g>
</g>
</svg>
