<?xml version="1.0" encoding="utf-8"?>
<!-- Generator: Adobe Illustrator 16.2.1, SVG Export Plug-In . SVG Version: 6.00 Build 0)  -->
<!DOCTYPE svg PUBLIC "-//W3C//DTD SVG 1.1//EN" "http://www.w3.org/Graphics/SVG/1.1/DTD/svg11.dtd">
<svg version="1.1" id="Слой_1" xmlns="http://www.w3.org/2000/svg" xmlns:xlink="http://www.w3.org/1999/xlink" x="0px" y="0px"
	 width="100px" height="100px" viewBox="0 0 100 100" enable-background="new 0 0 100 100" xml:space="preserve">
<path fill="#3DB39E" d="M50,0c27.614,0,50,22.386,50,50s-22.386,50-50,50S0,77.614,0,50S22.386,0,50,0z"/>
<g>
	<defs>
		<path id="SVGID_1_" d="M50,0c27.614,0,50,22.386,50,50s-22.386,50-50,50S0,77.614,0,50S22.386,0,50,0z"/>
	</defs>
	<clipPath id="SVGID_2_">
		<use xlink:href="#SVGID_1_"  overflow="visible"/>
	</clipPath>
	<g clip-path="url(#SVGID_2_)">
		<path fill="#E4E7E7" d="M-44.824,49.552l110.808,55.439l7.148-3.576l-110.807-55.44L-44.824,49.552z M73.423,25.158l-17.872-8.941
			l-7.148,3.576l17.872,8.942L73.423,25.158z M60.913,31.418l-17.872-8.942l-7.149,3.577l17.872,8.941L60.913,31.418z
			 M48.402,37.677L30.53,28.735l-7.148,3.576l17.872,8.942L48.402,37.677z M35.892,43.937L18.02,34.994l-7.148,3.577l17.872,8.941
			L35.892,43.937z M23.382,50.195L5.51,41.254L-1.64,44.83l17.872,8.942L23.382,50.195z M10.871,56.454l-17.872-8.941l-7.149,3.576
			l17.872,8.942L10.871,56.454z"/>
	</g>
</g>
<path fill="#349886" d="M60.383,71.931c5.98-3.357,13.493-1.589,14.434-0.005c0.924,1.556-1.241,8.796-7.222,12.154
	c-5.979,3.357-13.491,1.59-14.433,0.005C52.384,82.774,54.403,75.288,60.383,71.931z"/>
<path fill="#E77944" d="M53.021,14.255C68.715-1.35,93.516-1.989,97.776,2.247c4.186,4.162,3.616,28.896-12.077,44.502
	s-40.49,16.248-44.754,12.008C37.42,55.252,37.328,29.86,53.021,14.255z"/>
<path fill="#CDCECD" d="M58.588,38.534l18.981-18.955c0.788-0.787,2.065-0.787,2.854,0c0.788,0.788,0.788,2.063,0,2.852
	L61.442,41.386c-0.788,0.787-2.066,0.787-2.854,0S57.8,39.321,58.588,38.534z"/>
<g>
	<path fill="#EFF1F1" d="M60.315,34.287c-0.373-0.373-0.978-0.373-1.351,0l-0.676,0.675c-0.373,0.374-0.373,0.979,0,1.352
		l5.403,5.402c0.372,0.373,0.978,0.373,1.351,0l0.675-0.676c0.373-0.373,0.373-0.978,0-1.351L60.315,34.287z M65.305,29.274
		c-0.374-0.373-0.981-0.373-1.355,0l-0.679,0.676c-0.374,0.372-0.374,0.978,0,1.351l5.424,5.403c0.375,0.373,0.981,0.373,1.356,0
		l0.678-0.676c0.375-0.373,0.375-0.978,0-1.351L65.305,29.274z M70.308,24.294c-0.373-0.373-0.978-0.373-1.351,0l-0.676,0.675
		c-0.373,0.373-0.373,0.978,0,1.351l5.404,5.403c0.373,0.372,0.978,0.372,1.351,0l0.676-0.676c0.372-0.373,0.372-0.978,0-1.351
		L70.308,24.294z M80.724,24.685L75.32,19.28c-0.373-0.373-0.978-0.373-1.351,0l-0.675,0.676c-0.373,0.373-0.373,0.978,0,1.351
		l5.402,5.403c0.373,0.374,0.978,0.374,1.351,0l0.676-0.675C81.096,25.662,81.096,25.058,80.724,24.685z"/>
</g>
<path fill="#C5673A" d="M50.945,60.757c-3.525-3.505-3.617-28.896,12.076-44.502C73.39,5.945,87.73,2.171,97.499,2.016
	c-4.931-3.972-29.08-3.071-44.478,12.239C37.328,29.86,37.42,55.252,40.945,58.757c1.447,1.438,5.262,2.312,10.279,2.233
	C51.129,60.913,51.026,60.838,50.945,60.757z"/>
<g>
	<path fill="#EFF1F1" d="M91.418,9.565c-3.132-3.135-5.875-6.643-7.803-9.31C80.947,0.53,78.067,1.049,75.1,1.856
		c0.638,1.012,5.008,7.819,10.608,13.425c4.567,4.572,9.941,8.335,12.324,9.92c0.842-2.979,1.383-5.874,1.68-8.562
		C97.205,14.771,94.168,12.317,91.418,9.565z"/>
	<path fill="#EFF1F1" d="M39.144,46.268c2.53,1.874,5.624,4.356,8.421,7.151c2.445,2.443,4.652,5.111,6.426,7.436
		c2.72-0.216,5.689-0.692,8.769-1.478c-1.776-2.618-5.288-7.483-9.479-11.669c-4.894-4.889-10.707-8.842-12.78-10.193
		C39.767,40.601,39.336,43.567,39.144,46.268z"/>
</g>
<path fill="#EFF1F1" d="M40.501,37.515c-0.179,0.751-0.338,1.495-0.482,2.23c-0.012,0.062-0.023,0.125-0.035,0.188
	c-0.128,0.667-0.242,1.325-0.343,1.974c-0.011,0.074-0.023,0.146-0.034,0.22c-0.215,1.43-0.368,2.815-0.462,4.135
	c0,0.002,0,0.004,0,0.006c2.53,1.874,5.624,4.356,8.421,7.151c0.56,0.56,1.103,1.132,1.635,1.708
	c-0.304-2.908-0.235-6.662,0.38-10.825C45.759,41.036,42.065,38.534,40.501,37.515z"/>
<path fill="#CCCDCD" d="M40.501,37.515c-0.179,0.751-0.338,1.495-0.482,2.23c-0.012,0.062-0.023,0.125-0.035,0.188
	c-0.128,0.667-0.242,1.325-0.343,1.974c-0.011,0.074-0.023,0.146-0.034,0.22c-0.215,1.43-0.368,2.815-0.462,4.135
	c0,0.002,0,0.004,0,0.006c2.53,1.874,5.624,4.356,8.421,7.151c0.56,0.56,1.103,1.132,1.635,1.708
	c-0.304-2.908-0.235-6.662,0.38-10.825C45.759,41.036,42.065,38.534,40.501,37.515z"/>
<path fill="#CCCDCD" d="M78.119,6.267c2.694-1.142,5.396-2.015,8.023-2.675c-0.944-1.189-1.795-2.324-2.527-3.336
	c-0.649,0.067-1.312,0.149-1.984,0.246c-0.036,0.005-0.073,0.011-0.109,0.016c-2.038,0.296-4.174,0.732-6.358,1.323
	c-0.021,0.006-0.042,0.012-0.062,0.017C75.395,2.325,76.487,4.026,78.119,6.267z"/>
</svg>
