<?xml version="1.0" encoding="utf-8"?>
<!-- Generator: Adobe Illustrator 16.2.1, SVG Export Plug-In . SVG Version: 6.00 Build 0)  -->
<!DOCTYPE svg PUBLIC "-//W3C//DTD SVG 1.1//EN" "http://www.w3.org/Graphics/SVG/1.1/DTD/svg11.dtd">
<svg version="1.1" id="Слой_1" xmlns="http://www.w3.org/2000/svg" xmlns:xlink="http://www.w3.org/1999/xlink" x="0px" y="0px"
	 width="100px" height="100px" viewBox="0 0 100 100" enable-background="new 0 0 100 100" xml:space="preserve">
<path fill="#EFC75E" d="M50,0c27.613,0,50,22.386,50,50s-22.387,50-50,50C22.386,100,0,77.614,0,50S22.386,0,50,0z"/>
<path fill="#E2574C" d="M23.594,32.664c9.478-9.633,18.871-5.424,26.396,1.448c7.521-6.872,16.841-11.158,26.394-1.448
	c7.445,7.565,7.485,19.724,0,27.25c-12.557,11.481-19.12,17.474-22.552,20.601c-2.146,1.958-5.395,1.964-7.551,0.017
	c-3.457-3.123-10.063-9.115-22.688-20.617C16.108,52.388,16.147,40.229,23.594,32.664z"/>
<path fill="#FFFFFF" d="M15.667,73.668c3-0.332,4.667-2,5-5c0.333,3,2,4.668,5,5c-3,0.334-4.667,2-5,5
	C20.334,75.67,18.667,74.002,15.667,73.668z"/>
<g>
	<g>
		<path fill="#FFFFFF" d="M74,71.002c-0.332,2.998-2,4.666-5,5c3,0.332,4.668,2,5,4.998c0.334-2.998,2.001-4.666,5.001-4.998
			C76.001,75.668,74.334,74,74,71.002z M40,10.001c-0.332,2.999-2,4.667-5,5c3,0.333,4.668,2,5,4.999
			c0.334-2.999,2.001-4.667,5.001-4.999C42.001,14.668,40.334,13,40,10.001z"/>
	</g>
</g>
<path fill="#FCF4DF" d="M67,33.003c5.4-0.601,8.4-3.603,9.001-9c0.601,5.398,3.601,8.4,9.001,9c-5.4,0.599-8.4,3.6-9.001,8.999
	C75.4,36.604,72.4,33.603,67,33.003z"/>
<path fill="#E66E65" d="M25.001,45.688c0-6.444,5.241-11.686,11.685-11.686c0.727,0,1.313,0.588,1.313,1.313
	c0,0.725-0.588,1.313-1.313,1.313c-4.994,0-9.058,4.064-9.058,9.06c0,0.726-0.588,1.313-1.313,1.313
	C25.59,47,25.001,46.413,25.001,45.688z"/>
<path fill="#CB4E44" d="M48.453,78.609c-3.457-3.123-10.062-9.115-22.688-20.617c-0.02-0.019-0.035-0.039-0.054-0.059
	c-0.373-0.34-0.733-0.669-1.119-1.02c-4.93-4.959-6.574-11.921-5.01-18.261c-3.022,7.047-1.714,15.504,4.01,21.261
	C36.217,71.416,42.822,77.407,46.281,80.53c2.156,1.947,5.404,1.94,7.551-0.017c0.521-0.475,1.125-1.026,1.802-1.644
	C53.497,80.522,50.492,80.451,48.453,78.609z"/>
<path fill="#F9DDDB" d="M78.783,35.637c-0.689-1.048-1.487-2.046-2.399-2.973c-0.979-0.996-1.956-1.836-2.929-2.55
	c-1.51,1.604-3.652,2.578-6.455,2.89c5.4,0.599,8.4,3.6,9.001,8.999C76.307,39.259,77.238,37.141,78.783,35.637z"/>
</svg>
