<?xml version="1.0" encoding="utf-8"?>
<!-- Generator: Adobe Illustrator 16.2.1, SVG Export Plug-In . SVG Version: 6.00 Build 0)  -->
<!DOCTYPE svg PUBLIC "-//W3C//DTD SVG 1.1//EN" "http://www.w3.org/Graphics/SVG/1.1/DTD/svg11.dtd">
<svg version="1.1" id="Слой_1" xmlns="http://www.w3.org/2000/svg" xmlns:xlink="http://www.w3.org/1999/xlink" x="0px" y="0px"
	 width="100px" height="100px" viewBox="0 0 100 100" enable-background="new 0 0 100 100" xml:space="preserve">
<path fill="#EFC75E" d="M50,0c27.614,0,50,22.385,50,50c0,27.613-22.386,50-50,50S0,77.613,0,50C0,22.385,22.386,0,50,0z"/>
<path fill="#D7B354" d="M4.624,70.998H24v-43L0.049,51.949C0.31,58.734,1.921,65.168,4.624,70.998z"/>
<path fill="#923604" d="M7.927,77C16.821,90.83,32.335,100,50,100s33.179-9.17,42.073-23H7.927z"/>
<path fill="#7B2B00" d="M92.073,77H7.927C8.585,78.023,9.27,79.029,10,80h80.001C90.729,79.029,91.415,78.023,92.073,77z"/>
<path fill="#9B481A" d="M60.821,92.377c1.49-0.873,2.172-1.271,1.686-3.248c-0.906-3.689,0.327-8.803,1.386-12.133h-2.039
	c-1.078,3.605-2.299,9.225-0.788,11.232c0.28,0.369,0.204,0.898-0.172,1.176s-0.907,0.201-1.188-0.17
	c-1.982-2.633-0.669-8.654,0.375-12.238h-0.875c-0.746,2.465-1.821,6.752-2.296,12.207c-0.571,6.543-1.265,9.545-4.382,10.789
	c1.312-0.066,2.606-0.197,3.89-0.363C56.671,94.818,59.059,93.406,60.821,92.377z M67.152,76.996h-1.471
	c-1.028,3.125-2.379,8.268-1.526,11.734c0.784,3.188-0.944,4.201-2.472,5.094c-1.615,0.943-3.28,1.92-3.558,5.561
	c0.802-0.133,1.597-0.283,2.385-0.451c0.198-0.955,0.577-1.826,1.186-2.555c1.677-2,3.986-2.438,6.337-1.199
	c0.471,0.248,0.935,0.568,1.385,0.941c0.656-0.279,1.302-0.576,1.943-0.883c-0.652-0.844-1.376-1.691-2.171-2.541
	C64.139,87.299,65.454,80.98,67.152,76.996z M63.002,97.453c-0.257,0.307-0.449,0.66-0.601,1.041
	c1.76-0.451,3.478-1.004,5.156-1.637c-0.107-0.064-0.213-0.135-0.32-0.191C65.592,95.799,64.167,96.064,63.002,97.453z
	 M87.739,82.715c0.624-0.725,1.229-1.465,1.811-2.223c0.145-1.115,0.335-2.268,0.622-3.496h-1.89
	C88.313,78.467,88.229,80.535,87.739,82.715z M55.221,89.059c0.461-5.303,1.453-9.471,2.212-12.062h-2.236
	c-0.389,3.162-1.807,8.824-6.969,11.672c-3.757,2.072-5.067,5.512-4.417,7.842c0.472,1.691,1.922,2.623,3.979,2.561
	C53.687,98.889,54.451,97.859,55.221,89.059z M85.467,76.996c0.09,0.676,0.148,1.41,0.148,2.186c0,3.523-1.199,7.836-6.145,10.678
	c-3.08,1.768-5.309,1.08-6.634,0.189c-2.513-1.686-3.924-5.699-3.358-9.547c0.198-1.344,0.628-2.52,1.235-3.506h-1.75
	c-1.665,3.49-3.294,9.467,1.471,14.559c0.915,0.979,1.719,1.949,2.455,2.914c4.434-2.303,8.479-5.248,12.014-8.721
	c1.5-3.07,1.713-6.617,1.671-8.752H85.467z M37.837,76.996h-2.938c-1.185,0.514-2.778,0.924-4.928,0.994
	c-5.745,0.195-9.643,0.977-9.681,0.982c-0.459,0.094-0.907-0.199-1.002-0.654c-0.091-0.459,0.201-0.898,0.661-0.992
	c0.066-0.012,0.776-0.154,1.99-0.33h-4.148c-0.496,3.148-2.073,5.52-4.468,6.924c0.246,0.268,0.5,0.529,0.752,0.793
	c0.048-0.033,0.094-0.064,0.141-0.096c3.677-2.49,7.842-5.312,13.759-5.312C32.898,79.305,35.954,78.215,37.837,76.996z
	 M91.915,76.996c-0.017,0.07-0.026,0.133-0.043,0.201c0.043-0.066,0.085-0.133,0.128-0.201H91.915z M42.176,96.957
	c-0.827-2.965,0.705-7.266,5.228-9.76c4.352-2.4,5.676-7.324,6.074-10.201h-1.068c-0.778,5.125-3.924,7.543-6.741,9.705
	c-3.552,2.727-6.622,5.072-5.85,12.123c0.008,0.066,0.023,0.127,0.031,0.193c1.377,0.285,2.777,0.502,4.192,0.672
	C43.152,99.039,42.5,98.119,42.176,96.957z M44.629,85.373c2.734-2.1,5.334-4.104,6.062-8.377h-2.197
	c-0.837,2.934-3.521,7.539-12.019,10.143c-4.962,1.52-9.308,3.5-12.487,5.578c0.382,0.234,0.772,0.455,1.161,0.68
	c1.441-0.471,3.013-0.594,4.431-0.102c1.191,0.412,2.65,1.402,3.311,3.738c1.694,0.621,3.436,1.143,5.211,1.578
	C37.398,90.947,41.067,88.105,44.629,85.373z M16.073,76.996h-2.829c0.17,0.588,0.064,1.229-0.331,1.828
	c-0.451,0.684-1.3,1.318-2.413,1.734c0.545,0.709,1.108,1.4,1.689,2.076C14.878,81.182,15.776,78.584,16.073,76.996z M29.02,94.881
	c-0.476-0.164-0.994-0.227-1.526-0.213c1.039,0.527,2.092,1.031,3.17,1.486C30.254,95.547,29.706,95.119,29.02,94.881z
	 M11.494,77.904c0.214-0.324,0.123-0.473,0.09-0.529c-0.072-0.119-0.227-0.252-0.481-0.379H7.997
	c0.464,0.725,0.944,1.438,1.444,2.135C10.466,78.842,11.2,78.35,11.494,77.904z M73.969,85.414c0.198,0.234,0.802,0.947,2.566,0.156
	c3.29-1.477,4.438-5.219,3.447-7.783c-0.113-0.293-0.253-0.553-0.408-0.791h-2.45c1.371,0.871,1.794,2.023,1.91,2.727
	c0.23,1.371-0.348,2.857-1.436,3.686c-0.371,0.281-0.904,0.215-1.189-0.154c-0.286-0.367-0.216-0.895,0.155-1.178
	c0.598-0.455,0.922-1.312,0.796-2.082c-0.152-0.918-0.888-1.627-2.126-2.047c-0.303-0.102-0.63,0.094-0.971,0.588
	C73.113,80.195,72.75,83.973,73.969,85.414z M46.72,76.996h-2.009c-1.448,2.387-4.518,5.658-10.718,6.578
	c-4.407,0.652-10.048,3.068-14.3,6.176c0.891,0.684,1.802,1.34,2.738,1.965c3.814-2.613,8.967-4.779,13.543-6.182
	C43.311,83.285,45.848,79.518,46.72,76.996z M73.788,88.658c1.344,0.9,2.969,0.816,4.831-0.254
	c5.387-3.094,5.675-8.146,5.175-11.408h-2.31c0.027,0.064,0.058,0.127,0.082,0.189c1.263,3.268-0.036,7.99-4.333,9.916
	c-2.556,1.146-3.957,0.109-4.565-0.609c-1.737-2.057-1.337-6.695,0.197-8.908c0.156-0.227,0.325-0.416,0.501-0.588h-0.539
	c-0.854,0.902-1.439,2.186-1.67,3.75C70.689,83.93,71.818,87.336,73.788,88.658z M42.67,76.996h-2.165
	c-1.87,1.875-5.53,3.99-12.53,3.99c-5.336,0-9.244,2.609-12.69,4.943c0.986,0.961,2.006,1.887,3.068,2.762
	c4.552-3.418,10.652-6.078,15.39-6.781C38.553,81.195,41.225,78.932,42.67,76.996z"/>
<g>
	<path fill="#A34A1B" d="M7.927,76.998h84.146c1.231-1.914,2.337-3.918,3.302-6H4.625C5.59,73.08,6.695,75.084,7.927,76.998z"/>
</g>
<path fill="#F3F3F3" d="M85,67v1c0,1.656-1.343,3-3,3H18c-1.657,0-3-1.344-3-3v-1H85z"/>
<path fill="#D5D5D5" d="M45.5,66h9c0.828,0,1.5,0.672,1.5,1.5S55.328,69,54.5,69h-9c-0.828,0-1.5-0.672-1.5-1.5S44.672,66,45.5,66z"
	/>
<path fill="#36434F" d="M24,28h52c1.104,0,2,0.895,2,2v37H22V30C22,28.895,22.896,28,24,28z"/>
<path fill="#465765" d="M25,31h50v33H25V31z"/>
<path fill="#7E8A94" d="M38,60h24c1.657,0,3,1.342,3,3v1l-30.11-0.01L35,63C35,61.342,36.343,60,38,60z"/>
<path fill="#E4E7E7" d="M41,58c1.104,0,2,0.895,2,2c0,1.104-0.896,2-2,2s-2-0.896-2-2C39,58.895,39.896,58,41,58z"/>
<path fill="#EFC75E" d="M47,58c1.104,0,2,0.895,2,2c0,1.104-0.896,2-2,2s-2-0.896-2-2C45,58.895,45.896,58,47,58z"/>
<path fill="#E4E7E7" d="M53,58c1.104,0,2,0.895,2,2c0,1.104-0.896,2-2,2s-2-0.896-2-2C51,58.895,51.896,58,53,58z"/>
<path fill="#E4E7E7" d="M59,58c1.104,0,2,0.895,2,2c0,1.104-0.896,2-2,2s-2-0.896-2-2C57,58.895,57.896,58,59,58z"/>
<g>
	<path fill="#88411A" d="M67.83,80h1.747c0.224-1.133,0.606-2.143,1.135-3h-1.749C68.55,77.863,68.141,78.881,67.83,80z"/>
	<path fill="#88411A" d="M75.234,77.947c-0.303-0.102-0.63,0.094-0.971,0.588c-0.27,0.389-0.491,0.9-0.664,1.465h3.761
		c0-0.002,0-0.004,0-0.006C77.208,79.076,76.473,78.367,75.234,77.947z"/>
	<path fill="#88411A" d="M71.316,80h0.529c0.229-0.928,0.575-1.775,1.02-2.416c0.155-0.225,0.323-0.414,0.498-0.584h-0.538
		C72.114,77.752,71.604,78.777,71.316,80z"/>
	<path fill="#88411A" d="M81.566,77.186c0.333,0.861,0.482,1.826,0.451,2.814h1.916c0.069-1.082-0.003-2.109-0.14-3h-2.309
		C81.513,77.062,81.542,77.123,81.566,77.186z"/>
	<path fill="#88411A" d="M79.034,79.723c0.016,0.092,0.019,0.184,0.026,0.277h1.25c0.036-0.777-0.066-1.537-0.328-2.213
		c-0.113-0.291-0.252-0.551-0.406-0.787h-2.448C78.496,77.871,78.918,79.02,79.034,79.723z"/>
	<path fill="#88411A" d="M9.441,79.131c1.024-0.289,1.759-0.781,2.053-1.227c0.214-0.324,0.123-0.473,0.09-0.529
		c-0.072-0.117-0.226-0.25-0.477-0.375H7.999C8.462,77.723,8.942,78.434,9.441,79.131z"/>
	<path fill="#88411A" d="M42.667,77h-2.165c-1.066,1.068-2.718,2.211-5.233,3h4.038C40.835,79.084,41.92,78,42.667,77z"/>
	<path fill="#88411A" d="M16.073,77h-2.828c0.168,0.586,0.063,1.227-0.332,1.824C12.631,79.25,12.179,79.652,11.62,80h3.32
		C15.59,78.928,15.917,77.828,16.073,77z"/>
	<path fill="#88411A" d="M37.832,77h-2.941c-1.185,0.512-2.774,0.92-4.92,0.99c-5.745,0.195-9.643,0.977-9.681,0.982
		c-0.459,0.094-0.907-0.199-1.002-0.654c-0.091-0.459,0.201-0.898,0.661-0.992c0.066-0.012,0.77-0.152,1.971-0.326h-4.129
		c-0.174,1.1-0.486,2.098-0.913,3h6.16c1.509-0.432,3.141-0.695,4.937-0.695C32.895,79.305,35.948,78.217,37.832,77z"/>
	<path fill="#88411A" d="M61.062,80h1.99c0.264-1.086,0.557-2.109,0.84-3h-2.039C61.583,77.902,61.304,78.932,61.062,80z"/>
	<path fill="#88411A" d="M86.446,80c0.119-1.137,0.145-2.176,0.128-3h-1.107c0.09,0.674,0.148,1.406,0.148,2.182
		c0,0.268-0.01,0.541-0.024,0.818H86.446z"/>
	<path fill="#88411A" d="M90.171,77h-1.889c0.018,0.834-0.013,1.871-0.122,3h1.464C89.76,79.037,89.926,78.049,90.171,77z"/>
	<path fill="#88411A" d="M42.183,80h2.855c0.854-1.074,1.373-2.115,1.681-3h-2.01C44.145,77.93,43.329,78.992,42.183,80z"/>
	<path fill="#88411A" d="M91.914,77c-0.016,0.068-0.025,0.129-0.042,0.197c0.042-0.066,0.084-0.131,0.126-0.197H91.914z"/>
	<path fill="#88411A" d="M47.124,80h2.593c0.436-0.869,0.777-1.848,0.974-3h-2.197C48.241,77.881,47.817,78.916,47.124,80z"/>
	<path fill="#88411A" d="M54.6,80h2.051c0.268-1.148,0.537-2.164,0.781-3h-2.235C55.091,77.852,54.907,78.889,54.6,80z"/>
	<path fill="#88411A" d="M58.399,80h0.915c0.236-1.09,0.509-2.119,0.766-3h-0.875C58.961,77.807,58.682,78.826,58.399,80z"/>
	<path fill="#88411A" d="M51.577,80h1.237c0.339-1.102,0.544-2.143,0.663-3h-1.068C52.237,78.123,51.948,79.109,51.577,80z"/>
	<path fill="#88411A" d="M64.807,80h1.332c0.275-1.092,0.632-2.107,1.013-3h-1.471C65.395,77.867,65.088,78.898,64.807,80z"/>
</g>
<g>
	<path fill="#AC5C32" d="M37.215,71h-3.565c-1.415,0.781-3.09,1.504-5.099,2.115c-3.619,1.098-6.915,2.438-9.674,3.881h12.466
		c1.281-2.498,3.365-4.086,5.411-5.641C36.909,71.238,37.062,71.117,37.215,71z"/>
	<path fill="#AC5C32" d="M47.41,75.031c0.126-1.434,0.292-2.775,0.481-4.031h-3.444c-1,1.396-2.316,2.68-4.072,3.639
		c-1.227,0.67-2.189,1.484-2.914,2.357h9.757C47.283,76.383,47.348,75.74,47.41,75.031z"/>
	<path fill="#AC5C32" d="M54.741,75.1c-0.309-1.244-0.357-2.654-0.264-4.1h-1.892c-0.019,1.348,0.171,2.498,0.705,3.201
		c0.281,0.371,0.204,0.896-0.174,1.174c-0.378,0.275-0.912,0.199-1.194-0.172c-0.769-1.012-1.041-2.523-1.031-4.203h-1.272
		c-0.201,1.299-0.379,2.688-0.51,4.174c-0.057,0.645-0.115,1.244-0.177,1.822h5.77C54.932,76.559,54.963,75.996,54.741,75.1z"/>
	<path fill="#AC5C32" d="M28.047,71.514c0.536-0.162,1.04-0.336,1.526-0.514h-8.948c-3.775,1.379-7.68,3.531-10.591,5.996h5.442
		C19.179,74.697,23.852,72.787,28.047,71.514z"/>
	<path fill="#AC5C32" d="M4.83,71.479C5.072,71.32,5.312,71.166,5.561,71H4.612C4.686,71.158,4.754,71.32,4.83,71.479z"/>
	<path fill="#AC5C32" d="M39.545,73.174c1.085-0.594,1.981-1.34,2.725-2.174h-2.353c-0.699,0.6-1.418,1.146-2.118,1.68
		c-1.749,1.328-3.379,2.572-4.5,4.316h2.086C36.281,75.561,37.648,74.209,39.545,73.174z"/>
	<path fill="#AC5C32" d="M16.402,71h-7.8c-0.505,0.328-0.999,0.66-1.483,0.984c-0.512,0.344-1.018,0.674-1.524,1
		c0.679,1.301,1.414,2.566,2.203,3.797C10.104,74.578,13.176,72.566,16.402,71z"/>
	<path fill="#AC5C32" d="M81.706,71h-2.263c-0.557,1.496-1.347,2.965-2.475,4.248c-0.437,0.498-0.797,1.1-1.114,1.748h6.862
		C82.156,75.221,81.782,73.242,81.706,71z"/>
	<path fill="#AC5C32" d="M93.615,74.393c0.482-0.852,0.931-1.727,1.362-2.611c-0.026-0.262-0.038-0.523-0.038-0.781h-2.104
		C92.902,72.035,93.147,73.18,93.615,74.393z"/>
	<path fill="#AC5C32" d="M89.265,76.996h2.787c0.168-0.26,0.314-0.533,0.478-0.795c-0.911-1.865-1.337-3.625-1.42-5.201h-3.58
		C87.633,72.895,88.266,74.98,89.265,76.996z"/>
	<path fill="#AC5C32" d="M60.129,76.996c-1.373-1.973-2.015-4.018-2.186-5.996h-1.755c-0.095,1.322-0.062,2.6,0.211,3.699
		c0.232,0.939,0.241,1.684,0.104,2.297H60.129z"/>
	<path fill="#AC5C32" d="M85.797,71h-2.402c0.078,2.262,0.482,4.238,1.09,5.996h2.852C86.429,74.988,85.877,72.932,85.797,71z"/>
	<path fill="#AC5C32" d="M74.002,76.996c0.436-1.086,0.985-2.057,1.675-2.842c0.834-0.951,1.457-2.033,1.929-3.154h-0.972
		c-0.936,1.779-2.446,3.473-4.826,4.826c-3.1,1.764-5.341,1.076-6.675,0.189c-1.52-1.012-2.628-2.867-3.155-5.016h-2.351
		c0.215,1.988,0.983,4.047,2.643,5.996H74.002z"/>
	<path fill="#AC5C32" d="M64.963,72.471c-0.343-0.402-0.601-0.908-0.785-1.471h-0.434c0.455,1.572,1.27,2.912,2.346,3.629
		c1.353,0.898,2.987,0.814,4.861-0.252c1.705-0.973,2.901-2.137,3.726-3.377h-2.284c-0.734,0.838-1.672,1.559-2.836,2.078
		C66.985,74.221,65.575,73.188,64.963,72.471z"/>
	<path fill="#AC5C32" d="M68.854,71.551c0.351-0.156,0.663-0.35,0.965-0.551h-3.785c0.076,0.135,0.145,0.283,0.239,0.395
		C66.472,71.629,67.078,72.34,68.854,71.551z"/>
</g>
</svg>
