<?xml version="1.0" encoding="utf-8"?>
<!-- Generator: Adobe Illustrator 16.2.1, SVG Export Plug-In . SVG Version: 6.00 Build 0)  -->
<!DOCTYPE svg PUBLIC "-//W3C//DTD SVG 1.1//EN" "http://www.w3.org/Graphics/SVG/1.1/DTD/svg11.dtd">
<svg version="1.1" id="Слой_1" xmlns="http://www.w3.org/2000/svg" xmlns:xlink="http://www.w3.org/1999/xlink" x="0px" y="0px"
	 width="100px" height="100px" viewBox="0 0 100 100" enable-background="new 0 0 100 100" xml:space="preserve">
<path fill="#324D5B" d="M50,0C22.386,0,0,22.386,0,50s22.386,50,50,50s50-22.387,50-50S77.614,0,50,0z"/>
<path fill="#2B424D" d="M19,82.998v-56L0.188,45.811C0.073,47.193,0,48.587,0,50c0,12.649,4.707,24.192,12.452,32.999H19z"/>
<path fill="#DA9C44" d="M89,81.272V57L49.975,38L11,57v24.272C20.164,92.687,34.224,100,50,100C65.775,100,79.836,92.687,89,81.272z
	"/>
<path fill="#F3F3F3" d="M19,27h63c1.104,0,2,0.895,2,2v46c0,1.104-0.896,2-2,2H19c-1.104,0-2-0.896-2-2V29
	C17,27.895,17.896,27,19,27z"/>
<g>
	<path fill="#26A6D1" d="M38,32h7l4-5h-7L38,32z M68,27l-4,5h7l4-5H68z M17,29v3h3l4-5h-5C17.896,27,17,27.895,17,29z"/>
</g>
<g>
	<path fill="#E2574C" d="M51,32h7l4-5h-7L51,32z M25,32h7l4-5h-7L25,32z M82,27h-1l-4,5h7v-3C84,27.895,83.104,27,82,27z"/>
</g>
<g>
	<path fill="#DFE1E2" d="M73.5,47h-17c-0.828,0-1.5,0.671-1.5,1.5s0.672,1.5,1.5,1.5h17c0.828,0,1.5-0.671,1.5-1.5
		S74.328,47,73.5,47z M70.5,53h-14c-0.828,0-1.5,0.672-1.5,1.499C55,55.328,55.672,56,56.5,56h14c0.828,0,1.5-0.672,1.5-1.501
		C72,53.672,71.328,53,70.5,53z M39.017,48.96l0.682,3.585L34,43.999l-8,12c0,1.105,5.148,2,11.5,2s11.5-0.895,11.5-2l-7-10
		L39.017,48.96z M40,43.999c1.104,0,2-0.896,2-2s-0.896-2-2-2s-2,0.896-2,2S38.896,43.999,40,43.999z M56.5,44h17
		c0.828,0,1.5-0.671,1.5-1.5S74.328,41,73.5,41h-17c-0.828,0-1.5,0.671-1.5,1.5S55.672,44,56.5,44z"/>
</g>
<path fill="#F4B459" d="M89,81.272V57L49.975,75.999L11,57v24.272C20.164,92.687,34.224,100,50,100
	C65.775,100,79.836,92.687,89,81.272z"/>
<path fill="#F6C37A" d="M89,57L20.591,90.427c8.25,6.012,18.403,9.569,29.392,9.573h0.034C65.786,99.994,79.84,92.682,89,81.272V57z
	"/>
</svg>
