<?xml version="1.0" encoding="utf-8"?>
<!-- Generator: Adobe Illustrator 16.2.1, SVG Export Plug-In . SVG Version: 6.00 Build 0)  -->
<!DOCTYPE svg PUBLIC "-//W3C//DTD SVG 1.1//EN" "http://www.w3.org/Graphics/SVG/1.1/DTD/svg11.dtd">
<svg version="1.1" id="Слой_1" xmlns="http://www.w3.org/2000/svg" xmlns:xlink="http://www.w3.org/1999/xlink" x="0px" y="0px"
	 width="100px" height="100px" viewBox="0 0 100 100" enable-background="new 0 0 100 100" xml:space="preserve">
<path fill="#3E4F71" d="M50,0C22.385,0,0,22.385,0,50c0,27.614,22.386,50,50,50c27.614,0,50-22.387,50-50C100,22.385,77.613,0,50,0z
	"/>
<path fill="#EFEFEF" d="M47.985,68.99c-1.021,0-1.746-0.787-1.995-0.941c-0.797-0.49-0.603-0.627-2.045-1.057l-4.038,0.01
	c-0.503,0-0.911-0.404-0.911-0.902V46.882c0-0.499,0.408-0.902,0.911-0.902h5.342c0.126-0.068,0.518-0.402,1.213-1.187
	c1.227-1.382,2.312-3.262,3.362-4.927c0.849-1.346,1.65-2.619,2.496-3.667c1.157-1.439,1.883-1.966,2.584-2.477
	c0.721-0.522,0.574-0.641,2.009-2.475c2.3-2.938,2.613-4.807,2.917-6.615c0.054-0.32,0.109-0.651,0.175-0.981
	c0.259-1.307,1.405-2.659,2.876-2.658c0.53-0.001,1.047,0.174,1.537,0.518c1.879,1.319,2.866,5.158,2.494,7.708
	c-0.383,2.619-1.578,6.005-2.681,7.23c-0.958,1.066-1.41,2.122-1.212,3.746c0.094,0.773,1.283,0.804,1.334,0.806l7.439,0.028
	c2.15,0.018,6.212,0.69,6.213,4.843c0,1.894-0.77,3.071-1.666,3.757c0.852,0.758,1.516,1.742,1.278,3.609
	c-0.23,1.812-1.128,2.894-2.173,3.448c0.577,0.771,0.967,1.886,0.712,3.397c-0.245,1.455-1.134,2.469-2.048,2.961
	c0.431,0.658,0.699,1.666,0.473,2.869c-0.533,2.822-2.977,2.985-4.02,3.056c-0.145,0.009-0.354,0.021-0.323,0.021H47.985z"/>
<g>
	<g>
		<path fill="#DCDCDC" d="M76.34,49.629c0.896-0.686,1.666-1.863,1.666-3.757c-0.001-4.153-4.062-4.826-6.213-4.843L64.354,41
			c-0.051-0.002-1.24-0.032-1.334-0.806c-0.198-1.624,0.254-2.68,1.212-3.746c1.103-1.225,2.298-4.611,2.681-7.23
			c0.372-2.55-0.615-6.389-2.494-7.708c-0.49-0.344-1.007-0.519-1.537-0.518c-0.553,0-1.061,0.191-1.492,0.5
			c0.01,0.006,0.02,0.011,0.029,0.018c1.879,1.319,2.866,5.158,2.494,7.708c-0.383,2.619-1.578,6.005-2.681,7.23
			c-0.958,1.066-1.41,2.122-1.212,3.746c0.094,0.773,1.283,0.804,1.334,0.806l7.439,0.028c2.15,0.018,6.212,0.69,6.213,4.843
			c0,1.894-0.77,3.071-1.666,3.757c0.852,0.758,1.516,1.742,1.278,3.609c-0.23,1.812-1.128,2.894-2.173,3.448
			c0.577,0.771,0.967,1.886,0.712,3.397c-0.245,1.455-1.134,2.469-2.048,2.961c0.431,0.658,0.699,1.666,0.473,2.869
			c-0.533,2.822-2.977,2.985-4.02,3.056c-0.145,0.009-0.354,0.021-0.323,0.021h3c-0.03,0,0.179-0.012,0.323-0.021
			c1.043-0.07,3.486-0.233,4.02-3.056c0.227-1.203-0.042-2.211-0.473-2.869c0.914-0.492,1.803-1.506,2.048-2.961
			c0.255-1.512-0.135-2.627-0.712-3.397c1.045-0.555,1.942-1.636,2.173-3.448C77.855,51.371,77.191,50.387,76.34,49.629z
			 M39.875,66.995c0.011,0.001,0.021,0.007,0.032,0.007l1.059-0.003c-0.008-0.003-0.013-0.004-0.021-0.007L39.875,66.995z"/>
	</g>
	<g>
		<path fill="#DCDCDC" d="M76.34,49.629c0.896-0.686,1.666-1.863,1.666-3.757c-0.001-4.153-4.062-4.826-6.213-4.843L64.354,41
			c-0.051-0.002-1.24-0.032-1.334-0.806c-0.198-1.624,0.254-2.68,1.212-3.746c1.103-1.225,2.298-4.611,2.681-7.23
			c0.372-2.55-0.615-6.389-2.494-7.708c-0.49-0.344-1.007-0.519-1.537-0.518c-0.553,0-1.061,0.191-1.492,0.5
			c0.01,0.006,0.02,0.011,0.029,0.018c1.879,1.319,2.866,5.158,2.494,7.708c-0.383,2.619-1.578,6.005-2.681,7.23
			c-0.958,1.066-1.41,2.122-1.212,3.746c0.094,0.773,1.283,0.804,1.334,0.806l7.439,0.028c2.15,0.018,6.212,0.69,6.213,4.843
			c0,1.894-0.77,3.071-1.666,3.757c0.852,0.758,1.516,1.742,1.278,3.609c-0.23,1.812-1.128,2.894-2.173,3.448
			c0.577,0.771,0.967,1.886,0.712,3.397c-0.245,1.455-1.134,2.469-2.048,2.961c0.431,0.658,0.699,1.666,0.473,2.869
			c-0.533,2.822-2.977,2.985-4.02,3.056c-0.145,0.009-0.354,0.021-0.323,0.021h3c-0.03,0,0.179-0.012,0.323-0.021
			c1.043-0.07,3.486-0.233,4.02-3.056c0.227-1.203-0.042-2.211-0.473-2.869c0.914-0.492,1.803-1.506,2.048-2.961
			c0.255-1.512-0.135-2.627-0.712-3.397c1.045-0.555,1.942-1.636,2.173-3.448C77.855,51.371,77.191,50.387,76.34,49.629z
			 M39.875,66.995c0.011,0.001,0.021,0.007,0.032,0.007l1.059-0.003c-0.008-0.003-0.013-0.004-0.021-0.007L39.875,66.995z"/>
	</g>
</g>
<path fill="#D7D7D7" d="M38.998,46.008h3.018v21h-3.018V46.008z"/>
<path fill="#5879BD" d="M37.68,70.001H26.613c-1.274,0-2.312-1.04-2.312-2.317l-3.304-21.38c0-1.279,1.037-2.318,2.311-2.318H37.68
	c1.275,0,2.312,1.039,2.312,2.318v21.38C39.991,68.961,38.954,70.001,37.68,70.001z"/>
<path fill="#FFFFFF" d="M33.993,61.006c1.105,0,2.001,0.895,2.001,1.999c0,1.103-0.896,1.997-2.001,1.997s-2.002-0.895-2.002-1.997
	C31.991,61.9,32.887,61.006,33.993,61.006z"/>
<path fill="#5170AE" d="M39.68,68.001H28.613c-1.274,0-2.312-1.04-2.312-2.317l-3.304-21.38c0-0.099,0.017-0.193,0.029-0.289
	c-1.141,0.141-2.029,1.107-2.029,2.289l3.304,21.38c0,1.277,1.037,2.317,2.312,2.317H37.68c1.176,0,2.139-0.889,2.282-2.028
	C39.869,67.984,39.776,68.001,39.68,68.001z"/>
<path fill="#48639A" d="M33.993,65.002c-1.105,0-2.002-0.895-2.002-1.997c0-0.292,0.066-0.568,0.179-0.818
	c-0.694,0.313-1.179,1.008-1.179,1.818c0,1.103,0.896,1.997,2.002,1.997c0.813,0,1.51-0.486,1.823-1.181
	C34.564,64.935,34.287,65.002,33.993,65.002z"/>
</svg>
