<?xml version="1.0" encoding="utf-8"?>
<!-- Generator: Adobe Illustrator 16.2.1, SVG Export Plug-In . SVG Version: 6.00 Build 0)  -->
<!DOCTYPE svg PUBLIC "-//W3C//DTD SVG 1.1//EN" "http://www.w3.org/Graphics/SVG/1.1/DTD/svg11.dtd">
<svg version="1.1" id="Слой_1" xmlns="http://www.w3.org/2000/svg" xmlns:xlink="http://www.w3.org/1999/xlink" x="0px" y="0px"
	 width="100px" height="100px" viewBox="0 0 100 100" enable-background="new 0 0 100 100" xml:space="preserve">
<path fill="#4681A0" d="M93.302,75.008C79.494,98.923,48.915,107.116,25,93.31C1.086,79.502-7.108,48.923,6.699,25.008
	C20.506,1.094,51.086-7.1,75,6.707C98.915,20.514,107.108,51.094,93.302,75.008z"/>
<path fill="#EFC75E" d="M52.982,99.915V62.008l-6.008,0.075l0.007,37.832C48.987,100.035,50.99,100.036,52.982,99.915z"/>
<path fill="#EFC75E" d="M49.982,15.008c4.123,0,17,21.432,17,38s-7.611,22-17,22s-17-5.432-17-22S46.514,15.008,49.982,15.008z"/>
<path fill="#EA9A57" d="M49.982,35.008c2.425,0,10,15.011,10,24.4s-4.478,15.6-10,15.6s-10-6.211-10-15.6
	S47.941,35.008,49.982,35.008z"/>
<path fill="#41545F" d="M46.982,72.008h6v12c0,0-1.512-2-3.018-2c-1.494,0-2.982,2-2.982,2V72.008z"/>
<path fill="#2B414D" d="M50.094,56.016c3.315-0.058,5.977,1.434,5.888,6.675s-2.896,12.248-6.21,12.305
	c-3.315,0.058-5.885-6.856-5.795-12.097C44.065,57.656,46.779,56.072,50.094,56.016z"/>
<path fill="#273A45" d="M50.771,72.995c-3.315,0.058-5.885-6.856-5.795-12.097c0.019-1.133,0.167-2.086,0.411-2.898
	c-0.848,1.071-1.373,2.645-1.411,4.898c-0.09,5.24,2.479,12.154,5.795,12.097c1.81-0.031,3.464-2.138,4.61-4.894
	C53.356,71.812,52.107,72.973,50.771,72.995z"/>
</svg>
