<?xml version="1.0" encoding="utf-8"?>
<!-- Generator: Adobe Illustrator 16.2.1, SVG Export Plug-In . SVG Version: 6.00 Build 0)  -->
<!DOCTYPE svg PUBLIC "-//W3C//DTD SVG 1.1//EN" "http://www.w3.org/Graphics/SVG/1.1/DTD/svg11.dtd">
<svg version="1.1" id="Слой_1" xmlns="http://www.w3.org/2000/svg" xmlns:xlink="http://www.w3.org/1999/xlink" x="0px" y="0px"
	 width="100px" height="100px" viewBox="0 0 100 100" enable-background="new 0 0 100 100" xml:space="preserve">
<path fill="#3DB39E" d="M50.147,0c-27.614,0-50,22.386-50,50c0,27.613,22.386,50,50,50s50-22.387,50-50
	C100.147,22.385,77.762,0,50.147,0z"/>
<g>
	<path fill="#BF392B" d="M93.141,24.477c-4.147-6.972-9.938-12.85-16.845-17.096c-13.932,13.932-37.795,37.795-38.251,38.25
		c-1.357,1.357-5.701,21.295-4.763,22.233c0.961,0.962,20.415-3.943,21.733-5.263L93.141,24.477z"/>
</g>
<path fill="#FFCABA" d="M46.521,54.107c-0.996-0.996-1.124-5.367-2.128-6.37c-1.003-1.005-6.344-2.105-6.348-2.106h0
	c-1.303,1.303-5.356,19.724-4.848,22.022l0.295,0.296c2.282,0.488,20.257-4.081,21.523-5.348c0,0-1.146-5.389-2.127-6.369
	C51.907,55.25,47.519,55.104,46.521,54.107z"/>
<path fill="#E5B5A7" d="M33.171,67.506c0.007,0.057,0.016,0.102,0.026,0.146l0.296,0.297c2.286,0.487,20.256-4.081,21.522-5.348
	c0,0-1.102-5.344-2.105-6.349C36.191,65.763,33.58,67.268,33.171,67.506z"/>
<path fill="#FFDCD2" d="M33.164,67.435c0.305-0.523,1.981-3.438,11.229-19.697c-1.004-1.005-6.349-2.106-6.349-2.106
	C36.777,46.898,32.907,64.363,33.164,67.435z"/>
<path fill="#BF392B" d="M36.631,64.017c-0.687-0.688-1.866-1.202-2.961-1.285c-0.466,2.772-0.675,4.846-0.388,5.133
	c0.279,0.28,2.129,0.062,4.637-0.419C37.98,66.233,37.418,64.804,36.631,64.017z"/>
<path fill="#C9574B" d="M38.045,45.631c0,0,5.345,1.102,6.349,2.106c-0.015,0.024,36.883-36.852,36.883-36.852
	c-1.587-1.264-3.246-2.439-4.98-3.506C76.296,7.38,37.91,45.766,38.045,45.631z"/>
<g>
	<path fill="#AC3327" d="M89.701,19.431c0,0-36.815,36.835-36.791,36.822c1.004,1.005,2.105,6.349,2.105,6.349l38.125-38.125
		C92.097,22.721,90.945,21.039,89.701,19.431z"/>
</g>
</svg>
