<?xml version="1.0" encoding="utf-8"?>
<!-- Generator: Adobe Illustrator 16.2.1, SVG Export Plug-In . SVG Version: 6.00 Build 0)  -->
<!DOCTYPE svg PUBLIC "-//W3C//DTD SVG 1.1//EN" "http://www.w3.org/Graphics/SVG/1.1/DTD/svg11.dtd">
<svg version="1.1" id="Слой_1" xmlns="http://www.w3.org/2000/svg" xmlns:xlink="http://www.w3.org/1999/xlink" x="0px" y="0px"
	 width="100px" height="100px" viewBox="0 0 100 100" enable-background="new 0 0 100 100" xml:space="preserve">
<path fill="#55ACEE" d="M50,0C22.386,0,0,22.385,0,50c0,27.613,22.386,50,50,50s50-22.387,50-50C100,22.385,77.614,0,50,0z"/>
<g>
	<defs>
		<path id="SVGID_1_" d="M50,0C22.386,0,0,22.385,0,50c0,27.613,22.386,50,50,50s50-22.387,50-50C100,22.385,77.614,0,50,0z"/>
	</defs>
	<clipPath id="SVGID_2_">
		<use xlink:href="#SVGID_1_"  overflow="visible"/>
	</clipPath>
	<g clip-path="url(#SVGID_2_)">
		<path fill="#4C9AD6" d="M3,10.999h30c2.209,0,4,1.791,4,4v22c0,2.209-1.791,4-4,4c0,0-9.147,0-13.984,0
			c-0.56,0-2.493,0.262-3.023,0.792c-1.499,1.2-1.393,1.519-3.496,3.203c0.05-0.04-2.498,2.305-2.498-0.015
			c0.005-2.37-0.009-3.979-0.009-3.979H3c-2.209,0-4-1.791-4-4v-22C-1,12.79,0.791,10.999,3,10.999z"/>
		<path fill="#B8D9F2" d="M96,20.999H66c-2.209,0-4,1.791-4,4v22c0,2.209,1.791,4,4,4c0,0,9.147,0,13.984,0
			c0.56,0,2.492,0.262,3.022,0.792c1.499,1.2,1.394,1.519,3.497,3.203c-0.051-0.041,2.498,2.305,2.498-0.016
			c-0.006-2.37,0.008-3.979,0.008-3.979H96c2.209,0,4-1.791,4-4v-22C100,22.789,98.209,20.999,96,20.999z"/>
		<path fill="#FFFFFF" d="M28,29.999h44c2.209,0,4,1.79,4,4v34c0,2.209-1.791,3.999-4,3.999c0,0-18.147,0-22.984,0
			c-0.56,0-2.492,0.263-3.022,0.793c-1.499,1.2-4.394,3.519-6.497,5.203c0.051-0.04-2.498,2.305-2.498-0.016
			c0.006-2.369-0.008-5.98-0.008-5.98H28c-2.209,0-4-1.79-4-3.999v-34C24,31.789,25.791,29.999,28,29.999z"/>
		<path fill="#55ACEE" d="M65.004,42.598c-1.066,0.442-2.214,0.74-3.418,0.875c1.229-0.688,2.172-1.775,2.617-3.073
			c-1.15,0.637-2.424,1.099-3.779,1.349c-1.086-1.08-2.633-1.754-4.344-1.754c-3.287,0-5.951,2.486-5.951,5.553
			c0,0.436,0.053,0.859,0.154,1.266c-4.947-0.232-9.332-2.442-12.268-5.803c-0.512,0.821-0.806,1.774-0.806,2.793
			c0,1.926,1.051,3.626,2.647,4.622c-0.975-0.029-1.893-0.278-2.695-0.695c0,0.024,0,0.048,0,0.07c0,2.69,2.051,4.935,4.773,5.445
			c-0.499,0.127-1.025,0.196-1.568,0.196c-0.383,0-0.756-0.035-1.119-0.102c0.758,2.207,2.955,3.812,5.559,3.857
			c-2.037,1.489-4.603,2.378-7.391,2.378c-0.48,0-0.954-0.027-1.42-0.078c2.635,1.575,5.762,2.495,9.123,2.495
			c10.947,0,16.933-8.463,16.933-15.801c0-0.24-0.005-0.481-0.017-0.718C63.197,44.69,64.207,43.712,65.004,42.598z"/>
		<g>
			<path fill="#4C9AD6" d="M72,71.998c0,0-18.147,0-22.984,0c-0.56,0-2.492,0.263-3.022,0.793c-0.346,0.276-0.771,0.617-1.239,0.992
				c0.542-0.524,2.455-0.785,3.011-0.785c4.837,0,22.984,0,22.984,0c1.235,0,2.326-0.571,3.06-1.451
				C73.264,71.826,72.655,71.998,72,71.998z"/>
			<path fill="#4C9AD6" d="M36.998,77.979c0.006-2.369-0.008-5.98-0.008-5.98H28c-2.209,0-4-1.79-4-3.999v-34
				c0-0.974,0.362-1.854,0.94-2.548c-1.295,0.662-2.19,1.994-2.19,3.548v34c0,2.209,1.791,3.999,4,3.999h8.99
				c0,0,0.014,3.611,0.008,5.98c0,2.32,2.549-0.024,2.498,0.016c0.219-0.176,0.451-0.361,0.685-0.548
				C38.193,78.969,36.998,79.567,36.998,77.979z"/>
		</g>
		<g>
			<path fill="#448AC0" d="M24,40.999v-7c0-0.974,0.362-1.854,0.94-2.548c-1.295,0.662-2.19,1.994-2.19,3.548v6
				C23.163,40.999,23.579,40.999,24,40.999z"/>
		</g>
	</g>
</g>
</svg>
