<?xml version="1.0" encoding="utf-8"?>
<!-- Generator: Adobe Illustrator 16.2.1, SVG Export Plug-In . SVG Version: 6.00 Build 0)  -->
<!DOCTYPE svg PUBLIC "-//W3C//DTD SVG 1.1//EN" "http://www.w3.org/Graphics/SVG/1.1/DTD/svg11.dtd">
<svg version="1.1" id="Слой_1" xmlns="http://www.w3.org/2000/svg" xmlns:xlink="http://www.w3.org/1999/xlink" x="0px" y="0px"
	 width="100px" height="100px" viewBox="0 0 100 100" enable-background="new 0 0 100 100" xml:space="preserve">
<path fill="#91D8F0" d="M50.013,0c-27.614,0-50,22.386-50,50c0,27.614,22.386,50.001,50,50.001c27.614,0,50-22.387,50-50.001
	C100.014,22.385,77.627,0,50.013,0z"/>
<path fill="#E2574C" d="M35.013,97.707c3.207,1.008,6.551,1.701,10,2.043V0.249c-3.449,0.343-6.793,1.036-10,2.043V97.707z"/>
<path fill="#E4E7E7" d="M55.014,0.249c-1.645-0.163-3.312-0.25-5-0.25c-1.688,0-3.355,0.086-5,0.25V99.75
	c1.645,0.164,3.312,0.25,5,0.25c1.688,0,3.356-0.086,5-0.25V0.249z"/>
<g>
	<path fill="#324D5B" d="M55.014,0.256v99.487c3.447-0.343,6.795-1.028,10-2.036V2.292C61.809,1.285,58.461,0.6,55.014,0.256z"/>
</g>
<path fill="#F5F5F5" d="M77.014,49.998c0-7.501-3.061-14.285-8-19.179V24c0-1.133-0.93-2.001-2-2.001h-1c-0.553,0-1,0.448-1,1v4.55
	c-4.291-2.873-9.449-4.55-15-4.55c-5.551,0-10.709,1.677-15,4.55v-4.55c0-0.552-0.448-1-1-1h-1c-1.071,0-2,0.868-2,2.001v6.819
	c-4.939,4.894-8,11.678-8,19.179c0,7.502,3.061,14.287,8,19.18v6.821c0,1.179,0.921,1.999,2,1.999h1c0.552,0,1-0.447,1-1v-4.549
	c4.291,2.872,9.449,4.549,15,4.549c5.551,0,10.709-1.677,15-4.549v4.549c0,0.553,0.447,1,1,1h1c1.078,0,2-0.82,2-1.999v-6.821
	C73.953,64.285,77.014,57.5,77.014,49.998z"/>
<path fill="#CCD0D2" d="M50.013,27c12.704,0,23,10.297,23,23S62.717,73,50.013,73c-12.703,0-23-10.299-23-23.001
	S37.311,27,50.013,27z"/>
<path fill="#DE6E65" d="M54.309,44.275L38.322,60.264c-0.394,0.393-0.394,1.033,0,1.428c0.395,0.393,1.033,0.393,1.428,0
	l15.987-15.987c0.395-0.394,0.395-1.033,0-1.429C55.342,43.883,54.703,43.883,54.309,44.275z"/>
<path fill="#AEB2B4" d="M50.01,54.008c-2.212,0-4.004-1.791-4.004-4.003c0-0.851,0.269-1.636,0.722-2.284
	c-1.039,0.724-1.722,1.923-1.722,3.284c0,2.212,1.792,4.003,4.004,4.003c1.361,0,2.56-0.683,3.283-1.721
	C51.645,53.739,50.859,54.008,50.01,54.008z"/>
<path fill="#324D5B" d="M50.013,49h16c0.553,0,1,0.447,1,0.999s-0.447,1-1,1h-16c-0.553,0-1-0.448-1-1S49.46,49,50.013,49z"/>
<path fill="#324D5B" d="M43.199,40.538l8.247,8.247c0.73,0.73,0.73,1.916,0,2.646s-1.916,0.73-2.646,0l-8.247-8.248
	c-0.731-0.73-0.731-1.916,0-2.646C41.283,39.807,42.467,39.807,43.199,40.538z"/>
<path fill="#E4E7E7" d="M50.01,46c2.21,0,4.003,1.793,4.003,4.005s-1.793,4.003-4.003,4.003c-2.212,0-4.004-1.791-4.004-4.003
	S47.798,46,50.01,46z"/>
<path fill="#324D5B" d="M50.013,48c1.104,0,2,0.895,2,1.999c0,1.105-0.896,2.001-2,2.001c-1.104,0-2-0.896-2-2.001
	C48.013,48.895,48.909,48,50.013,48z"/>
<path fill="#D96860" d="M46.568,52.018l-1,1c0.347,0.592,0.836,1.081,1.427,1.428l1-1C47.404,53.099,46.915,52.609,46.568,52.018z"
	/>
<path fill="#B7BBBD" d="M50.013,27c-6.605,0-12.557,2.789-16.751,7.249C37.377,30.376,42.917,28,49.013,28c12.704,0,23,10.297,23,23
	c0,6.097-2.377,11.636-6.25,15.753c4.461-4.195,7.25-10.147,7.25-16.753C73.014,37.297,62.717,27,50.013,27z"/>
</svg>
