<?xml version="1.0" encoding="UTF-8" standalone="no"?>
<svg width="39px" height="24px" viewBox="0 0 39 24" version="1.1" xmlns="http://www.w3.org/2000/svg" xmlns:xlink="http://www.w3.org/1999/xlink" xmlns:sketch="http://www.bohemiancoding.com/sketch/ns">
    <!-- Generator: Sketch 3.0.4 (8054) - http://www.bohemiancoding.com/sketch -->
    <title>Group</title>
    <desc>Created with Sketch.</desc>
    <defs></defs>
    <g id="Page-1" stroke="none" stroke-width="1" fill="none" fill-rule="evenodd" sketch:type="MSPage">
        <g id="Group" sketch:type="MSLayerGroup" transform="translate(1.000000, 0.000000)">
            <path d="M37.995136,22.5852152 C37.995136,23.2869873 37.425744,23.8550886 36.724112,23.8550886 L1.135136,23.8550886 C0.433504,23.8550886 -0.13528,23.2869873 -0.13528,22.5852152 L-0.13528,1.30997468 C-0.13528,0.608202532 0.433504,0.0394936709 1.135136,0.0394936709 L36.724112,0.0394936709 C37.425744,0.0394936709 37.995136,0.608202532 37.995136,1.30997468 L37.995136,22.5852152" id="Fill-517" fill="#13457C" sketch:type="MSShapeGroup"></path>
            <path d="M23.50528,18.7837975 L23.858528,18.7746835 L24.207216,18.7494684 L24.548608,18.7057215 L24.888176,18.6455696 L25.21832,18.5696203 L25.5436,18.4772658 L25.861888,18.3688101 L26.173184,18.2466835 L26.477792,18.1084557 L26.77328,17.9583797 L27.059648,17.7922025 L27.33872,17.6147848 L27.606544,17.4236962 L27.86464,17.2204557 L28.11392,17.0059747 L28.351648,16.7778228 L28.580256,16.5402532 L28.794576,16.2908354 L28.998256,16.0329114 L29.189472,15.7652658 L29.367008,15.4863797 L29.532992,15.1998987 L29.682864,14.9049114 L29.821184,14.6008101 L29.943392,14.2891139 L30.05192,13.971038 L30.14464,13.6462785 L30.22064,13.3163544 L30.280528,12.9773165 L30.324608,12.6358481 L30.350144,12.2876962 L30.35896,11.9349873 L30.350144,11.5844051 L30.324608,11.2383797 L30.280528,10.8972152 L30.22064,10.5627342 L30.14464,10.2331139 L30.05192,9.91017722 L29.943392,9.59210127 L29.821184,9.28283544 L29.682864,8.98116456 L29.532992,8.68556962 L29.367008,8.40212658 L29.189472,8.12324051 L28.998256,7.85559494 L28.794576,7.59949367 L28.580256,7.35098734 L28.351648,7.11311392 L28.11392,6.88708861 L27.86464,6.67260759 L27.606544,6.46967089 L27.33872,6.27827848 L27.059648,6.10055696 L26.77328,5.93711392 L26.477792,5.78734177 L26.173184,5.64850633 L25.861888,5.52637975 L25.5436,5.41822785 L25.21832,5.32587342 L24.888176,5.24962025 L24.548608,5.19007595 L24.207216,5.14602532 L23.858528,5.12050633 L23.50528,5.11108861 L23.155072,5.12050633 L22.806384,5.14602532 L22.464992,5.19007595 L22.127856,5.24962025 L21.797712,5.32587342 L21.472432,5.41822785 L21.156576,5.52637975 L20.844672,5.64850633 L20.542496,5.78734177 L20.249744,5.93711392 L19.96368,6.10055696 L19.686432,6.27827848 L19.419216,6.46967089 L19.160208,6.67260759 L18.91336,6.88708861 L18.675936,7.11311392 L18.449456,7.35098734 L18.235136,7.59949367 L18.032064,7.85559494 L17.842672,8.12324051 L17.664528,8.40212658 L17.50128,8.68556962 L17.348672,8.98116456 L17.212784,9.28283544 L17.090576,9.59210127 L16.984176,9.91017722 L16.892064,10.2331139 L16.815456,10.5627342 L16.755568,10.8972152 L16.7124,11.2383797 L16.686864,11.5844051 L16.677136,11.9349873 L16.686864,12.2876962 L16.7124,12.6358481 L16.755568,12.9773165 L16.815456,13.3163544 L16.892064,13.6462785 L16.984176,13.971038 L17.090576,14.2891139 L17.212784,14.6008101 L17.348672,14.9049114 L17.50128,15.1998987 L17.664528,15.4863797 L17.842672,15.7652658 L18.032064,16.0329114 L18.235136,16.2908354 L18.449456,16.5402532 L18.675936,16.7778228 L18.91336,17.0059747 L19.160208,17.2204557 L19.419216,17.4236962 L19.686432,17.6147848 L19.96368,17.7922025 L20.249744,17.9583797 L20.542496,18.1084557 L20.844672,18.2466835 L21.156576,18.3688101 L21.472432,18.4772658 L21.797712,18.5696203 L22.127856,18.6455696 L22.464992,18.7057215 L22.806384,18.7494684 L23.155072,18.7746835 L23.50528,18.7837975" id="Fill-518" fill="#FBB231" sketch:type="MSShapeGroup"></path>
            <path d="M14.353968,18.7837975 L14.704176,18.7746835 L15.052864,18.7494684 L15.394864,18.7057215 L15.731392,18.6455696 L16.061536,18.5696203 L16.386208,18.4772658 L16.702672,18.3688101 L17.014576,18.2466835 L17.316752,18.1084557 L17.610112,17.9583797 L17.895568,17.7922025 L18.172816,17.6147848 L18.44064,17.4236962 L18.69904,17.2204557 L18.945888,17.0059747 L19.183616,16.7778228 L19.409792,16.5402532 L19.62472,16.2908354 L19.827184,16.0329114 L20.016576,15.7652658 L20.194112,15.4863797 L20.357968,15.1998987 L20.510576,14.9049114 L20.646464,14.6008101 L20.768672,14.2891139 L20.875072,13.971038 L20.967184,13.6462785 L21.043792,13.3163544 L21.103072,12.9773165 L21.147456,12.6358481 L21.172384,12.2876962 L21.181504,11.9349873 L21.172384,11.5844051 L21.147456,11.2383797 L21.103072,10.8972152 L21.043792,10.5627342 L20.967184,10.2331139 L20.875072,9.91017722 L20.768672,9.59210127 L20.646464,9.28283544 L20.510576,8.98116456 L20.357968,8.68556962 L20.194112,8.40212658 L20.016576,8.12324051 L19.827184,7.85559494 L19.62472,7.59949367 L19.409792,7.35098734 L19.183616,7.11311392 L18.945888,6.88708861 L18.69904,6.67260759 L18.44064,6.46967089 L18.172816,6.27827848 L17.895568,6.10055696 L17.610112,5.93711392 L17.316752,5.78734177 L17.014576,5.64850633 L16.702672,5.52637975 L16.386208,5.41822785 L16.061536,5.32587342 L15.731392,5.24962025 L15.394864,5.19007595 L15.052864,5.14602532 L14.704176,5.12050633 L14.353968,5.11108861 L14.00072,5.12050633 L13.652032,5.14602532 L13.31064,5.19007595 L12.971072,5.24962025 L12.641536,5.32587342 L12.316256,5.41822785 L11.99736,5.52637975 L11.686064,5.64850633 L11.381456,5.78734177 L11.086576,5.93711392 L10.800208,6.10055696 L10.520528,6.27827848 L10.253008,6.46967089 L9.994608,6.67260759 L9.745328,6.88708861 L9.5076,7.11311392 L9.278992,7.35098734 L9.064672,7.59949367 L8.8616,7.85559494 L8.67008,8.12324051 L8.492544,8.40212658 L8.326256,8.68556962 L8.176384,8.98116456 L8.037456,9.28283544 L7.915856,9.59210127 L7.807328,9.91017722 L7.714608,10.2331139 L7.638608,10.5627342 L7.57872,10.8972152 L7.53464,11.2383797 L7.509104,11.5844051 L7.500288,11.9349873 L7.509104,12.2876962 L7.53464,12.6358481 L7.57872,12.9773165 L7.638608,13.3163544 L7.714608,13.6462785 L7.807328,13.971038 L7.915856,14.2891139 L8.037456,14.6008101 L8.176384,14.9049114 L8.326256,15.1998987 L8.492544,15.4863797 L8.67008,15.7652658 L8.8616,16.0329114 L9.064672,16.2908354 L9.278992,16.5402532 L9.5076,16.7778228 L9.745328,17.0059747 L9.994608,17.2204557 L10.253008,17.4236962 L10.520528,17.6147848 L10.800208,17.7922025 L11.086576,17.9583797 L11.381456,18.1084557 L11.686064,18.2466835 L11.99736,18.3688101 L12.316256,18.4772658 L12.641536,18.5696203 L12.971072,18.6455696 L13.31064,18.7057215 L13.652032,18.7494684 L14.00072,18.7746835 L14.353968,18.7837975" id="Fill-519" fill="#EC1C2E" sketch:type="MSShapeGroup"></path>
            <path id="Fill-520" fill="#FBB231" sketch:type="MSShapeGroup" d="M18.12904,7.73346835 L21.763968,7.73346835 L21.763968,7.36192405 L18.442464,7.36192405 L18.12904,7.73346835"></path>
            <path id="Fill-521" fill="#FBB231" sketch:type="MSShapeGroup" d="M17.584576,8.55888608 L21.763968,8.55888608 L21.763968,8.18734177 L17.803456,8.18734177 L17.584576,8.55888608"></path>
            <path id="Fill-522" fill="#FBB231" sketch:type="MSShapeGroup" d="M17.177824,9.38217722 L21.763968,9.38217722 L21.763968,9.01063291 L17.339856,9.01063291 L17.177824,9.38217722"></path>
            <path id="Fill-523" fill="#FBB231" sketch:type="MSShapeGroup" d="M16.898752,10.2075949 L21.763968,10.2075949 L21.763968,9.83665823 L17.014576,9.83665823 L16.898752,10.2075949"></path>
            <path id="Fill-524" fill="#FBB231" sketch:type="MSShapeGroup" d="M17.060784,14.1973671 L21.775216,14.1973671 L21.775216,13.8258228 L16.94496,13.8258228 L17.060784,14.1973671"></path>
            <path id="Fill-525" fill="#FBB231" sketch:type="MSShapeGroup" d="M17.408864,15.0227848 L21.775216,15.0227848 L21.775216,14.6515443 L17.235888,14.6515443 L17.408864,15.0227848"></path>
            <path id="Fill-526" fill="#FBB231" sketch:type="MSShapeGroup" d="M17.898,15.8460759 L21.775216,15.8460759 L21.775216,15.4748354 L17.664528,15.4748354 L17.898,15.8460759"></path>
            <path id="Fill-527" fill="#FBB231" sketch:type="MSShapeGroup" d="M18.571968,16.6714937 L21.775216,16.6714937 L21.775216,16.2978228 L18.246384,16.2978228 L18.571968,16.6714937"></path>
            <path id="Fill-528" fill="#FBB231" sketch:type="MSShapeGroup" d="M16.735504,11.0308861 L21.763968,11.0308861 L21.763968,10.6596456 L16.80664,10.6596456 L16.735504,11.0308861"></path>
            <path id="Fill-529" fill="#FBB231" sketch:type="MSShapeGroup" d="M19.799824,13.3740759 L21.717152,13.3740759 L21.717152,13.0025316 L19.868528,13.0025316 L19.799824,13.3740759"></path>
            <path id="Fill-530" fill="#FBB231" sketch:type="MSShapeGroup" d="M19.951824,12.550481 L21.717152,12.550481 L21.717152,12.1771139 L20.021136,12.1771139 L19.951824,12.550481"></path>
            <path id="Fill-531" fill="#FBB231" sketch:type="MSShapeGroup" d="M16.608432,12.1771139 L17.106384,12.1771139 L17.106384,12.550481 L16.631536,12.550481 L16.608432,12.1771139"></path>
            <path d="M15.677888,11.7271899 L15.645968,11.7247595 L15.613136,11.7205063 L15.583648,11.7159494 L15.553856,11.7113924 L15.525888,11.7068354 L15.4964,11.7019747 L15.466,11.6977215 L15.433472,11.692557 L15.401248,11.6883038 L15.364464,11.6858734 L15.322816,11.683443 L15.279648,11.6810127 L15.231008,11.6810127 L15.177504,11.683443 L15.117616,11.6883038 L15.05104,11.692557 L15.004528,11.6998481 L14.960752,11.7068354 L14.921536,11.7205063 L14.886576,11.7341772 L14.854352,11.7502785 L14.824864,11.7688101 L14.801456,11.7922025 L14.780784,11.8128608 L14.766496,11.8380759 L14.75464,11.8635949 L14.750384,11.8909367 L14.750384,11.9188861 L14.75768,11.948962 L14.766496,11.9787342 L14.78504,12.0088101 L14.808144,12.0388861 L14.854352,12.0823291 L14.910288,12.116962 L14.974432,12.147038 L15.043744,12.1722532 L15.117616,12.1956456 L15.19392,12.2208608 L15.26992,12.2488101 L15.343792,12.2785823 L15.413104,12.3177722 L15.477248,12.3660759 L15.535616,12.4241013 L15.583648,12.4954937 L15.620432,12.5829873 L15.643536,12.6865823 L15.65296,12.811443 L15.643536,12.9566582 L15.627424,13.0651139 L15.599456,13.1595949 L15.562672,13.2470886 L15.516464,13.323038 L15.463568,13.3901772 L15.40368,13.4475949 L15.338928,13.4983291 L15.267792,13.5423797 L15.19392,13.5770127 L15.117616,13.6067848 L15.039184,13.6298734 L14.95832,13.6484051 L14.879888,13.6623797 L14.80328,13.6690633 L14.72728,13.6739241 L14.656144,13.6757468 L14.55704,13.6757468 L14.46432,13.6739241 L14.383456,13.6739241 L14.307456,13.6717975 L14.238144,13.6690633 L14.175824,13.6645063 L14.120496,13.6599494 L14.0676,13.652962 L14.01896,13.6484051 L13.975184,13.6392911 L13.931712,13.632 L13.891888,13.6207595 L13.852672,13.6113418 L13.815888,13.5973671 L13.779104,13.584 L13.739888,13.5700253 L13.843856,13.0602532 L13.864528,13.0651139 L13.890064,13.0721013 L13.922288,13.0809114 L13.961504,13.0906329 L14.003152,13.099443 L14.048752,13.1088608 L14.099824,13.1201013 L14.155152,13.129519 L14.212608,13.1386329 L14.272496,13.1480506 L14.335424,13.1547342 L14.399568,13.1617215 L14.466752,13.1638481 L14.533936,13.1662785 L14.600816,13.1662785 L14.667392,13.1638481 L14.734576,13.1501772 L14.78808,13.1316456 L14.829424,13.1064304 L14.861648,13.0742278 L14.884144,13.0417215 L14.902384,13.0046582 L14.914544,12.9682025 L14.923968,12.9335696 L14.92792,12.8664304 L14.907248,12.8087089 L14.868032,12.7625316 L14.810576,12.7236456 L14.741568,12.6890127 L14.6604,12.6543797 L14.57072,12.6218734 L14.480432,12.5851139 L14.38832,12.5437975 L14.300464,12.4954937 L14.2196,12.4353418 L14.146032,12.3639494 L14.087968,12.2761519 L14.046928,12.1722532 L14.026256,12.048 L14.028384,11.9006582 L14.039936,11.8104304 L14.055744,11.7247595 L14.079152,11.6466835 L14.106816,11.5728608 L14.1436,11.5038987 L14.185248,11.4437468 L14.233888,11.3860253 L14.291648,11.3355949 L14.358528,11.2918481 L14.4324,11.2547848 L14.515392,11.2201519 L14.608112,11.1949367 L14.711472,11.1736709 L14.824864,11.1578734 L14.948896,11.1484557 L15.085392,11.1460253 L15.170208,11.1460253 L15.24864,11.1484557 L15.320384,11.1511899 L15.385136,11.1533165 L15.442896,11.1578734 L15.4964,11.1624304 L15.542,11.1669873 L15.583648,11.1718481 L15.622864,11.1761013 L15.654784,11.1830886 L15.685792,11.1879494 L15.713152,11.1925063 L15.735648,11.1967595 L15.756928,11.1994937 L15.7776,11.2040506 L15.795536,11.206481 L15.677888,11.7271899" id="Fill-532" fill="#FFFFFF" sketch:type="MSShapeGroup"></path>
            <path d="M15.677888,11.7271899 L15.677888,11.7271899 L15.645968,11.7247595 L15.613136,11.7205063 L15.583648,11.7159494 L15.553856,11.7113924 L15.525888,11.7068354 L15.4964,11.7019747 L15.466,11.6977215 L15.433472,11.692557 L15.401248,11.6883038 L15.364464,11.6858734 L15.322816,11.683443 L15.279648,11.6810127 L15.231008,11.6810127 L15.177504,11.683443 L15.117616,11.6883038 L15.05104,11.692557 L15.004528,11.6998481 L14.960752,11.7068354 L14.921536,11.7205063 L14.886576,11.7341772 L14.854352,11.7502785 L14.824864,11.7688101 L14.801456,11.7922025 L14.780784,11.8128608 L14.766496,11.8380759 L14.75464,11.8635949 L14.750384,11.8909367 L14.750384,11.9188861 L14.75768,11.948962 L14.766496,11.9787342 L14.78504,12.0088101 L14.808144,12.0388861 L14.854352,12.0823291 L14.910288,12.116962 L14.974432,12.147038 L15.043744,12.1722532 L15.117616,12.1956456 L15.19392,12.2208608 L15.26992,12.2488101 L15.343792,12.2785823 L15.413104,12.3177722 L15.477248,12.3660759 L15.535616,12.4241013 L15.583648,12.4954937 L15.620432,12.5829873 L15.643536,12.6865823 L15.65296,12.811443 L15.643536,12.9566582 L15.627424,13.0651139 L15.599456,13.1595949 L15.562672,13.2470886 L15.516464,13.323038 L15.463568,13.3901772 L15.40368,13.4475949 L15.338928,13.4983291 L15.267792,13.5423797 L15.19392,13.5770127 L15.117616,13.6067848 L15.039184,13.6298734 L14.95832,13.6484051 L14.879888,13.6623797 L14.80328,13.6690633 L14.72728,13.6739241 L14.656144,13.6757468 L14.55704,13.6757468 L14.46432,13.6739241 L14.383456,13.6739241 L14.307456,13.6717975 L14.238144,13.6690633 L14.175824,13.6645063 L14.120496,13.6599494 L14.0676,13.652962 L14.01896,13.6484051 L13.975184,13.6392911 L13.931712,13.632 L13.891888,13.6207595 L13.852672,13.6113418 L13.815888,13.5973671 L13.779104,13.584 L13.739888,13.5700253 L13.843856,13.0602532 L13.864528,13.0651139 L13.890064,13.0721013 L13.922288,13.0809114 L13.961504,13.0906329 L14.003152,13.099443 L14.048752,13.1088608 L14.099824,13.1201013 L14.155152,13.129519 L14.212608,13.1386329 L14.272496,13.1480506 L14.335424,13.1547342 L14.399568,13.1617215 L14.466752,13.1638481 L14.533936,13.1662785 L14.600816,13.1662785 L14.667392,13.1638481 L14.734576,13.1501772 L14.78808,13.1316456 L14.829424,13.1064304 L14.861648,13.0742278 L14.884144,13.0417215 L14.902384,13.0046582 L14.914544,12.9682025 L14.923968,12.9335696 L14.92792,12.8664304 L14.907248,12.8087089 L14.868032,12.7625316 L14.810576,12.7236456 L14.741568,12.6890127 L14.6604,12.6543797 L14.57072,12.6218734 L14.480432,12.5851139 L14.38832,12.5437975 L14.300464,12.4954937 L14.2196,12.4353418 L14.146032,12.3639494 L14.087968,12.2761519 L14.046928,12.1722532 L14.026256,12.048 L14.028384,11.9006582 L14.039936,11.8104304 L14.055744,11.7247595 L14.079152,11.6466835 L14.106816,11.5728608 L14.1436,11.5038987 L14.185248,11.4437468 L14.233888,11.3860253 L14.291648,11.3355949 L14.358528,11.2918481 L14.4324,11.2547848 L14.515392,11.2201519 L14.608112,11.1949367 L14.711472,11.1736709 L14.824864,11.1578734 L14.948896,11.1484557 L15.085392,11.1460253 L15.170208,11.1460253 L15.24864,11.1484557 L15.320384,11.1511899 L15.385136,11.1533165 L15.442896,11.1578734 L15.4964,11.1624304 L15.542,11.1669873 L15.583648,11.1718481 L15.622864,11.1761013 L15.654784,11.1830886 L15.685792,11.1879494 L15.713152,11.1925063 L15.735648,11.1967595 L15.756928,11.1994937 L15.7776,11.2040506 L15.795536,11.206481 L15.677888,11.7271899" id="Stroke-533" stroke="#FFFFFF" stroke-width="0.216" sketch:type="MSShapeGroup"></path>
            <path d="M16.225392,10.6368608 L16.8644,10.6368608 L16.769856,11.1949367 L17.155328,11.1949367 L17.072032,11.7159494 L16.665888,11.7044051 L16.444576,12.9909873 L16.442144,13.0371646 L16.453392,13.0766582 L16.476496,13.1064304 L16.506896,13.1316456 L16.548544,13.1480506 L16.594752,13.1617215 L16.645216,13.1708354 L16.700544,13.1756962 L16.751616,13.1735696 L16.797824,13.1687089 L16.838864,13.1617215 L16.876256,13.1526076 L16.905744,13.1431899 L16.92672,13.1365063 L16.9404,13.1316456 L16.94496,13.129519 L16.8644,13.558481 L16.848288,13.5700253 L16.832176,13.5791392 L16.815456,13.5882532 L16.799648,13.5973671 L16.783536,13.6043544 L16.764992,13.6113418 L16.723648,13.6253165 L16.700544,13.632 L16.677136,13.6368608 L16.65008,13.6414177 L16.622112,13.6462785 L16.591712,13.6508354 L16.55736,13.6553924 L16.520576,13.6599494 L16.48136,13.6645063 L16.306256,13.6645063 L16.213536,13.657519 L16.132672,13.6484051 L16.059104,13.6347342 L15.996784,13.6183291 L15.94328,13.5973671 L15.900112,13.5748861 L15.860896,13.5469367 L15.830496,13.5168608 L15.807392,13.4846582 L15.79128,13.4454684 L15.779424,13.4059747 L15.77304,13.3625316 L15.770608,13.3139241 L15.770608,13.2631899 L15.7776,13.2103291 L15.784288,13.1526076 L16.225392,10.6368608" id="Fill-534" fill="#FFFFFF" sketch:type="MSShapeGroup"></path>
            <path d="M16.225392,10.6368608 L16.8644,10.6368608 L16.769856,11.1949367 L17.155328,11.1949367 L17.072032,11.7159494 L16.665888,11.7044051 L16.444576,12.9909873 L16.442144,13.0371646 L16.453392,13.0766582 L16.476496,13.1064304 L16.506896,13.1316456 L16.548544,13.1480506 L16.594752,13.1617215 L16.645216,13.1708354 L16.700544,13.1756962 L16.751616,13.1735696 L16.797824,13.1687089 L16.838864,13.1617215 L16.876256,13.1526076 L16.905744,13.1431899 L16.92672,13.1365063 L16.9404,13.1316456 L16.94496,13.129519 L16.8644,13.558481 L16.848288,13.5700253 L16.832176,13.5791392 L16.815456,13.5882532 L16.799648,13.5973671 L16.783536,13.6043544 L16.764992,13.6113418 L16.723648,13.6253165 L16.700544,13.632 L16.677136,13.6368608 L16.65008,13.6414177 L16.622112,13.6462785 L16.591712,13.6508354 L16.55736,13.6553924 L16.520576,13.6599494 L16.48136,13.6645063 L16.306256,13.6645063 L16.213536,13.657519 L16.132672,13.6484051 L16.059104,13.6347342 L15.996784,13.6183291 L15.94328,13.5973671 L15.900112,13.5748861 L15.860896,13.5469367 L15.830496,13.5168608 L15.807392,13.4846582 L15.79128,13.4454684 L15.779424,13.4059747 L15.77304,13.3625316 L15.770608,13.3139241 L15.770608,13.2631899 L15.7776,13.2103291 L15.784288,13.1526076 L16.225392,10.6368608 M17.664528,12.5851139 L17.664528,12.5851139 L17.658752,12.6243038 L17.65632,12.6656203 L17.659968,12.7096709 L17.669392,12.7534177 L17.686112,12.7974684 L17.704352,12.8393924 L17.72928,12.8828354 L17.757248,12.9217215 L17.79008,12.9612152 L17.824432,12.9961519 L17.861216,13.030481 L17.902864,13.0578228 L17.9436,13.0836456 L17.99072,13.104 L18.03632,13.1201013 L18.082528,13.129519 L18.143328,13.1386329 L18.200176,13.1456203 L18.260064,13.1526076 L18.320864,13.1571646 L18.380144,13.1595949 L18.442464,13.1595949 L18.50296,13.1571646 L18.564672,13.1526076 L18.626992,13.1431899 L18.68992,13.1316456 L18.754064,13.1179747 L18.816384,13.0973165 L18.881136,13.0721013 L18.94832,13.0438481 L19.012464,13.0073924 L19.080256,12.9682025 L18.987536,13.5353924 L18.950752,13.5536203 L18.91336,13.5724557 L18.876576,13.5858228 L18.84192,13.6001013 L18.807568,13.6113418 L18.770176,13.6231899 L18.733392,13.632 L18.694176,13.6392911 L18.652528,13.6462785 L18.60632,13.6508354 L18.558288,13.6553924 L18.504784,13.6599494 L18.444896,13.6623797 L18.382576,13.6623797 L18.311136,13.6645063 L18.235136,13.6645063 L18.121744,13.6623797 L18.006528,13.6508354 L17.891616,13.6347342 L17.775792,13.6067848 L17.663008,13.5724557 L17.554176,13.5281013 L17.450208,13.4709873 L17.353536,13.4038481 L17.263248,13.3254684 L17.184816,13.2309873 L17.118544,13.1246582 L17.062608,13.0025316 L17.023392,12.8664304 L16.997856,12.7117975 L16.991472,12.5413671 L17.00272,12.3524051 L17.012144,12.2785823 L17.025824,12.1929114 L17.044064,12.1035949 L17.0696,12.0060759 L17.104864,11.9076456 L17.1456,11.808 L17.199104,11.7068354 L17.263248,11.6099241 L17.337424,11.5175696 L17.427104,11.4300759 L17.52864,11.3516962 L17.644464,11.2824304 L17.77792,11.2247089 L17.9284,11.1830886 L18.094384,11.1557468 L18.281648,11.1460253 L18.371328,11.1484557 L18.466176,11.1578734 L18.560112,11.1736709 L18.65496,11.1967595 L18.74768,11.2316962 L18.83736,11.2733165 L18.920352,11.3286076 L18.996352,11.3930127 L19.065968,11.4713924 L19.123424,11.5640506 L19.169936,11.6697722 L19.201856,11.7922025 L19.2204,11.9301266 L19.222528,12.0868861 L19.20672,12.2621772 L19.172064,12.4563038 L19.160208,12.596962 L17.478176,12.596962 L17.584576,12.1421772 L18.595072,12.1421772 L18.599936,12.0850633 L18.597504,12.0294684 L18.59264,11.9787342 L18.583824,11.9328608 L18.567104,11.8888101 L18.550992,11.8493165 L18.527888,11.8149873 L18.504784,11.7827848 L18.477424,11.7551392 L18.447328,11.7320506 L18.412672,11.7113924 L18.377712,11.692557 L18.341536,11.6791899 L18.304144,11.6697722 L18.264928,11.6627848 L18.223888,11.6582278 L18.179504,11.6606582 L18.138464,11.6673418 L18.099248,11.6770633 L18.060032,11.6904304 L18.020208,11.708962 L17.985856,11.7299241 L17.950896,11.7551392 L17.921712,11.7827848 L17.891616,11.8149873 L17.863648,11.8493165 L17.83872,11.8866835 L17.817136,11.9261772 L17.796464,11.9674937 L17.780352,12.0133671 L17.766672,12.0595443 L17.757248,12.1078481 L17.664528,12.5851139" id="Stroke-535" stroke="#FFFFFF" stroke-width="0.216" sketch:type="MSShapeGroup"></path>
            <path d="M23.168752,11.3331646 L23.138352,11.3170633 L23.108864,11.3030886 L23.07664,11.2869873 L23.04168,11.2705823 L23.007328,11.2569114 L22.968112,11.2432405 L22.928896,11.2292658 L22.887248,11.2155949 L22.843472,11.2040506 L22.799392,11.1949367 L22.750752,11.185519 L22.70272,11.1785316 L22.649824,11.1736709 L22.59632,11.1694177 L22.42608,11.1694177 L22.36528,11.1736709 L22.303568,11.180962 L22.238208,11.1925063 L22.174064,11.2107342 L22.109616,11.2362532 L22.045472,11.2684557 L21.980112,11.3097722 L21.917792,11.3608101 L21.8576,11.4206582 L21.800144,11.494481 L21.744816,11.5798481 L21.693744,11.6810127 L21.645712,11.7964557 L21.602544,11.9261772 L21.565152,12.073519 L21.551472,12.1561519 L21.541744,12.236962 L21.537184,12.3177722 L21.539616,12.3961519 L21.546608,12.4745316 L21.56272,12.5483544 L21.583392,12.6176203 L21.608928,12.6865823 L21.64328,12.7491646 L21.684928,12.8087089 L21.733568,12.8618734 L21.788896,12.910481 L21.851216,12.9521013 L21.922352,12.9864304 L22.000784,13.0165063 L22.089248,13.0371646 L22.11904,13.0438481 L22.153392,13.0508354 L22.19504,13.0556962 L22.241248,13.0602532 L22.291712,13.0651139 L22.402672,13.0651139 L22.460432,13.0602532 L22.52032,13.0532658 L22.580208,13.0417215 L22.637968,13.0256203 L22.695424,13.0073924 L22.753184,12.9818734 L22.806384,12.9521013 L22.85472,12.915038 L22.900928,12.8737215 L22.79696,13.489519 L22.78328,13.5007595 L22.768992,13.5147342 L22.750752,13.5311392 L22.73008,13.5442025 L22.705152,13.5627342 L22.67232,13.5791392 L22.635536,13.5952405 L22.593888,13.6089114 L22.540992,13.6253165 L22.481104,13.6368608 L22.411792,13.6462785 L22.330928,13.6553924 L22.241248,13.6599494 L22.13728,13.6623797 L22.019936,13.6599494 L21.889824,13.652962 L21.784032,13.6414177 L21.677936,13.6183291 L21.571536,13.584 L21.465744,13.537519 L21.364208,13.4825316 L21.267536,13.412962 L21.174816,13.3324557 L21.089392,13.2404051 L21.013392,13.1365063 L20.94864,13.0213671 L20.893616,12.8922532 L20.851968,12.7512911 L20.824608,12.596962 L20.815184,12.4332152 L20.819744,12.2533671 L20.844672,12.0616709 L20.863824,11.9674937 L20.884496,11.8751392 L20.906992,11.7852152 L20.9304,11.6998481 L20.955936,11.619038 L20.985424,11.5385316 L21.015824,11.4622785 L21.047744,11.3908861 L21.083008,11.3191899 L21.11736,11.2523544 L21.156576,11.1879494 L21.19792,11.1281013 L21.239568,11.0700759 L21.285472,11.0150886 L21.33168,10.9643544 L21.38032,10.9157468 L21.433216,10.8695696 L21.48672,10.8258228 L21.541744,10.7866329 L21.600112,10.7495696 L21.661824,10.7149367 L21.724144,10.6854684 L21.788896,10.657519 L21.85608,10.632 L21.927216,10.6089114 L21.998352,10.5906835 L22.072528,10.5742785 L22.15096,10.5606076 L22.229392,10.5487595 L22.312384,10.5399494 L22.39568,10.5353924 L22.483536,10.5326582 L22.557104,10.5353924 L22.629152,10.5399494 L22.697856,10.5469367 L22.767472,10.5560506 L22.83192,10.5651646 L22.894544,10.5788354 L22.953824,10.5906835 L23.009456,10.6043544 L23.062352,10.6180253 L23.108864,10.632 L23.15264,10.6459747 L23.189424,10.6596456 L23.221648,10.6711899 L23.249616,10.6806076 L23.270288,10.6897215 L23.284576,10.6945823 L23.168752,11.3331646" id="Fill-536" fill="#FFFFFF" sketch:type="MSShapeGroup"></path>
            <path d="M23.168752,11.3331646 L23.168752,11.3331646 L23.138352,11.3170633 L23.108864,11.3030886 L23.07664,11.2869873 L23.04168,11.2705823 L23.007328,11.2569114 L22.968112,11.2432405 L22.928896,11.2292658 L22.887248,11.2155949 L22.843472,11.2040506 L22.799392,11.1949367 L22.750752,11.185519 L22.70272,11.1785316 L22.649824,11.1736709 L22.59632,11.1694177 L22.42608,11.1694177 L22.36528,11.1736709 L22.303568,11.180962 L22.238208,11.1925063 L22.174064,11.2107342 L22.109616,11.2362532 L22.045472,11.2684557 L21.980112,11.3097722 L21.917792,11.3608101 L21.8576,11.4206582 L21.800144,11.494481 L21.744816,11.5798481 L21.693744,11.6810127 L21.645712,11.7964557 L21.602544,11.9261772 L21.565152,12.073519 L21.551472,12.1561519 L21.541744,12.236962 L21.537184,12.3177722 L21.539616,12.3961519 L21.546608,12.4745316 L21.56272,12.5483544 L21.583392,12.6176203 L21.608928,12.6865823 L21.64328,12.7491646 L21.684928,12.8087089 L21.733568,12.8618734 L21.788896,12.910481 L21.851216,12.9521013 L21.922352,12.9864304 L22.000784,13.0165063 L22.089248,13.0371646 L22.11904,13.0438481 L22.153392,13.0508354 L22.19504,13.0556962 L22.241248,13.0602532 L22.291712,13.0651139 L22.402672,13.0651139 L22.460432,13.0602532 L22.52032,13.0532658 L22.580208,13.0417215 L22.637968,13.0256203 L22.695424,13.0073924 L22.753184,12.9818734 L22.806384,12.9521013 L22.85472,12.915038 L22.900928,12.8737215 L22.79696,13.489519 L22.78328,13.5007595 L22.768992,13.5147342 L22.750752,13.5311392 L22.73008,13.5442025 L22.705152,13.5627342 L22.67232,13.5791392 L22.635536,13.5952405 L22.593888,13.6089114 L22.540992,13.6253165 L22.481104,13.6368608 L22.411792,13.6462785 L22.330928,13.6553924 L22.241248,13.6599494 L22.13728,13.6623797 L22.019936,13.6599494 L21.889824,13.652962 L21.784032,13.6414177 L21.677936,13.6183291 L21.571536,13.584 L21.465744,13.537519 L21.364208,13.4825316 L21.267536,13.412962 L21.174816,13.3324557 L21.089392,13.2404051 L21.013392,13.1365063 L20.94864,13.0213671 L20.893616,12.8922532 L20.851968,12.7512911 L20.824608,12.596962 L20.815184,12.4332152 L20.819744,12.2533671 L20.844672,12.0616709 L20.863824,11.9674937 L20.884496,11.8751392 L20.906992,11.7852152 L20.9304,11.6998481 L20.955936,11.619038 L20.985424,11.5385316 L21.015824,11.4622785 L21.047744,11.3908861 L21.083008,11.3191899 L21.11736,11.2523544 L21.156576,11.1879494 L21.19792,11.1281013 L21.239568,11.0700759 L21.285472,11.0150886 L21.33168,10.9643544 L21.38032,10.9157468 L21.433216,10.8695696 L21.48672,10.8258228 L21.541744,10.7866329 L21.600112,10.7495696 L21.661824,10.7149367 L21.724144,10.6854684 L21.788896,10.657519 L21.85608,10.632 L21.927216,10.6089114 L21.998352,10.5906835 L22.072528,10.5742785 L22.15096,10.5606076 L22.229392,10.5487595 L22.312384,10.5399494 L22.39568,10.5353924 L22.483536,10.5326582 L22.557104,10.5353924 L22.629152,10.5399494 L22.697856,10.5469367 L22.767472,10.5560506 L22.83192,10.5651646 L22.894544,10.5788354 L22.953824,10.5906835 L23.009456,10.6043544 L23.062352,10.6180253 L23.108864,10.632 L23.15264,10.6459747 L23.189424,10.6596456 L23.221648,10.6711899 L23.249616,10.6806076 L23.270288,10.6897215 L23.284576,10.6945823 L23.168752,11.3331646" id="Stroke-537" stroke="#FFFFFF" stroke-width="0.216" sketch:type="MSShapeGroup"></path>
            <path d="M28.8496,13.6645063 L28.210896,13.6645063 L28.257104,13.4087089 L28.257104,13.3853165 L28.219712,13.4317975 L28.181104,13.4728101 L28.141888,13.5098734 L28.100544,13.5423797 L28.058288,13.5724557 L28.01664,13.5973671 L27.974992,13.6183291 L27.931216,13.6392911 L27.887744,13.6553924 L27.843968,13.6669367 L27.799888,13.6781772 L27.75368,13.6848608 L27.707472,13.6921519 L27.663392,13.6967089 L27.617792,13.6991392 L27.57128,13.6991392 L27.451504,13.6897215 L27.341152,13.6645063 L27.239616,13.6253165 L27.146896,13.5724557 L27.0636,13.5053165 L26.990032,13.4272405 L26.92528,13.3415696 L26.870256,13.244962 L26.823744,13.1407595 L26.78696,13.0329114 L26.761424,12.9198987 L26.743184,12.8020253 L26.736496,12.6844557 L26.73832,12.5647595 L26.750176,12.4468861 L26.771152,12.3296203 L26.805504,12.1929114 L26.847456,12.0641013 L26.895184,11.9465316 L26.953248,11.8359494 L27.013136,11.7320506 L27.082144,11.6396962 L27.153888,11.5570633 L27.229888,11.4808101 L27.310752,11.4136709 L27.396176,11.3562532 L27.484032,11.305519 L27.57128,11.2663291 L27.663392,11.2338228 L27.756112,11.2131646 L27.848528,11.1994937 L27.943072,11.1949367 L28.010256,11.1967595 L28.0744,11.2040506 L28.134896,11.2155949 L28.190528,11.2316962 L28.242816,11.2502278 L28.289328,11.2705823 L28.335536,11.2964051 L28.377184,11.3216203 L28.413968,11.348962 L28.44832,11.3793418 L28.478112,11.4091139 L28.50608,11.4391899 L28.529184,11.4692658 L28.550464,11.499038 L28.5684,11.5269873 L28.582384,11.5546329 L28.744112,10.6484051 L29.371568,10.6484051 L28.8496,13.6645063" id="Fill-538" fill="#FFFFFF" sketch:type="MSShapeGroup"></path>
            <path d="M28.8496,13.6645063 L28.210896,13.6645063 L28.257104,13.4087089 L28.257104,13.3853165 L28.219712,13.4317975 L28.181104,13.4728101 L28.141888,13.5098734 L28.100544,13.5423797 L28.058288,13.5724557 L28.01664,13.5973671 L27.974992,13.6183291 L27.931216,13.6392911 L27.887744,13.6553924 L27.843968,13.6669367 L27.799888,13.6781772 L27.75368,13.6848608 L27.707472,13.6921519 L27.663392,13.6967089 L27.617792,13.6991392 L27.57128,13.6991392 L27.451504,13.6897215 L27.341152,13.6645063 L27.239616,13.6253165 L27.146896,13.5724557 L27.0636,13.5053165 L26.990032,13.4272405 L26.92528,13.3415696 L26.870256,13.244962 L26.823744,13.1407595 L26.78696,13.0329114 L26.761424,12.9198987 L26.743184,12.8020253 L26.736496,12.6844557 L26.73832,12.5647595 L26.750176,12.4468861 L26.771152,12.3296203 L26.805504,12.1929114 L26.847456,12.0641013 L26.895184,11.9465316 L26.953248,11.8359494 L27.013136,11.7320506 L27.082144,11.6396962 L27.153888,11.5570633 L27.229888,11.4808101 L27.310752,11.4136709 L27.396176,11.3562532 L27.484032,11.305519 L27.57128,11.2663291 L27.663392,11.2338228 L27.756112,11.2131646 L27.848528,11.1994937 L27.943072,11.1949367 L28.010256,11.1967595 L28.0744,11.2040506 L28.134896,11.2155949 L28.190528,11.2316962 L28.242816,11.2502278 L28.289328,11.2705823 L28.335536,11.2964051 L28.377184,11.3216203 L28.413968,11.348962 L28.44832,11.3793418 L28.478112,11.4091139 L28.50608,11.4391899 L28.529184,11.4692658 L28.550464,11.499038 L28.5684,11.5269873 L28.582384,11.5546329 L28.744112,10.6484051 L29.371568,10.6484051 L28.8496,13.6645063" id="Stroke-539" stroke="#FFFFFF" stroke-width="0.216" sketch:type="MSShapeGroup"></path>
            <path d="M27.804752,13.1064304 L27.869504,13.1018734 L27.929392,13.0882025 L27.98472,13.0721013 L28.03792,13.0465823 L28.086256,13.0192405 L28.132464,12.984 L28.175936,12.9454177 L28.215456,12.9031899 L28.250112,12.8573165 L28.282032,12.8065823 L28.312432,12.7534177 L28.337968,12.6984304 L28.360464,12.6404051 L28.379616,12.580557 L28.395424,12.5182785 L28.406672,12.4563038 L28.41792,12.3918987 L28.425824,12.3250633 L28.425824,12.2621772 L28.422784,12.1980759 L28.4164,12.1379241 L28.406672,12.0802025 L28.390864,12.0249114 L28.37232,11.9717468 L28.349216,11.9261772 L28.321856,11.8821266 L28.291456,11.8447595 L28.257104,11.8128608 L28.217888,11.7852152 L28.175936,11.7666835 L28.132464,11.7551392 L28.083824,11.7502785 L28.021504,11.7551392 L27.963744,11.7642532 L27.911152,11.7827848 L27.857648,11.8058734 L27.811136,11.8359494 L27.765536,11.8727089 L27.72632,11.9118987 L27.687104,11.9559494 L27.652144,12.0060759 L27.61992,12.0595443 L27.589824,12.1148354 L27.564288,12.1746835 L27.541792,12.236962 L27.523248,12.2995443 L27.505008,12.3660759 L27.49072,12.4332152 L27.478864,12.5346835 L27.484032,12.6452658 L27.500144,12.7579747 L27.529936,12.8664304 L27.576144,12.9612152 L27.636032,13.0371646 L27.712032,13.0882025 L27.804752,13.1064304" id="Fill-540" fill="#FBB231" sketch:type="MSShapeGroup"></path>
            <path d="M13.633792,13.1526076 L13.541072,13.6645063 L12.959824,13.6645063 L12.975936,13.5700253 L12.987792,13.4846582 L12.996608,13.4202532 L13.006032,13.3853165 L12.974112,13.4223797 L12.93672,13.459443 L12.893248,13.4940759 L12.844608,13.5259747 L12.78928,13.558481 L12.731216,13.5858228 L12.671328,13.6137722 L12.609616,13.6368608 L12.542432,13.657519 L12.475248,13.6739241 L12.408672,13.6875949 L12.33936,13.6967089 L12.272176,13.7015696 L12.2056,13.7036962 L12.141152,13.6967089 L12.07792,13.6875949 L11.99736,13.6669367 L11.923792,13.6435443 L11.85904,13.6137722 L11.80128,13.5791392 L11.750816,13.5423797 L11.704608,13.5007595 L11.667824,13.4567089 L11.634992,13.4108354 L11.607936,13.3625316 L11.584528,13.3114937 L11.566288,13.2610633 L11.552608,13.2103291 L11.543184,13.1571646 L11.535888,13.104 L11.531328,13.0532658 L11.531328,13.0025316 L11.53832,12.9126076 L11.552608,12.8272405 L11.575104,12.7467342 L11.605504,12.6680506 L11.642288,12.5945316 L11.683936,12.5276962 L11.732576,12.4632911 L11.7876,12.4052658 L11.84536,12.3524051 L11.910112,12.3037975 L11.976384,12.2600506 L12.046,12.2229873 L12.119568,12.1913924 L12.196176,12.1655696 L12.274608,12.1449114 L12.355472,12.1309367 L12.360032,12.1309367 L12.37128,12.1285063 L12.387392,12.1263797 L12.412928,12.1239494 L12.440896,12.1193924 L12.472816,12.116962 L12.507472,12.1124051 L12.546992,12.1078481 L12.586208,12.1035949 L12.625424,12.0987342 L12.667072,12.0963038 L12.703856,12.0917468 L12.74064,12.0896203 L12.774992,12.0868861 L12.807216,12.0850633 L12.886256,12.0850633 L12.941888,12.0868861 L12.992352,12.0896203 L13.042816,12.0896203 L13.084464,12.0917468 L13.116992,12.0938734 L13.139792,12.0963038 L13.146784,12.0963038 L13.151648,12.0802025 L13.165328,12.0388861 L13.177184,11.9899747 L13.181136,11.9465316 L13.17232,11.8957975 L13.151648,11.8493165 L13.12368,11.808 L13.086896,11.7733671 L13.042816,11.7438987 L12.994784,11.7229367 L12.939152,11.708962 L12.87896,11.7044051 L12.814208,11.7019747 L12.744896,11.6998481 L12.673456,11.6998481 L12.599888,11.7019747 L12.523888,11.7068354 L12.449712,11.713519 L12.376144,11.7205063 L12.3044,11.7299241 L12.235392,11.7387342 L12.168208,11.7502785 L12.10832,11.7618228 L12.052992,11.7733671 L12.00192,11.7876456 L11.961184,11.8010127 L11.928352,11.8174177 L11.902816,11.8310886 L12.066672,11.275443 L12.117744,11.2547848 L12.168208,11.2362532 L12.224144,11.2201519 L12.279472,11.2083038 L12.334496,11.1967595 L12.394384,11.1879494 L12.454576,11.1785316 L12.516896,11.1736709 L12.581648,11.1694177 L12.64792,11.1669873 L12.717536,11.164557 L12.939152,11.164557 L13.019712,11.1669873 L13.100576,11.1694177 L13.165328,11.1736709 L13.23464,11.185519 L13.306384,11.2016203 L13.379648,11.2225823 L13.450784,11.2502278 L13.521008,11.2824304 L13.589712,11.3216203 L13.654464,11.3653671 L13.71192,11.4164051 L13.762992,11.4713924 L13.809504,11.5336709 L13.843856,11.6029367 L13.86696,11.6770633 L13.88064,11.7551392 L13.88064,11.8426329 L13.86696,11.9349873 L13.633792,13.1526076" id="Fill-541" fill="#FFFFFF" sketch:type="MSShapeGroup"></path>
            <path d="M13.633792,13.1526076 L13.541072,13.6645063 L12.959824,13.6645063 L12.975936,13.5700253 L12.987792,13.4846582 L12.996608,13.4202532 L13.006032,13.3853165 L12.974112,13.4223797 L12.93672,13.459443 L12.893248,13.4940759 L12.844608,13.5259747 L12.78928,13.558481 L12.731216,13.5858228 L12.671328,13.6137722 L12.609616,13.6368608 L12.542432,13.657519 L12.475248,13.6739241 L12.408672,13.6875949 L12.33936,13.6967089 L12.272176,13.7015696 L12.2056,13.7036962 L12.141152,13.6967089 L12.07792,13.6875949 L11.99736,13.6669367 L11.923792,13.6435443 L11.85904,13.6137722 L11.80128,13.5791392 L11.750816,13.5423797 L11.704608,13.5007595 L11.667824,13.4567089 L11.634992,13.4108354 L11.607936,13.3625316 L11.584528,13.3114937 L11.566288,13.2610633 L11.552608,13.2103291 L11.543184,13.1571646 L11.535888,13.104 L11.531328,13.0532658 L11.531328,13.0025316 L11.53832,12.9126076 L11.552608,12.8272405 L11.575104,12.7467342 L11.605504,12.6680506 L11.642288,12.5945316 L11.683936,12.5276962 L11.732576,12.4632911 L11.7876,12.4052658 L11.84536,12.3524051 L11.910112,12.3037975 L11.976384,12.2600506 L12.046,12.2229873 L12.119568,12.1913924 L12.196176,12.1655696 L12.274608,12.1449114 L12.355472,12.1309367 L12.360032,12.1309367 L12.37128,12.1285063 L12.387392,12.1263797 L12.412928,12.1239494 L12.440896,12.1193924 L12.472816,12.116962 L12.507472,12.1124051 L12.546992,12.1078481 L12.586208,12.1035949 L12.625424,12.0987342 L12.667072,12.0963038 L12.703856,12.0917468 L12.74064,12.0896203 L12.774992,12.0868861 L12.807216,12.0850633 L12.886256,12.0850633 L12.941888,12.0868861 L12.992352,12.0896203 L13.042816,12.0896203 L13.084464,12.0917468 L13.116992,12.0938734 L13.139792,12.0963038 L13.146784,12.0963038 L13.151648,12.0802025 L13.165328,12.0388861 L13.177184,11.9899747 L13.181136,11.9465316 L13.17232,11.8957975 L13.151648,11.8493165 L13.12368,11.808 L13.086896,11.7733671 L13.042816,11.7438987 L12.994784,11.7229367 L12.939152,11.708962 L12.87896,11.7044051 L12.814208,11.7019747 L12.744896,11.6998481 L12.673456,11.6998481 L12.599888,11.7019747 L12.523888,11.7068354 L12.449712,11.713519 L12.376144,11.7205063 L12.3044,11.7299241 L12.235392,11.7387342 L12.168208,11.7502785 L12.10832,11.7618228 L12.052992,11.7733671 L12.00192,11.7876456 L11.961184,11.8010127 L11.928352,11.8174177 L11.902816,11.8310886 L12.066672,11.275443 L12.117744,11.2547848 L12.168208,11.2362532 L12.224144,11.2201519 L12.279472,11.2083038 L12.334496,11.1967595 L12.394384,11.1879494 L12.454576,11.1785316 L12.516896,11.1736709 L12.581648,11.1694177 L12.64792,11.1669873 L12.717536,11.164557 L12.939152,11.164557 L13.019712,11.1669873 L13.100576,11.1694177 L13.165328,11.1736709 L13.23464,11.185519 L13.306384,11.2016203 L13.379648,11.2225823 L13.450784,11.2502278 L13.521008,11.2824304 L13.589712,11.3216203 L13.654464,11.3653671 L13.71192,11.4164051 L13.762992,11.4713924 L13.809504,11.5336709 L13.843856,11.6029367 L13.86696,11.6770633 L13.88064,11.7551392 L13.88064,11.8426329 L13.86696,11.9349873 L13.633792,13.1526076" id="Stroke-542" stroke="#FFFFFF" stroke-width="0.216" sketch:type="MSShapeGroup"></path>
            <path d="M13.07808,12.550481 L13.075648,12.5392405 L13.06592,12.5276962 L13.052544,12.5207089 L13.029136,12.5161519 L13.0036,12.5115949 L12.974112,12.5091646 L12.904496,12.5091646 L12.867104,12.5115949 L12.827888,12.5161519 L12.791104,12.5207089 L12.75432,12.5255696 L12.719968,12.5301266 L12.687136,12.5368101 L12.66008,12.5437975 L12.634544,12.550481 L12.618432,12.555038 L12.599888,12.5623291 L12.574352,12.571443 L12.548816,12.5829873 L12.519328,12.596962 L12.488928,12.6130633 L12.457008,12.6291646 L12.426608,12.6476962 L12.394384,12.670481 L12.364896,12.6935696 L12.336928,12.721519 L12.311392,12.7491646 L12.288288,12.7789367 L12.272176,12.811443 L12.257888,12.8482025 L12.251504,12.884962 L12.249072,12.9636456 L12.260928,13.0256203 L12.283424,13.0721013 L12.313824,13.1064304 L12.348176,13.129519 L12.387392,13.1431899 L12.424176,13.1501772 L12.461568,13.1526076 L12.531184,13.1501772 L12.593504,13.1431899 L12.653392,13.1337722 L12.70568,13.1201013 L12.752496,13.104 L12.795968,13.0836456 L12.835184,13.0626835 L12.870144,13.0371646 L12.900544,13.0140759 L12.9276,12.9864304 L12.951008,12.9612152 L12.969248,12.9335696 L12.98536,12.9059241 L12.99904,12.8782785 L13.010896,12.8527595 L13.01728,12.8272405 L13.036432,12.7607089 L13.052544,12.6844557 L13.06592,12.6106329 L13.07808,12.550481" id="Fill-543" fill="#EC1C2E" sketch:type="MSShapeGroup"></path>
            <path d="M8.778608,13.6645063 L8.151152,13.6645063 L8.67464,10.6368608 L9.766608,10.6368608 L9.869968,12.4332152 L10.624496,10.6368608 L11.764496,10.6368608 L11.229152,13.6645063 L10.601392,13.6645063 L10.998112,11.4024304 L10.973184,11.4024304 L10.033824,13.6645063 L9.325504,13.6645063 L9.321248,13.5700253 L9.304528,13.318481 L9.283856,12.9612152 L9.237648,12.1379241 L9.216672,11.7761013 L9.200864,11.5133165 L9.196,11.4024304 L9.161648,11.4024304 L8.778608,13.6645063" id="Fill-544" fill="#FFFFFF" sketch:type="MSShapeGroup"></path>
            <path d="M8.778608,13.6645063 L8.151152,13.6645063 L8.67464,10.6368608 L9.766608,10.6368608 L9.869968,12.4332152 L10.624496,10.6368608 L11.764496,10.6368608 L11.229152,13.6645063 L10.601392,13.6645063 L10.998112,11.4024304 L10.973184,11.4024304 L10.033824,13.6645063 L9.325504,13.6645063 L9.321248,13.5700253 L9.304528,13.318481 L9.283856,12.9612152 L9.237648,12.1379241 L9.216672,11.7761013 L9.200864,11.5133165 L9.196,11.4024304 L9.161648,11.4024304 L8.778608,13.6645063" id="Stroke-545" stroke="#FFFFFF" stroke-width="0.216" sketch:type="MSShapeGroup"></path>
            <path d="M25.086384,13.1526076 L24.992144,13.6645063 L24.41272,13.6645063 L24.41728,13.5700253 L24.419712,13.4870886 L24.419712,13.4248101 L24.424576,13.3971646 L24.394176,13.4317975 L24.359216,13.4661266 L24.317568,13.4983291 L24.271968,13.5311392 L24.223328,13.5606076 L24.168,13.5882532 L24.110544,13.6162025 L24.052784,13.6392911 L23.989856,13.657519 L23.925712,13.6757468 L23.86096,13.6875949 L23.796816,13.6967089 L23.729328,13.7015696 L23.665184,13.7036962 L23.602256,13.6967089 L23.540544,13.6875949 L23.457248,13.6669367 L23.38368,13.6435443 L23.318928,13.6137722 L23.25904,13.5791392 L23.207968,13.5423797 L23.163888,13.5007595 L23.127104,13.4567089 L23.094576,13.4108354 L23.067216,13.3625316 L23.046544,13.3114937 L23.028,13.2610633 L23.016752,13.2103291 L23.007328,13.1571646 L23.000032,13.104 L22.995472,13.0532658 L22.995472,13.0025316 L23.000032,12.9126076 L23.01432,12.8272405 L23.034992,12.7467342 L23.064784,12.6680506 L23.099136,12.5945316 L23.143824,12.5276962 L23.191856,12.4632911 L23.244752,12.4052658 L23.305248,12.3524051 L23.36696,12.3037975 L23.434144,12.2600506 L23.50528,12.2229873 L23.577328,12.1913924 L23.653328,12.1655696 L23.729328,12.1449114 L23.807456,12.1309367 L23.81232,12.1309367 L23.824176,12.1285063 L23.840288,12.1263797 L23.863392,12.1239494 L23.893184,12.1193924 L23.925712,12.116962 L23.960064,12.1124051 L23.997152,12.1078481 L24.036064,12.1035949 L24.077712,12.0987342 L24.116928,12.0963038 L24.156752,12.0917468 L24.193536,12.0896203 L24.225456,12.0868861 L24.25768,12.0850633 L24.338544,12.0850633 L24.394176,12.0868861 L24.447072,12.0896203 L24.498144,12.0896203 L24.541616,12.0917468 L24.579008,12.0938734 L24.59968,12.0963038 L24.609104,12.0963038 L24.61336,12.0802025 L24.620352,12.0388861 L24.62704,11.9899747 L24.6316,11.9465316 L24.622176,11.8957975 L24.604544,11.8493165 L24.574144,11.808 L24.539184,11.7733671 L24.498144,11.7438987 L24.449504,11.7229367 L24.398432,11.708962 L24.343104,11.7044051 L24.278352,11.7019747 L24.209648,11.6998481 L24.1376,11.6998481 L24.064032,11.7019747 L23.987424,11.7068354 L23.913856,11.713519 L23.840288,11.7205063 L23.768544,11.7299241 L23.699536,11.7387342 L23.632352,11.7502785 L23.573072,11.7618228 L23.517136,11.7733671 L23.466064,11.7876456 L23.42472,11.8010127 L23.392496,11.8174177 L23.36696,11.8310886 L23.528992,11.275443 L23.579456,11.2547848 L23.632352,11.2362532 L23.685248,11.2201519 L23.741184,11.2083038 L23.79864,11.1967595 L23.8564,11.1879494 L23.916288,11.1785316 L23.978608,11.1736709 L24.04336,11.1694177 L24.110544,11.1669873 L24.176816,11.164557 L24.394176,11.164557 L24.472608,11.1669873 L24.55104,11.1694177 L24.615792,11.1736709 L24.685104,11.185519 L24.756544,11.2016203 L24.83072,11.2225823 L24.901856,11.2502278 L24.972992,11.2824304 L25.042608,11.3216203 L25.10736,11.3653671 L25.164816,11.4164051 L25.21832,11.4713924 L25.26392,11.5336709 L25.298576,11.6029367 L25.324112,11.6770633 L25.33992,11.7551392 L25.33992,11.8426329 L25.328672,11.9349873 L25.086384,13.1526076" id="Fill-546" fill="#FFFFFF" sketch:type="MSShapeGroup"></path>
            <path id="Fill-547" fill="#FFFFFF" sketch:type="MSShapeGroup" d="M24.992144,13.6806076 L25.005824,13.6669367 L25.100064,13.1547342 L25.0724,13.1501772 L24.977856,13.6623797 L24.992144,13.6484051 L24.992144,13.6806076 L25.003392,13.6781772 L25.005824,13.6669367 L24.992144,13.6806076"></path>
            <path id="Fill-548" fill="#FFFFFF" sketch:type="MSShapeGroup" d="M24.398432,13.6645063 L24.41272,13.6806076 L24.992144,13.6806076 L24.992144,13.6484051 L24.41272,13.6484051 L24.4264,13.6645063 L24.398432,13.6645063 L24.396608,13.6806076 L24.41272,13.6806076 L24.398432,13.6645063"></path>
            <path id="Fill-549" fill="#FFFFFF" sketch:type="MSShapeGroup" d="M24.435824,13.4059747 L24.415152,13.3877468 L24.405424,13.4248101 L24.402992,13.4870886 L24.402992,13.5700253 L24.398432,13.6645063 L24.4264,13.6645063 L24.43096,13.5700253 L24.435824,13.4870886 L24.432784,13.4248101 L24.432784,13.4059747 L24.41272,13.3877468 L24.435824,13.4059747"></path>
            <path id="Fill-550" fill="#FFFFFF" sketch:type="MSShapeGroup" d="M23.538112,13.7015696 L23.538112,13.7015696 L23.602256,13.7106835 L23.665184,13.7173671 L23.729328,13.7155443 L23.796816,13.7106835 L23.863392,13.7015696 L23.928144,13.6897215 L23.992288,13.6717975 L24.05704,13.652962 L24.114496,13.6298734 L24.174384,13.6025316 L24.229712,13.5748861 L24.278352,13.5423797 L24.326992,13.5098734 L24.36864,13.4779747 L24.405424,13.4406076 L24.435824,13.4059747 L24.41272,13.3877468 L24.38232,13.4223797 L24.3504,13.4545823 L24.308752,13.4870886 L24.264672,13.5192911 L24.216032,13.5469367 L24.161008,13.5748861 L24.10568,13.6025316 L24.04792,13.6253165 L23.987424,13.6435443 L23.92328,13.6623797 L23.858528,13.6739241 L23.796816,13.6827342 L23.729328,13.6875949 L23.665184,13.6897215 L23.602256,13.6827342 L23.542064,13.6739241 L23.538112,13.7015696"></path>
            <path d="M22.97936,13.0025316 L22.97936,13.0025316 L22.981792,13.0532658 L22.986352,13.104 L22.99304,13.1595949 L23.002464,13.2124557 L23.01432,13.2631899 L23.032864,13.3163544 L23.053536,13.3692152 L23.083328,13.4178228 L23.115856,13.4661266 L23.15264,13.5098734 L23.199152,13.5536203 L23.251744,13.5906835 L23.311936,13.6277468 L23.378816,13.657519 L23.454208,13.6806076 L23.538112,13.7015696 L23.542064,13.6739241 L23.45968,13.652962 L23.388544,13.6298734 L23.325616,13.6001013 L23.265424,13.5675949 L23.216784,13.5311392 L23.175136,13.4913418 L23.138352,13.4475949 L23.106432,13.4038481 L23.081504,13.3555443 L23.05992,13.3069367 L23.04168,13.2589367 L23.030432,13.2078987 L23.021008,13.1547342 L23.01432,13.104 L23.009456,13.0532658 L23.011888,13.0025316 L22.97936,13.0025316" id="Fill-551" fill="#FFFFFF" sketch:type="MSShapeGroup"></path>
            <path d="M23.807456,12.116962 L23.807456,12.116962 L23.727504,12.1309367 L23.649072,12.1518987 L23.573072,12.1771139 L23.498896,12.2093165 L23.427152,12.2460759 L23.357536,12.292557 L23.295824,12.3411646 L23.235936,12.3961519 L23.18,12.4538734 L23.131968,12.5182785 L23.085456,12.5875443 L23.051104,12.6637975 L23.021008,12.7421772 L23.000032,12.8251139 L22.986352,12.9126076 L22.97936,13.0025316 L23.011888,13.0025316 L23.01432,12.9126076 L23.028,12.8296709 L23.048672,12.7512911 L23.078464,12.6729114 L23.113424,12.6012152 L23.155072,12.5368101 L23.203712,12.4721013 L23.254176,12.4146835 L23.313456,12.3639494 L23.376384,12.3153418 L23.440528,12.2740253 L23.512576,12.236962 L23.58128,12.2050633 L23.657888,12.1795443 L23.731456,12.1585823 L23.807456,12.1449114 L23.807456,12.116962" id="Fill-552" fill="#FFFFFF" sketch:type="MSShapeGroup"></path>
            <path id="Fill-553" fill="#FFFFFF" sketch:type="MSShapeGroup" d="M24.283216,12.0686582 L24.25768,12.0686582 L24.225456,12.073519 L24.193536,12.0762532 L24.156752,12.0780759 L24.116928,12.0823291 L24.077712,12.0850633 L24.036064,12.0896203 L23.997152,12.0938734 L23.960064,12.0987342 L23.925712,12.1035949 L23.893184,12.1054177 L23.863392,12.1102785 L23.840288,12.1124051 L23.821744,12.1148354 L23.81232,12.116962 L23.807456,12.116962 L23.807456,12.1449114 L23.81232,12.1449114 L23.826608,12.1421772 L23.840288,12.1403544 L23.863392,12.1379241 L23.893184,12.1333671 L23.925712,12.1309367 L23.960064,12.1263797 L23.997152,12.121519 L24.036064,12.116962 L24.077712,12.1124051 L24.116928,12.1102785 L24.156752,12.1054177 L24.193536,12.1035949 L24.225456,12.1008608 L24.283216,12.1008608 L24.283216,12.0686582"></path>
            <path id="Fill-554" fill="#FFFFFF" sketch:type="MSShapeGroup" d="M24.594816,12.0938734 L24.609104,12.0823291 L24.59968,12.0823291 L24.579008,12.0802025 L24.541616,12.0780759 L24.498144,12.073519 L24.394176,12.073519 L24.338544,12.0686582 L24.283216,12.0686582 L24.283216,12.1008608 L24.394176,12.1008608 L24.447072,12.1054177 L24.541616,12.1054177 L24.579008,12.1078481 L24.59968,12.1102785 L24.609104,12.1102785 L24.622176,12.0987342 L24.609104,12.1102785 L24.620352,12.1124051 L24.622176,12.0987342 L24.594816,12.0938734"></path>
            <path id="Fill-555" fill="#FFFFFF" sketch:type="MSShapeGroup" d="M24.61792,11.9465316 L24.615792,11.9465316 L24.61336,11.9899747 L24.606064,12.0364557 L24.59968,12.0780759 L24.594816,12.0938734 L24.622176,12.0987342 L24.62704,12.0823291 L24.634032,12.0407089 L24.641328,11.9899747 L24.64832,11.9465316 L24.61792,11.9465316"></path>
            <path id="Fill-556" fill="#FFFFFF" sketch:type="MSShapeGroup" d="M24.343104,11.7180759 L24.343104,11.7205063 L24.396608,11.7229367 L24.44464,11.7369114 L24.491152,11.7572658 L24.530064,11.7852152 L24.562288,11.8174177 L24.590256,11.8566076 L24.609104,11.8979241 L24.61792,11.9465316 L24.64528,11.9465316 L24.636464,11.8936709 L24.61792,11.8426329 L24.585392,11.7991899 L24.548608,11.7618228 L24.504528,11.7299241 L24.453456,11.708962 L24.400864,11.6952911 L24.343104,11.6883038 L24.343104,11.7180759"></path>
            <path id="Fill-557" fill="#FFFFFF" sketch:type="MSShapeGroup" d="M23.35328,11.828962 L23.376384,11.8426329 L23.399792,11.8310886 L23.42928,11.8149873 L23.468496,11.8010127 L23.519568,11.7876456 L23.574896,11.7761013 L23.634784,11.7642532 L23.701968,11.7527089 L23.768544,11.7438987 L23.840288,11.7341772 L23.913856,11.7271899 L23.987424,11.7205063 L24.064032,11.7159494 L24.278352,11.7159494 L24.343104,11.7180759 L24.343104,11.6904304 L24.278352,11.6883038 L24.209648,11.683443 L24.1376,11.683443 L24.064032,11.6883038 L23.987424,11.692557 L23.913856,11.6998481 L23.840288,11.7068354 L23.768544,11.7159494 L23.697104,11.7247595 L23.62992,11.7369114 L23.570032,11.7484557 L23.515008,11.76 L23.464544,11.7733671 L23.420464,11.7876456 L23.385504,11.803443 L23.357536,11.8195443 L23.381248,11.833519 L23.35328,11.828962"></path>
            <path id="Fill-558" fill="#FFFFFF" sketch:type="MSShapeGroup" d="M23.524432,11.2614684 L23.515008,11.2733165 L23.35328,11.828962 L23.381248,11.833519 L23.542064,11.2775696 L23.533248,11.2894177 L23.524432,11.2614684 L23.517136,11.2638987 L23.515008,11.2733165 L23.524432,11.2614684"></path>
            <path id="Fill-559" fill="#FFFFFF" sketch:type="MSShapeGroup" d="M24.55104,11.1557468 L24.55104,11.1557468 L24.472608,11.1511899 L24.394176,11.1484557 L24.176816,11.1484557 L24.110544,11.1533165 L24.04336,11.1557468 L23.978608,11.1606076 L23.916288,11.164557 L23.853968,11.1736709 L23.796816,11.1830886 L23.738752,11.1949367 L23.682816,11.206481 L23.627792,11.2225823 L23.574896,11.2408101 L23.524432,11.2614684 L23.533248,11.2894177 L23.58432,11.2684557 L23.637216,11.2502278 L23.68768,11.2338228 L23.743616,11.2225823 L23.801072,11.2107342 L23.858528,11.2016203 L23.916288,11.1925063 L23.978608,11.1879494 L24.04336,11.1830886 L24.110544,11.180962 L24.394176,11.180962 L24.472608,11.1830886 L24.55104,11.1830886 L24.55104,11.1557468"></path>
            <path d="M25.342352,11.9374177 L25.342352,11.9374177 L25.354208,11.8426329 L25.354208,11.7551392 L25.3384,11.6740253 L25.312864,11.5980759 L25.27608,11.5269873 L25.229568,11.4622785 L25.173936,11.4048608 L25.116176,11.3538228 L25.0496,11.3097722 L24.980288,11.2684557 L24.90672,11.2362532 L24.834672,11.2083038 L24.758672,11.1879494 L24.686928,11.1718481 L24.615792,11.1606076 L24.55104,11.1557468 L24.55104,11.1830886 L24.615792,11.1879494 L24.682064,11.1994937 L24.754112,11.2155949 L24.825856,11.2362532 L24.896992,11.2638987 L24.966,11.2964051 L25.035616,11.3331646 L25.097936,11.3769114 L25.155392,11.4273418 L25.205856,11.4808101 L25.252064,11.5403544 L25.284896,11.6077975 L25.310432,11.6791899 L25.326544,11.7551392 L25.326544,11.8426329 L25.314384,11.9328608 L25.342352,11.9374177" id="Fill-560" fill="#FFFFFF" sketch:type="MSShapeGroup"></path>
            <path id="Fill-561" fill="#FFFFFF" sketch:type="MSShapeGroup" d="M25.100064,13.1547342 L25.100064,13.1547342 L25.342352,11.9374177 L25.314384,11.9328608 L25.0724,13.1501772 L25.100064,13.1547342"></path>
            <path d="M24.527936,12.550481 L24.523072,12.5368101 L24.514256,12.5255696 L24.498144,12.5182785 L24.474432,12.5115949 L24.449504,12.5091646 L24.419712,12.5067342 L24.384752,12.5067342 L24.3504,12.5091646 L24.313008,12.5137215 L24.276528,12.5182785 L24.239744,12.5231392 L24.204784,12.5276962 L24.170432,12.5346835 L24.140032,12.5392405 L24.110544,12.5462278 L24.087136,12.550481 L24.071328,12.5529114 L24.052784,12.5598987 L24.02968,12.5668861 L24.004144,12.576 L23.973744,12.5896709 L23.94608,12.6039494 L23.913856,12.6200506 L23.884064,12.6404051 L23.853968,12.6613671 L23.824176,12.6865823 L23.79864,12.7117975 L23.773104,12.7421772 L23.75304,12.7743797 L23.73632,12.8087089 L23.72264,12.8457722 L23.715648,12.884962 L23.713216,12.9636456 L23.724464,13.0256203 L23.743616,13.0721013 L23.770672,13.1064304 L23.805328,13.129519 L23.845152,13.1431899 L23.884064,13.1501772 L23.92328,13.1526076 L23.992288,13.1501772 L24.05704,13.1431899 L24.116928,13.1316456 L24.170432,13.1158481 L24.220896,13.0973165 L24.264672,13.0766582 L24.30632,13.0532658 L24.343104,13.0256203 L24.375936,13.0004051 L24.402992,12.9706329 L24.428528,12.9426835 L24.449504,12.9126076 L24.465616,12.884962 L24.476864,12.8573165 L24.486288,12.8296709 L24.49328,12.8044557 L24.5024,12.7397468 L24.514256,12.6729114 L24.523072,12.6085063 L24.527936,12.550481" id="Fill-562" fill="#FBB231" sketch:type="MSShapeGroup"></path>
            <path id="Fill-563" fill="#FFFFFF" sketch:type="MSShapeGroup" d="M29.28128,13.3488608 L29.286144,13.2953924 L29.304384,13.2331139 L29.337216,13.1778228 L29.376432,13.129519 L29.424464,13.0906329 L29.479792,13.0626835 L29.53968,13.0438481 L29.604432,13.0371646 L29.669792,13.0438481 L29.729072,13.0626835 L29.785008,13.0906329 L29.83304,13.129519 L29.872256,13.1778228 L29.904176,13.2331139 L29.923328,13.2953924 L29.927888,13.3488608 L29.858576,13.3488608 L29.856144,13.3069367 L29.842464,13.2562025 L29.81936,13.2103291 L29.78896,13.1708354 L29.752176,13.1386329 L29.709008,13.1158481 L29.657936,13.099443 L29.604432,13.0948861 L29.551536,13.099443 L29.501072,13.1158481 L29.456384,13.1386329 L29.4196,13.1708354 L29.390112,13.2103291 L29.367008,13.2562025 L29.353328,13.3069367 L29.348464,13.3488608 L29.28128,13.3488608"></path>
            <path id="Fill-564" fill="#FFFFFF" sketch:type="MSShapeGroup" d="M29.489216,13.3488608 L29.489216,13.2103291 L29.616288,13.2103291 L29.644256,13.2124557 L29.669792,13.2170127 L29.687424,13.224 L29.704144,13.2331139 L29.715392,13.2470886 L29.724208,13.2610633 L29.729072,13.2768608 L29.731504,13.2932658 L29.729072,13.3139241 L29.724208,13.3300253 L29.717824,13.344 L29.71296,13.3488608 L29.616288,13.3488608 L29.625104,13.3461266 L29.641216,13.344 L29.655504,13.339443 L29.66736,13.3348861 L29.676176,13.3278987 L29.68104,13.3206076 L29.6856,13.3096709 L29.6856,13.2932658 L29.682864,13.2817215 L29.678608,13.2723038 L29.671008,13.2680506 L29.66432,13.2631899 L29.653072,13.2610633 L29.641216,13.2589367 L29.546672,13.2589367 L29.546672,13.3488608 L29.489216,13.3488608"></path>
            <path id="Fill-565" fill="#FFFFFF" sketch:type="MSShapeGroup" d="M29.28128,13.3488608 L29.279456,13.3625316 L29.286144,13.4293671 L29.304384,13.4913418 L29.337216,13.5469367 L29.376432,13.5931139 L29.424464,13.632 L29.479792,13.6623797 L29.53968,13.6806076 L29.604432,13.6875949 L29.669792,13.6806076 L29.729072,13.6623797 L29.785008,13.632 L29.83304,13.5931139 L29.872256,13.5469367 L29.904176,13.4913418 L29.923328,13.4293671 L29.93032,13.3625316 L29.927888,13.3488608 L29.858576,13.3488608 L29.861008,13.3625316 L29.856144,13.4178228 L29.842464,13.468557 L29.81936,13.5126076 L29.78896,13.5511899 L29.752176,13.584 L29.709008,13.6089114 L29.657936,13.6253165 L29.604432,13.6298734 L29.551536,13.6253165 L29.501072,13.6089114 L29.456384,13.584 L29.4196,13.5511899 L29.390112,13.5126076 L29.367008,13.468557 L29.353328,13.4178228 L29.348464,13.3625316 L29.348464,13.3488608 L29.28128,13.3488608"></path>
            <path id="Fill-566" fill="#FFFFFF" sketch:type="MSShapeGroup" d="M29.489216,13.3488608 L29.489216,13.489519 L29.546672,13.489519 L29.546672,13.3740759 L29.604432,13.3740759 L29.673744,13.489519 L29.719648,13.489519 L29.65064,13.3740759 L29.66736,13.3740759 L29.682864,13.3692152 L29.697152,13.3646582 L29.709008,13.3555443 L29.71296,13.3488608 L29.616288,13.3488608 L29.604432,13.3509873 L29.546672,13.3509873 L29.546672,13.3488608 L29.489216,13.3488608"></path>
            <path d="M29.604432,13.6298734 L29.604432,13.6298734 L29.657936,13.6253165 L29.709008,13.6089114 L29.752176,13.584 L29.78896,13.5511899 L29.81936,13.5126076 L29.842464,13.468557 L29.856144,13.4178228 L29.861008,13.3625316 L29.856144,13.3069367 L29.842464,13.2562025 L29.81936,13.2103291 L29.78896,13.1708354 L29.752176,13.1386329 L29.709008,13.1158481 L29.657936,13.099443 L29.604432,13.0948861 L29.551536,13.099443 L29.501072,13.1158481 L29.456384,13.1386329 L29.4196,13.1708354 L29.390112,13.2103291 L29.367008,13.2562025 L29.353328,13.3069367 L29.348464,13.3625316 L29.353328,13.4178228 L29.367008,13.468557 L29.390112,13.5126076 L29.4196,13.5511899 L29.456384,13.584 L29.501072,13.6089114 L29.551536,13.6253165 L29.604432,13.6298734 M29.604432,13.3509873 L29.604432,13.3509873 L29.625104,13.3461266 L29.641216,13.344 L29.655504,13.339443 L29.66736,13.3348861 L29.676176,13.3278987 L29.68104,13.3206076 L29.6856,13.3096709 L29.6856,13.2932658 L29.682864,13.2817215 L29.678608,13.2723038 L29.671008,13.2680506 L29.66432,13.2631899 L29.653072,13.2610633 L29.641216,13.2589367 L29.546672,13.2589367 L29.546672,13.3509873 L29.604432,13.3509873 M29.546672,13.489519 L29.489216,13.489519 L29.489216,13.2103291 L29.616288,13.2103291 L29.644256,13.2124557 L29.669792,13.2170127 L29.687424,13.224 L29.704144,13.2331139 L29.715392,13.2470886 L29.724208,13.2610633 L29.729072,13.2768608 L29.731504,13.2932658 L29.729072,13.3139241 L29.724208,13.3300253 L29.717824,13.344 L29.709008,13.3555443 L29.697152,13.3646582 L29.682864,13.3692152 L29.66736,13.3740759 L29.65064,13.3740759 L29.719648,13.489519 L29.673744,13.489519 L29.604432,13.3740759 L29.546672,13.3740759 L29.546672,13.489519 M29.279456,13.3625316 L29.279456,13.3625316 L29.286144,13.2953924 L29.304384,13.2331139 L29.337216,13.1778228 L29.376432,13.129519 L29.424464,13.0906329 L29.479792,13.0626835 L29.53968,13.0438481 L29.604432,13.0371646 L29.669792,13.0438481 L29.729072,13.0626835 L29.785008,13.0906329 L29.83304,13.129519 L29.872256,13.1778228 L29.904176,13.2331139 L29.923328,13.2953924 L29.93032,13.3625316 L29.923328,13.4293671 L29.904176,13.4913418 L29.872256,13.5469367 L29.83304,13.5931139 L29.785008,13.632 L29.729072,13.6623797 L29.669792,13.6806076 L29.604432,13.6875949 L29.53968,13.6806076 L29.479792,13.6623797 L29.424464,13.632 L29.376432,13.5931139 L29.337216,13.5469367 L29.304384,13.4913418 L29.286144,13.4293671 L29.279456,13.3625316" id="Stroke-567" stroke="#FFFFFF" stroke-width="0.216" sketch:type="MSShapeGroup"></path>
            <path d="M25.25936,13.6645063 L25.90992,13.6645063 L26.143392,12.3524051 L26.152208,12.3019747 L26.165888,12.2509367 L26.180176,12.2002025 L26.19872,12.1494684 L26.221824,12.0987342 L26.249184,12.0501266 L26.27928,12.0042532 L26.316672,11.9602025 L26.357712,11.9213165 L26.40392,11.8842532 L26.456816,11.8493165 L26.517008,11.8216709 L26.583888,11.7991899 L26.657456,11.7806582 L26.73832,11.7666835 L26.828608,11.7618228 L26.886064,11.7618228 L26.990032,11.1694177 L26.92528,11.1736709 L26.86296,11.180962 L26.805504,11.1925063 L26.750176,11.2083038 L26.699104,11.2268354 L26.651072,11.2502278 L26.604864,11.275443 L26.561392,11.3030886 L26.519136,11.3355949 L26.47992,11.3677975 L26.443136,11.4048608 L26.406352,11.4413165 L26.371392,11.4808101 L26.337648,11.5242532 L26.302384,11.5658734 L26.269856,11.6120506 L26.339472,11.1949367 L25.69104,11.1949367 L25.25936,13.6645063" id="Fill-568" fill="#FFFFFF" sketch:type="MSShapeGroup"></path>
            <path d="M25.25936,13.6645063 L25.90992,13.6645063 L26.143392,12.3524051 L26.152208,12.3019747 L26.165888,12.2509367 L26.180176,12.2002025 L26.19872,12.1494684 L26.221824,12.0987342 L26.249184,12.0501266 L26.27928,12.0042532 L26.316672,11.9602025 L26.357712,11.9213165 L26.40392,11.8842532 L26.456816,11.8493165 L26.517008,11.8216709 L26.583888,11.7991899 L26.657456,11.7806582 L26.73832,11.7666835 L26.828608,11.7618228 L26.886064,11.7618228 L26.990032,11.1694177 L26.92528,11.1736709 L26.86296,11.180962 L26.805504,11.1925063 L26.750176,11.2083038 L26.699104,11.2268354 L26.651072,11.2502278 L26.604864,11.275443 L26.561392,11.3030886 L26.519136,11.3355949 L26.47992,11.3677975 L26.443136,11.4048608 L26.406352,11.4413165 L26.371392,11.4808101 L26.337648,11.5242532 L26.302384,11.5658734 L26.269856,11.6120506 L26.339472,11.1949367 L25.69104,11.1949367 L25.25936,13.6645063" id="Stroke-569" stroke="#FFFFFF" stroke-width="0.216" sketch:type="MSShapeGroup"></path>
            <path d="M19.14896,13.6645063 L19.811072,13.6645063 L20.032384,12.3524051 L20.042112,12.3019747 L20.05336,12.2533671 L20.065216,12.2050633 L20.081328,12.1585823 L20.099568,12.1124051 L20.122672,12.0686582 L20.150032,12.0273418 L20.182864,11.9881519 L20.219648,11.9529114 L20.260992,11.9188861 L20.311456,11.8909367 L20.367392,11.8657215 L20.432144,11.8447595 L20.50328,11.8268354 L20.581712,11.8149873 L20.672,11.808 L20.678384,11.808 L20.688112,11.8104304 L20.69936,11.8128608 L20.711216,11.8128608 L20.723072,11.8149873 L20.731888,11.8174177 L20.738576,11.8195443 L20.741008,11.8195443 L20.743744,11.8104304 L20.750432,11.7827848 L20.759248,11.7414684 L20.771104,11.6904304 L20.787216,11.6305823 L20.803328,11.5658734 L20.824608,11.5014684 L20.844672,11.4364557 L20.863824,11.3930127 L20.886928,11.348962 L20.909424,11.305519 L20.932528,11.2663291 L20.953504,11.2316962 L20.969616,11.2040506 L20.980864,11.1879494 L20.985424,11.180962 L20.982992,11.180962 L20.974176,11.1785316 L20.96232,11.1761013 L20.946208,11.1736709 L20.9304,11.1736709 L20.911856,11.1718481 L20.895744,11.1694177 L20.879936,11.1694177 L20.807888,11.1736709 L20.743744,11.180962 L20.683248,11.1925063 L20.62792,11.206481 L20.57472,11.2247089 L20.526384,11.2481013 L20.482608,11.2705823 L20.44096,11.2982278 L20.401744,11.3286076 L20.36496,11.3632405 L20.330608,11.3978734 L20.295648,11.4364557 L20.260992,11.4762532 L20.228464,11.5203038 L20.194112,11.5658734 L20.159456,11.6120506 L20.242752,11.1949367 L19.58064,11.1949367 L19.14896,13.6645063" id="Fill-570" fill="#FFFFFF" sketch:type="MSShapeGroup"></path>
            <path d="M19.14896,13.6645063 L19.811072,13.6645063 L20.032384,12.3524051 L20.042112,12.3019747 L20.05336,12.2533671 L20.065216,12.2050633 L20.081328,12.1585823 L20.099568,12.1124051 L20.122672,12.0686582 L20.150032,12.0273418 L20.182864,11.9881519 L20.219648,11.9529114 L20.260992,11.9188861 L20.311456,11.8909367 L20.367392,11.8657215 L20.432144,11.8447595 L20.50328,11.8268354 L20.581712,11.8149873 L20.672,11.808 L20.678384,11.808 L20.688112,11.8104304 L20.69936,11.8128608 L20.711216,11.8128608 L20.723072,11.8149873 L20.731888,11.8174177 L20.738576,11.8195443 L20.741008,11.8195443 L20.743744,11.8104304 L20.750432,11.7827848 L20.759248,11.7414684 L20.771104,11.6904304 L20.787216,11.6305823 L20.803328,11.5658734 L20.824608,11.5014684 L20.844672,11.4364557 L20.863824,11.3930127 L20.886928,11.348962 L20.909424,11.305519 L20.932528,11.2663291 L20.953504,11.2316962 L20.969616,11.2040506 L20.980864,11.1879494 L20.985424,11.180962 L20.982992,11.180962 L20.974176,11.1785316 L20.96232,11.1761013 L20.946208,11.1736709 L20.9304,11.1736709 L20.911856,11.1718481 L20.895744,11.1694177 L20.879936,11.1694177 L20.807888,11.1736709 L20.743744,11.180962 L20.683248,11.1925063 L20.62792,11.206481 L20.57472,11.2247089 L20.526384,11.2481013 L20.482608,11.2705823 L20.44096,11.2982278 L20.401744,11.3286076 L20.36496,11.3632405 L20.330608,11.3978734 L20.295648,11.4364557 L20.260992,11.4762532 L20.228464,11.5203038 L20.194112,11.5658734 L20.159456,11.6120506 L20.242752,11.1949367 L19.58064,11.1949367 L19.14896,13.6645063" id="Stroke-571" stroke="#FFFFFF" stroke-width="0.216" sketch:type="MSShapeGroup"></path>
            <path id="Fill-572" fill="#FBB231" sketch:type="MSShapeGroup" d="M29.286144,16.0906329 L29.286144,16.0812152 L29.304384,16.0213671 L29.337216,15.9682025 L29.376432,15.9223291 L29.424464,15.8852658 L29.479792,15.8573165 L29.53968,15.841519 L29.604432,15.8345316 L29.669792,15.841519 L29.729072,15.8573165 L29.785008,15.8852658 L29.83304,15.9223291 L29.872256,15.9682025 L29.904176,16.0213671 L29.923328,16.0812152 L29.923328,16.0906329 L29.856144,16.0906329 L29.842464,16.0423291 L29.81936,15.9982785 L29.78896,15.9587848 L29.752176,15.9268861 L29.709008,15.9013671 L29.657936,15.8852658 L29.604432,15.8807089 L29.551536,15.8852658 L29.501072,15.9013671 L29.456384,15.9268861 L29.4196,15.9587848 L29.390112,15.9982785 L29.367008,16.0423291 L29.353328,16.0906329 L29.286144,16.0906329"></path>
            <path id="Fill-573" fill="#FBB231" sketch:type="MSShapeGroup" d="M29.489216,16.0906329 L29.489216,16.0101266 L29.644256,16.0101266 L29.669792,16.0146835 L29.687424,16.0186329 L29.704144,16.0280506 L29.715392,16.0398987 L29.724208,16.0535696 L29.729072,16.0696709 L29.731504,16.0906329 L29.6856,16.0906329 L29.6856,16.0787848 L29.682864,16.0672405 L29.678608,16.0581266 L29.671008,16.0535696 L29.66432,16.0490127 L29.653072,16.0465823 L29.641216,16.0444557 L29.546672,16.0444557 L29.546672,16.0906329 L29.489216,16.0906329"></path>
            <path id="Fill-574" fill="#FBB231" sketch:type="MSShapeGroup" d="M29.279456,16.1410633 L29.286144,16.0906329 L29.353328,16.0906329 L29.353328,16.0924557 L29.348464,16.1410633 L29.279456,16.1410633"></path>
            <path id="Fill-575" fill="#FBB231" sketch:type="MSShapeGroup" d="M29.489216,16.1410633 L29.489216,16.0906329 L29.546672,16.0906329 L29.546672,16.1365063 L29.604432,16.1365063 L29.625104,16.1322532 L29.641216,16.1298228 L29.655504,16.124962 L29.66736,16.1204051 L29.676176,16.1137215 L29.68104,16.1064304 L29.6856,16.0954937 L29.6856,16.0906329 L29.731504,16.0906329 L29.729072,16.1064304 L29.724208,16.1204051 L29.717824,16.1322532 L29.709008,16.1410633 L29.489216,16.1410633"></path>
            <path id="Fill-576" fill="#FBB231" sketch:type="MSShapeGroup" d="M29.861008,16.1410633 L29.856144,16.0924557 L29.856144,16.0906329 L29.923328,16.0906329 L29.93032,16.1410633 L29.861008,16.1410633"></path>
            <path id="Fill-577" fill="#FBB231" sketch:type="MSShapeGroup" d="M29.279456,16.1410633 L29.279456,16.1480506 L29.286144,16.2148861 L29.304384,16.2771646 L29.337216,16.3324557 L29.376432,16.3810633 L29.424464,16.420557 L29.479792,16.4475949 L29.53968,16.4664304 L29.604432,16.4731139 L29.669792,16.4664304 L29.729072,16.4475949 L29.785008,16.420557 L29.83304,16.3810633 L29.872256,16.3324557 L29.904176,16.2771646 L29.923328,16.2148861 L29.93032,16.1480506 L29.93032,16.1410633 L29.861008,16.1410633 L29.861008,16.1480506 L29.856144,16.2036456 L29.842464,16.2543797 L29.81936,16.2978228 L29.78896,16.3367089 L29.752176,16.3698228 L29.709008,16.395038 L29.657936,16.4111392 L29.604432,16.4156962 L29.551536,16.4111392 L29.501072,16.395038 L29.456384,16.3698228 L29.4196,16.3367089 L29.390112,16.2978228 L29.367008,16.2543797 L29.353328,16.2036456 L29.348464,16.1480506 L29.348464,16.1410633 L29.279456,16.1410633"></path>
            <path id="Fill-578" fill="#FBB231" sketch:type="MSShapeGroup" d="M29.489216,16.1410633 L29.489216,16.275038 L29.546672,16.275038 L29.546672,16.1595949 L29.604432,16.1595949 L29.673744,16.275038 L29.719648,16.275038 L29.65064,16.1595949 L29.66736,16.1595949 L29.682864,16.155038 L29.697152,16.150481 L29.709008,16.1410633 L29.489216,16.1410633"></path>
            <path d="M18.595072,12.1421772 L17.75208,12.1421772 L17.752384,12.1403544 L17.751472,12.1400506 L17.757248,12.1078481 L17.766672,12.0595443 L17.780352,12.0133671 L17.796464,11.9674937 L17.817136,11.9261772 L17.83872,11.8866835 L17.863648,11.8493165 L17.891616,11.8149873 L17.921712,11.7827848 L17.950896,11.7551392 L17.985856,11.7299241 L18.020208,11.708962 L18.060032,11.6904304 L18.099248,11.6770633 L18.138464,11.6673418 L18.179504,11.6606582 L18.223888,11.6582278 L18.264928,11.6627848 L18.304144,11.6697722 L18.341536,11.6791899 L18.377712,11.692557 L18.412672,11.7113924 L18.447328,11.7320506 L18.477424,11.7551392 L18.504784,11.7827848 L18.527888,11.8149873 L18.550992,11.8493165 L18.567104,11.8888101 L18.583824,11.9328608 L18.59264,11.9787342 L18.597504,12.0294684 L18.599936,12.0850633 L18.595072,12.1421772 L18.595072,12.1421772 Z M19.2204,11.9301266 L19.201856,11.7922025 L19.169936,11.6697722 L19.123424,11.5640506 L19.065968,11.4713924 L18.996352,11.3930127 L18.920352,11.3286076 L18.83736,11.2733165 L18.74768,11.2316962 L18.65496,11.1967595 L18.560112,11.1736709 L18.466176,11.1578734 L18.371328,11.1484557 L18.281648,11.1460253 L18.094384,11.1557468 L17.9284,11.1830886 L17.77792,11.2247089 L17.644464,11.2824304 L17.52864,11.3516962 L17.427104,11.4300759 L17.337424,11.5175696 L17.263248,11.6099241 L17.199104,11.7068354 L17.1456,11.808 L17.104864,11.9076456 L17.0696,12.0060759 L17.044064,12.1035949 L17.025824,12.1929114 L17.012144,12.2785823 L17.00272,12.3524051 L16.991472,12.5413671 L16.997856,12.7117975 L17.023392,12.8664304 L17.062608,13.0025316 L17.118544,13.1246582 L17.184816,13.2309873 L17.263248,13.3254684 L17.353536,13.4038481 L17.450208,13.4709873 L17.554176,13.5281013 L17.663008,13.5724557 L17.775792,13.6067848 L17.891616,13.6347342 L18.006528,13.6508354 L18.121744,13.6623797 L18.235136,13.6645063 L18.311136,13.6645063 L18.382576,13.6623797 L18.444896,13.6623797 L18.504784,13.6599494 L18.558288,13.6553924 L18.60632,13.6508354 L18.652528,13.6462785 L18.694176,13.6392911 L18.733392,13.632 L18.770176,13.6231899 L18.807568,13.6113418 L18.84192,13.6001013 L18.876576,13.5858228 L18.91336,13.5724557 L18.950752,13.5536203 L18.987536,13.5353924 L19.080256,12.9682025 L19.012464,13.0073924 L18.94832,13.0438481 L18.881136,13.0721013 L18.816384,13.0973165 L18.754064,13.1179747 L18.68992,13.1316456 L18.626992,13.1431899 L18.564672,13.1526076 L18.50296,13.1571646 L18.442464,13.1595949 L18.380144,13.1595949 L18.320864,13.1571646 L18.260064,13.1526076 L18.200176,13.1456203 L18.143328,13.1386329 L18.082528,13.129519 L18.03632,13.1201013 L17.99072,13.104 L17.9436,13.0836456 L17.902864,13.0578228 L17.861216,13.030481 L17.824432,12.9961519 L17.79008,12.9612152 L17.757248,12.9217215 L17.72928,12.8828354 L17.704352,12.8393924 L17.686112,12.7974684 L17.669392,12.7534177 L17.659968,12.7096709 L17.65632,12.6656203 L17.658144,12.6267342 L17.663616,12.596962 L19.160208,12.596962 L19.172064,12.4563038 L19.20672,12.2621772 L19.222528,12.0868861 L19.2204,11.9301266 L19.2204,11.9301266 Z" id="Fill-579" fill="#FFFFFF" sketch:type="MSShapeGroup"></path>
        </g>
    </g>
</svg>