<?xml version="1.0" encoding="UTF-8" standalone="no"?>
<svg width="38px" height="24px" viewBox="0 0 38 24" version="1.1" xmlns="http://www.w3.org/2000/svg" xmlns:xlink="http://www.w3.org/1999/xlink" xmlns:sketch="http://www.bohemiancoding.com/sketch/ns">
    <!-- Generator: Sketch 3.0.4 (8054) - http://www.bohemiancoding.com/sketch -->
    <title>Slice 2</title>
    <desc>Created with Sketch.</desc>
    <defs></defs>
    <g id="Page-1" stroke="none" stroke-width="1" fill="none" fill-rule="evenodd" sketch:type="MSPage">
        <g id="Group" sketch:type="MSLayerGroup">
            <path d="M37.995136,22.6842532 C37.995136,23.3854177 37.425744,23.9538228 36.724112,23.9538228 L1.135136,23.9538228 C0.433504,23.9538228 -0.13528,23.3854177 -0.13528,22.6842532 L-0.13528,1.40810127 C-0.13528,0.706936709 0.433504,0.138531646 1.135136,0.138531646 L36.724112,0.138531646 C37.425744,0.138531646 37.995136,0.706936709 37.995136,1.40810127 L37.995136,22.6842532" id="Fill-644" fill="#0078A9" sketch:type="MSShapeGroup"></path>
            <path d="M11.695184,11.4917468 L11.695184,11.1107848 L11.512784,11.4917468 L9.934112,11.4917468 L9.7356,11.0828354 L9.7356,11.4917468 L6.784672,11.4917468 L6.436288,10.6669367 L5.845008,10.6669367 L5.475648,11.4917468 L3.945616,11.4917468 L3.945616,9.00212658 L5.067072,6.46602532 L7.214528,6.46602532 L7.5164,7.18450633 L7.5164,6.47118987 L10.142352,6.47118987 L10.720256,7.68121519 L11.285392,6.46602532 L19.576384,6.46602532 C19.576384,6.46602532 20.011104,6.45994937 20.297472,6.66106329 L20.295648,6.46602532 L22.384432,6.46602532 L22.384432,6.74065823 C22.384432,6.74065823 22.760176,6.46602532 23.31528,6.46602532 L27.00128,6.46602532 L27.32504,7.19513924 L27.32504,6.46602532 L29.686816,6.46602532 L30.115456,7.19513924 L30.115456,6.46602532 L32.373568,6.46602532 L32.373568,11.4963038 L30.053744,11.4963038 L29.508672,10.6195443 L29.508672,11.4917468 L26.625536,11.4917468 L26.22,10.5934177 L25.654864,10.5934177 L25.274864,11.4917468 L23.5296,11.4917468 C23.5296,11.4917468 22.87904,11.4835443 22.390816,11.134481 L22.390816,11.4917468 L18.917008,11.4917468 L18.917008,10.3181772 C18.917008,10.1477468 18.786288,10.1595949 18.786288,10.1595949 L18.659216,10.1595949 L18.659216,11.4917468 L11.695184,11.4917468" id="Fill-645" fill="#FFFFFF" sketch:type="MSShapeGroup"></path>
            <path d="M9.961472,12.5811646 L14.526032,12.5811646 L15.185104,13.3263797 L15.859072,12.5811646 L19.368752,12.5811646 C19.368752,12.5811646 19.698288,12.5893671 20.011104,12.7561519 L20.011104,12.5811646 L23.136528,12.5811646 C23.533248,12.5811646 23.866432,12.7792405 23.866432,12.7792405 L23.866432,12.5811646 L27.883792,12.5811646 L27.883792,12.7637468 C27.883792,12.7637468 28.169856,12.5811646 28.55472,12.5811646 L31.171856,12.5811646 L31.171856,12.7637468 C31.171856,12.7637468 31.501392,12.5811646 31.85008,12.5811646 L33.904816,12.5811646 L33.904816,17.3213165 C33.904816,17.3213165 33.634864,17.6269367 33.076112,17.6269367 L30.366864,17.6269367 L30.366864,17.4762532 C30.366864,17.4762532 30.109072,17.6269367 29.716,17.6269367 L22.519104,17.6269367 L22.519104,16.4017215 C22.519104,16.2811139 22.466816,16.2592405 22.359504,16.2592405 L22.2604,16.2592405 L22.2604,17.6269367 L20.011104,17.6269367 L20.011104,16.2677468 C20.011104,16.2677468 19.761824,16.4017215 19.34504,16.4017215 L18.5364,16.4017215 L18.5364,17.6269367 L15.76392,17.6269367 L15.133424,16.8580253 L14.459152,17.6269367 L9.961472,17.6269367 L9.961472,12.5811646" id="Fill-646" fill="#FFFFFF" sketch:type="MSShapeGroup"></path>
            <path d="M24.348576,13.3376203 L27.213472,13.3376203 L27.213472,14.1053165 L25.225616,14.1053165 L25.225616,14.7748861 L27.157536,14.7748861 L27.157536,15.4511392 L25.225616,15.4511392 L25.225616,16.1553418 L27.213472,16.1553418 L27.213472,16.9042025 L24.348576,16.9042025 L24.348576,13.3376203" id="Fill-647" fill="#0078A9" sketch:type="MSShapeGroup"></path>
            <path d="M32.747792,14.7271899 C33.824256,14.782481 33.914544,15.3198987 33.914544,15.8931646 C33.914544,16.5612152 33.364608,16.9203038 32.79096,16.9203038 L30.950544,16.9203038 L30.950544,16.1553418 L32.384208,16.1553418 C32.627712,16.1553418 32.99008,16.1553418 32.99008,15.812962 C32.99008,15.6504304 32.926544,15.5468354 32.667536,15.5194937 C32.55232,15.5027848 32.12672,15.4790886 32.061968,15.4778734 C31.089472,15.4523544 30.862384,14.9687089 30.862384,14.3802532 C30.862384,13.7115949 31.332672,13.3458228 31.906928,13.3458228 L33.74704,13.3458228 L33.74704,14.1101772 L32.40032,14.1101772 C32.093888,14.1132152 31.763136,14.0740253 31.763136,14.4200506 C31.763136,14.6387848 31.926384,14.6828354 32.133712,14.7028861 C32.205456,14.7028861 32.683648,14.7277975 32.747792,14.7271899" id="Fill-648" fill="#0078A9" sketch:type="MSShapeGroup"></path>
            <path d="M29.448176,14.7271899 C30.525248,14.782481 30.615536,15.3198987 30.615536,15.8931646 C30.615536,16.5612152 30.066208,16.9203038 29.492256,16.9203038 L27.652144,16.9203038 L27.652144,16.1553418 L29.086112,16.1553418 C29.329008,16.1553418 29.69168,16.1553418 29.69168,15.812962 C29.69168,15.6504304 29.627536,15.5468354 29.368528,15.5194937 C29.253616,15.5027848 28.827104,15.4790886 28.763568,15.4778734 C27.789856,15.4523544 27.564896,14.9687089 27.564896,14.3802532 C27.564896,13.7115949 28.034576,13.3458228 28.60792,13.3458228 L30.448032,13.3458228 L30.448032,14.1101772 L29.10192,14.1101772 C28.795184,14.1132152 28.464432,14.0740253 28.464432,14.4200506 C28.464432,14.6387848 28.628288,14.6828354 28.835616,14.7028861 C28.906752,14.7028861 29.38464,14.7277975 29.448176,14.7271899" id="Fill-649" fill="#0078A9" sketch:type="MSShapeGroup"></path>
            <path d="M18.763792,14.9668861 L17.672432,14.9668861 L17.672432,14.1107848 L18.767136,14.1107848 C19.134064,14.1107848 19.249888,14.3456203 19.249888,14.5209114 C19.249888,14.76 19.122208,14.9668861 18.763792,14.9668861 L18.763792,14.9668861 Z M16.7884,16.5697215 L15.529536,15.0808101 L16.7884,13.6875949 L16.7884,16.5697215 L16.7884,16.5697215 Z M13.438928,16.1553418 L11.418544,16.1553418 L11.418544,15.4511392 L13.351072,15.4511392 L13.351072,14.7748861 L11.418544,14.7748861 L11.418544,14.1053165 L13.54928,14.1101772 L14.402608,15.0808101 L13.438928,16.1553418 L13.438928,16.1553418 Z M19.058672,13.3452152 L15.983712,13.3452152 L14.9796,14.4519494 L14.00832,13.3376203 L10.554576,13.3376203 L10.554576,16.9042025 L13.896144,16.9042025 L14.948288,15.7257722 L15.975504,16.9127089 L17.656928,16.9127089 L17.656928,15.7014684 L18.835536,15.7014684 C19.289712,15.7014684 20.11872,15.6862785 20.11872,14.4358481 C20.11872,13.5442025 19.489136,13.3452152 19.058672,13.3452152 L19.058672,13.3452152 Z" id="Fill-650" fill="#0078A9" sketch:type="MSShapeGroup"></path>
            <path d="M22.535216,14.9188861 L21.443856,14.9188861 L21.443856,14.1107848 L22.538864,14.1107848 C22.905184,14.1107848 23.021008,14.3456203 23.021008,14.5209114 C23.021008,14.7593924 22.893936,14.9188861 22.535216,14.9188861 L22.535216,14.9188861 Z M23.291568,15.288 C23.770064,15.049519 23.897136,14.7308354 23.897136,14.3006582 C23.897136,13.5369114 23.276064,13.3458228 22.8456,13.3458228 L20.567424,13.3458228 L20.567424,16.9127089 L21.443856,16.9127089 L21.443856,15.6540759 L22.591152,15.6540759 C22.893936,15.6540759 23.013104,15.9566582 23.021008,16.2592405 L23.044112,16.9127089 L23.897136,16.9127089 L23.865216,16.1799494 C23.865216,15.6060759 23.706528,15.3353924 23.291568,15.288 L23.291568,15.288 Z" id="Fill-651" fill="#0078A9" sketch:type="MSShapeGroup"></path>
            <path d="M20.918544,7.18025316 L21.794672,7.18025316 L21.794672,10.7510886 L20.918544,10.7510886 L20.918544,7.18025316 Z" id="Fill-652" fill="#0078A9" sketch:type="MSShapeGroup"></path>
            <path d="M13.74536,7.18450633 L16.60904,7.18450633 L16.60904,7.95220253 L14.621792,7.95220253 L14.621792,8.62177215 L16.553104,8.62177215 L16.553104,9.29802532 L14.621792,9.29802532 L14.621792,10.0025316 L16.60904,10.0025316 L16.60904,10.7510886 L13.74536,10.7510886 L13.74536,7.18450633" id="Fill-653" fill="#0078A9" sketch:type="MSShapeGroup"></path>
            <path d="M19.096672,8.75756962 L18.005616,8.75756962 L18.005616,7.94946835 L19.100928,7.94946835 C19.46664,7.94946835 19.583072,8.1843038 19.583072,8.35929114 C19.583072,8.59837975 19.455392,8.75756962 19.096672,8.75756962 L19.096672,8.75756962 Z M19.853936,9.12668354 C20.332432,8.88881013 20.459504,8.56951899 20.459504,8.13934177 C20.459504,7.37498734 19.837824,7.18450633 19.407968,7.18450633 L17.129184,7.18450633 L17.129184,10.7510886 L18.005616,10.7510886 L18.005616,9.49336709 L19.152608,9.49336709 C19.455392,9.49336709 19.575472,9.79534177 19.583072,10.0979241 L19.606784,10.7510886 L20.459504,10.7510886 L20.427888,10.0183291 C20.427888,9.44536709 20.268288,9.17468354 19.853936,9.12668354 L19.853936,9.12668354 Z" id="Fill-654" fill="#0078A9" sketch:type="MSShapeGroup"></path>
            <path d="M5.550432,9.18531646 L6.073008,7.93883544 L6.617472,9.18531646 L5.550432,9.18531646 L5.550432,9.18531646 Z M11.724064,7.18450633 L10.648816,9.57691139 L9.577216,7.18450633 L8.203136,7.18450633 L8.203136,10.6195443 L6.673712,7.18450633 L5.514256,7.18450633 L3.952608,10.7510886 L4.877072,10.7510886 L5.219072,9.95483544 L6.968288,9.95483544 L7.315152,10.7510886 L9.07896,10.7510886 L9.07896,8.10379747 L10.250576,10.7510886 L11.04736,10.7510886 L12.246032,8.1475443 L12.246032,10.7510886 L13.122464,10.7510886 L13.122464,7.18450633 L11.724064,7.18450633 L11.724064,7.18450633 Z" id="Fill-655" fill="#0078A9" sketch:type="MSShapeGroup"></path>
            <path d="M25.454528,9.18713924 L25.976496,7.94035443 L26.526432,9.18713924 L25.454528,9.18713924 L25.454528,9.18713924 Z M30.837152,7.18268354 L30.837152,9.65225316 L29.359104,7.18268354 L28.064064,7.18268354 L28.064064,10.5323544 L26.571424,7.18450633 L25.411968,7.18450633 L24.204784,9.94724051 C24.204784,9.94724051 23.694672,9.94724051 23.642992,9.93478481 C23.43232,9.89134177 23.102176,9.74248101 23.09792,9.11362025 L23.09792,8.85478481 C23.09792,8.01873418 23.5524,7.95767089 24.134864,7.95767089 L24.67568,7.95767089 L24.67568,7.18268354 L23.531424,7.18268354 C23.133184,7.18268354 22.266176,7.48648101 22.236992,8.9516962 C22.216928,9.93903797 22.647392,10.7529114 23.61928,10.7529114 L24.774784,10.7529114 L25.116784,9.95665823 L26.865392,9.95665823 L27.212256,10.7529114 L28.941104,10.7529114 L28.941104,8.14116456 L30.518256,10.7529114 L31.71328,10.7529114 L31.71328,7.18268354 L30.837152,7.18268354 L30.837152,7.18268354 Z" id="Fill-656" fill="#0078A9" sketch:type="MSShapeGroup"></path>
        </g>
    </g>
</svg>